<?xml version="1.0" encoding="utf-8"?>
<!-- Generator: Adobe Illustrator 27.7.0, SVG Export Plug-In . SVG Version: 6.00 Build 0)  -->
<svg version="1.1" id="Layer_1" xmlns="http://www.w3.org/2000/svg" xmlns:xlink="http://www.w3.org/1999/xlink" x="0px" y="0px"
	 viewBox="0 0 98 122" style="enable-background:new 0 0 98 122;" xml:space="preserve">
<style type="text/css">
	.st0{fill:#952DCE;}
	.st1{fill:#FEFEFF;}
	.st2{fill:#FBEFFF;}
	.st3{fill:#F7E9FE;}
	.st4{fill:#FEEEFE;}
	.st5{fill:#B98AD1;}
	.st6{fill:#5B596A;}
	.st7{fill:#4D3E5E;}
	.st8{fill:#8A68A5;}
	.st9{fill:#9B4ECC;}
	.st10{fill:#0A0D10;}
	.st11{fill:#942DCD;}
	.st12{fill:#993CCE;}
	.st13{fill:#9343C4;}
	.st14{fill:#9B43D1;}
	.st15{fill:#A478D3;}
	.st16{fill:#943AC6;}
	.st17{fill:#9D51CE;}
	.st18{fill:#F9CEFF;}
	.st19{fill:#A155CE;}
	.st20{fill:#A759D3;}
	.st21{fill:#EA84FF;}
	.st22{fill:#AA5BD4;}
	.st23{fill:#C89FE2;}
	.st24{fill:#BF82DE;}
	.st25{fill:#FBF0FD;}
</style>
<g>
	<g>
		<path class="st0" d="M4,73.2c0-2.1,0-4.2,0-6.2c0.1-0.3,0.2-0.7,0.2-1c0-0.2,0-0.3,0.1-0.5c0.1-0.1,0.4-0.1,0.4-0.2
			c0.4-1,0.7-2,1.1-3c2-4.4,5-8,9.5-10c5.7-2.5,11.5-2.4,17,0.7c4.3,2.4,7.3,6,8.9,10.7c1.1,3.2,0.4,2.8,3.8,2.8
			c1.6,0,3.2-0.1,4.8-0.1c-0.5-2.6-0.9-4.9-1.4-7.1c-0.5-2.1-1.2-4.1-1.7-6.3c-0.5-2-0.7-4-1-6c-0.5-3.1-1.2-6.1-1.3-9.2
			c-0.1-3.7,0.5-7.3,2.1-10.6c2.1-4.3,5.3-7.5,9.5-9.6c0.6-0.4,1.2-0.8,1.8-1.3c0.4,0,0.8-0.1,1.2-0.1c0.3,0,0.5,0,0.8,0.1
			c0.2,1.7,0.4,3.4,0.5,5.1c0.1,2.3,0.5,4.5,1.4,6.7c0.9,2.1,1.7,4.2,2.7,6.5c-1.1,0.1-2.1,0-3,0.3c-2.7,0.8-4.2,2.9-5,5.5
			c-1.1,3.5-0.8,7.1-0.4,10.6c0.5,4.9,2.2,9.6,2.2,14.6c0,0.3,0.6,0.6,0.9,0.9c0.1,0,0.2,0,0.3,0c0.7,0,1.3,0,2,0c1.1,0,2.2,0,3.3,0
			c0.2,0,0.5,0,0.7,0c0.7,0,1.3,0,2,0c0.4-0.1,0.8-0.2,1.2-0.3c0-0.7,0.1-1.3,0.1-2c0-0.6,0-1.2,0-1.7c0,0,0.1-0.1,0.1-0.1
			c0-0.1,0-0.1-0.1-0.2c0-0.2,0-0.5,0-0.7c0,0,0.1-0.1,0.1-0.1c0-0.1,0-0.1-0.1-0.2c0-0.2,0-0.5,0-0.7c0,0,0.1-0.1,0.1-0.1
			c0-0.1,0-0.1-0.1-0.2c0-0.9,0-1.8,0-2.7c0,0,0-0.1,0-0.1c0-0.1-0.1-0.1-0.1-0.1c-0.4-1.3-0.9-2.7-1.3-4.1c0.4,0,1,0,1.6-0.1
			c0.1,0,0.2,0,0.3,0c4.3,0,8.7,0,13,0c0.5,0,1,0.1,1.5,0.2c0,0.4,0,0.8,0,1.2c0,0,0,0,0,0c-0.1,0.1-0.2,0.1-0.3,0.2
			c-1.4,0.8-2.7,1.5-4.1,2.3c-3.5,2-4.1,5.3-3.7,9c0,0.2,0.3,0.4,0.5,0.6c0.1,0,0.2,0,0.3,0c0.8,0,1.7,0,2.5,0c1.2,0,2.3,0,3.5,0
			c0.5,0,1,0,1.5,0c0.1,0,0.2,0,0.3,0c0.3,0,0.7-0.1,1-0.1c0.1-0.1,0.2-0.1,0.3-0.2c-0.1-0.8-0.1-1.6-0.2-2.8c1.8,0.8,3.4,1.4,5,2.1
			c2.5,1.4,5,2.8,7.7,4.4c-3.7,2.4-7.4,4.4-11.2,6.4c-0.3-0.5-0.6-1.1-0.8-1.6c-0.2-0.4-0.3-0.9-0.5-1.4c-2.8-0.1-5.6-0.1-8.4-0.2
			c-0.1,0-0.2,0-0.3,0c-0.2,0.2-0.5,0.4-0.7,0.6c0,2.2,0,4.4,0,6.5c0.2,0.4,0.4,0.9,0.7,1.3c1.8,2,4,3.6,6.5,4.8
			c0.3,0.2,0.5,0.5,0.8,0.8c-0.1,0.2-0.1,0.3-0.2,0.5c-1.1,0-2.2,0-3.3,0.1c-1.2,0-2.3,0-3.5,0c-0.2,0-0.3,0-0.5,0
			c-1.8,0-3.5,0-5.3,0c-0.2,0-0.3,0-0.5,0c-0.1,0-0.2,0-0.3,0c-0.4,0-0.8,0-1.2,0c-0.3-0.5-0.7-1-1-1.5c0.2-0.9,0.4-1.8,0.6-2.7
			c0-0.2,0-0.3,0-0.5c0-0.2,0-0.3,0-0.5c0,0,0.1-0.1,0.1-0.1c0-0.1,0-0.1-0.1-0.2c0-0.2,0-0.5,0-0.7c0,0,0.1-0.1,0.1-0.1
			c0-0.1,0-0.1-0.1-0.2c0-0.2,0-0.5,0-0.7c0,0,0.1-0.1,0.1-0.1c0-0.1,0-0.1-0.1-0.2c0-0.2,0-0.5,0-0.7c0,0,0.1-0.1,0.1-0.1
			c0-0.1,0-0.1-0.1-0.2c0-0.2,0-0.5,0-0.7c0,0,0.1-0.1,0.1-0.1c0-0.1,0-0.1-0.1-0.2c0-1.6,0-3.3,0-4.9c-3.2,0-6.1,0-9,0
			c0.2,1.3,0.5,2.5,0.7,3.7c0.6,3.5,1.1,7,1.7,10.5c-0.2,0.3-0.6,0.6-0.7,0.9c-0.2,0.7-0.4,1.5-0.4,2.2c-0.1,0.8,0.1,1.5,0.1,2.4
			c0.7-0.2,1.1-0.4,1.5-0.5c0,1.2,0,2.5,0,3.7c-0.4-0.2-0.7-0.4-1.3-0.7C61,97,61,98.5,61.9,99.9c-0.2,0.7-0.5,1.4-0.7,2.1
			c-0.9,0.3-0.9,0.8-0.4,1.5c0,0.2,0,0.3-0.1,0.5c-0.1,0.1-0.1,0.2-0.2,0.3c0,0.2,0,0.3-0.1,0.5c-0.1,0.2-0.1,0.3-0.2,0.5
			c0,0.2,0,0.3,0,0.5c-1.6,0.3-2.1-0.8-2.7-1.9c-0.4-0.7-1-1.2-1.5-1.8c0-0.6,0-1.2,0-1.7c0.4-0.4,0.8-0.7,1.1-1.1
			c-0.4-0.3-0.8-0.6-1.1-0.9c-0.3-3-0.6-6-1.1-9c-0.3-2-0.8-3.9-1.2-5.9c-0.7-3.2-1.5-6.4-2.3-9.5C51.4,73.5,51,73,50.8,73
			c-2.6-0.1-5.1,0-7.8,0c0.1,3.7,1.5,6.9,2.6,10.2c0.1,0.2,0.1,0.3,0.2,0.5c0,0.2,0,0.3,0,0.5c-0.5,0.1-1,0.2-1.5,0.3l0,0
			c-0.1-0.1-0.2-0.2-0.3-0.3c-1.2-1.1-2.3-2.2-3.5-3.3c-0.5-0.5-0.9-0.5-1.3,0.2c-2.7,4.1-6.3,6.8-11.1,8.3
			c-4.6,1.4-8.9,0.8-13.1-1.2c-2.5-1.2-4.5-3.1-6.2-5.2c-1.8-2.1-3.2-4.5-3.7-7.2c-0.1-0.3-0.2-0.7-0.2-1c-0.1-0.5-0.3-1-0.4-1.5
			C4.2,73.3,4.1,73.3,4,73.2z M36.1,70.7c-0.1-0.8-0.2-1.7-0.3-2.6c-0.5-3.6-2.3-6.5-5-8.8c-2.1-1.7-4.5-2.4-7.3-2.4
			c-2.7,0.1-5.1,0.4-7.3,2.1c-3.3,2.5-5.2,5.9-5.6,9.9c-0.5,5,1.4,9.2,5.4,12.4c2.3,1.8,4.9,2.8,7.7,2.6c3.6-0.3,6.7-1.8,9.1-4.7
			C34.8,76.7,35.9,74,36.1,70.7z"/>
		<path class="st1" d="M59,66.3c-0.3-0.3-0.9-0.6-0.9-0.9c0-5-1.7-9.7-2.2-14.6c-0.4-3.5-0.7-7.1,0.4-10.6c0.8-2.5,2.3-4.6,5-5.5
			c0.9-0.3,1.9-0.2,3-0.3c-0.9-2.3-1.8-4.4-2.7-6.5c-0.9-2.1-1.3-4.4-1.4-6.7c-0.1-1.7-0.3-3.4-0.5-5.1c0.1-0.1,0.2-0.2,0.3-0.3
			c12.7,0,25.3,0,38,0c0,1,0,2,0,3c-0.2,0.3-0.6,0.5-0.6,0.8c-0.1,0.8-0.1,1.7-0.1,2.5c0,13.7,0,27.5,0,41.2c0,1.1,0,2.2-0.1,3.3
			c0,0.3-0.3,0.6-0.3,0.6c-0.9-0.2-1.6-0.3-2.2-0.5c-0.5-0.2-1-0.4-1.4-0.7c-0.5-0.5-2.4-1.1-3.3-0.9c-1.6-0.7-3.2-1.3-5-2.1
			c0.1,1.2,0.2,2,0.2,2.8c-0.1,0.1-0.2,0.1-0.3,0.2c-0.3,0-0.7,0.1-1,0.1c-0.1,0-0.2,0-0.3,0c-0.5,0-1,0-1.5,0c-1.2,0-2.3,0-3.5,0
			c-0.8,0-1.7,0-2.5,0c-0.1,0-0.2,0-0.3,0c-0.2-0.2-0.4-0.4-0.5-0.6c-0.4-3.7,0.1-7,3.7-9c1.3-0.8,2.7-1.5,4.1-2.3
			c0.1-0.1,0.2-0.1,0.3-0.2c0,0,0,0,0,0c0.7-0.3,1.4-0.6,2.1-0.8c0-0.2-0.1-0.3-0.1-0.5c-0.7,0-1.3,0.1-2,0.1
			c-0.5-0.1-1-0.2-1.5-0.2c-4.3,0-8.7,0-13,0c-0.1,0-0.2,0-0.3,0c-0.6,0-1.2,0.1-1.6,0.1c0.5,1.4,0.9,2.8,1.3,4.1
			c0,0.1,0,0.2,0.1,0.2c0,0.9,0,1.8,0,2.7c0,0.1,0,0.2,0,0.3c0,0.2,0,0.5,0,0.7c0,0.1,0,0.2,0,0.3c0,0.2,0,0.5,0,0.7
			c0,0.1,0,0.2,0,0.3c0,0.6,0,1.2,0,1.7c0,0.7-0.1,1.3-0.1,2c-0.4,0.1-0.8,0.2-1.2,0.3c-0.7,0-1.3,0-2,0c-0.2,0-0.5,0-0.7,0
			c-1.1,0-2.2,0-3.3,0c-0.7,0-1.3,0-2,0C59.2,66.3,59.1,66.3,59,66.3z"/>
		<path class="st1" d="M56,17.5c-4.3,2.1-7.4,5.3-9.5,9.6c-1.7,3.4-2.2,7-2.1,10.6c0.1,3.1,0.8,6.2,1.3,9.2c0.3,2,0.6,4.1,1,6
			c0.5,2.1,1.2,4.1,1.7,6.3c0.5,2.2,0.9,4.5,1.4,7.1c-1.6,0-3.2,0.1-4.8,0.1c-3.4,0-2.8,0.5-3.8-2.8c-1.6-4.7-4.6-8.3-8.9-10.7
			c-5.5-3.1-11.3-3.3-17-0.7c-4.4,2-7.5,5.6-9.5,10c-0.4,1-0.7,2-1.1,3c0,0.1-0.3,0.1-0.4,0.2c-0.1-0.3-0.2-0.7-0.3-1
			C4,48.4,4,32.2,4,16c17.2,0,34.5,0,51.8,0C55.8,16.5,55.9,17,56,17.5z"/>
		<path class="st1" d="M90,65.3c0.9-0.2,2.8,0.4,3.3,0.9c0.4,0.3,0.9,0.5,1.4,0.7c0.6,0.2,1.3,0.3,2.2,0.5c0,0,0.3-0.3,0.3-0.6
			c0.1-1.1,0.1-2.2,0.1-3.3c0-13.7,0-27.5,0-41.2c0-0.8,0-1.7,0.1-2.5c0-0.3,0.4-0.5,0.6-0.8c0,32.7,0,65.3,0,98
			c-15.3,0-30.7,0-46,0c0-0.4,0-0.8,0-1.2c0.5-0.4,1.1-0.9,1.6-1.3c2.9-2.4,5.2-5.2,6.6-8.7c0-0.2,0-0.3,0-0.5
			c0.1-0.2,0.1-0.3,0.2-0.5c0-0.2,0-0.3,0.1-0.5c0.1-0.1,0.1-0.2,0.2-0.3c0-0.2,0-0.3,0.1-0.5c0.1-0.5,0.3-1,0.4-1.5
			c0.2-0.7,0.5-1.4,0.7-2.1c0.2-1.3,0.4-2.6,0.6-3.9c0-1.2,0-2.5,0-3.7c-0.2-1.7-0.3-3.3-0.5-5c-0.6-3.5-1.1-7-1.7-10.5
			c-0.2-1.2-0.4-2.4-0.7-3.7c2.9,0,5.8,0,9,0c0,1.6,0,3.3,0,4.9c0,0.1,0,0.2,0,0.3c0,0.2,0,0.5,0,0.7c0,0.1,0,0.2,0,0.3
			c0,0.2,0,0.5,0,0.7c0,0.1,0,0.2,0,0.3c0,0.2,0,0.5,0,0.7c0,0.1,0,0.2,0,0.3c0,0.2,0,0.5,0,0.7c0,0.1,0,0.2,0,0.3
			c0,0.2,0,0.3,0,0.5c0,0.2,0,0.3,0,0.5c-0.2,0.9-0.4,1.8-0.6,2.7c-0.5,0.3-1,0.7-1.5,1c0,0.2,0.1,0.3,0.1,0.5c0.8,0,1.6,0,2.4,0
			c0.4,0,0.8,0,1.2,0c0.1,0,0.2,0,0.3,0c0.2,0,0.3,0,0.5,0c1.8,0,3.5,0,5.3,0c0.2,0,0.3,0,0.5,0c1.2,0,2.3,0,3.5,0
			c1.1,0,2.2,0,3.3-0.1c0.1-0.2,0.1-0.3,0.2-0.5c-0.3-0.3-0.5-0.7-0.8-0.8c-2.4-1.2-4.7-2.7-6.5-4.8c-0.3-0.3-0.5-0.8-0.7-1.3
			c0-2.2,0-4.4,0-6.5c0.2-0.2,0.5-0.4,0.7-0.6c0.1,0,0.2,0,0.3,0c2.8,0.1,5.6,0.1,8.4,0.2c-0.1,0.5-0.3,1.1-0.4,1.6
			c-0.1,0.7-0.2,1.5-0.3,2.2c0.7-0.3,1.4-0.5,2.1-0.8c3.8-1.9,7.5-3.9,11.2-6.4C95,68.1,92.5,66.7,90,65.3z"/>
		<path class="st1" d="M56,100.2c0,0.6,0,1.2,0,1.7c-0.6,5.1-3.5,8.3-8.1,10c-2.2,0.8-5.9-0.8-6.9-2.9c-1.2-2.5-0.9-5,0.1-7.5
			c0.3-0.8,0.8-1.6,1.5-2.1c2.3-1.8,5.5-1.3,7.4,1c-0.8,0.2-1.5,0.5-2.3,0.7c-3,0.2-3.6,0.6-4.2,3.1c-0.3,1.4,0.5,3.3,1.9,4.1
			c1,0.6,2.9,0.3,3.9-0.7c2.1-2.1,2.8-4.7,2.7-7.7c0-2.2-2.1-4.8-4.4-5.3c-2.9-0.7-7.7,1.2-9,3.8c-1.4,2.9-2.6,5.7-2.1,9
			c0.5,3.6,2.8,6,5.7,8c-0.1,0.5-0.2,1-0.2,1.5c-12.7,0-25.3,0-38,0c0-13.8,0-27.5,0-41.2c0.1,0,0.1,0,0.2,0c0.3,0,0.5,0,0.8,0.1
			c0.5,2.8,2,5.1,3.7,7.2c1.7,2.1,3.7,4,6.2,5.2c4.2,1.9,8.5,2.6,13.1,1.2c4.8-1.5,8.4-4.2,11.1-8.3c0.5-0.7,0.8-0.7,1.3-0.2
			c1.1,1.1,2.3,2.2,3.5,3.3c0.1,0.1,0.2,0.2,0.3,0.3c0,0,0,0,0,0c0.5,0.3,1,0.6,1.4,0.9c0-0.4,0-0.8,0-1.2c0-0.2,0-0.3,0-0.5
			c-0.1-0.2-0.1-0.3-0.2-0.5c-1-3.3-2.5-6.5-2.6-10.2c2.7,0,5.2,0,7.8,0c0.3,0,0.6,0.5,0.7,0.8c0.8,3.2,1.5,6.3,2.3,9.5
			c0.4,1.9,1,3.9,1.2,5.9c0.4,3,0.7,6,1.1,9C56,98.9,56,99.6,56,100.2z"/>
		<path class="st2" d="M42,117c0.1-0.5,0.2-1,0.2-1.5c1.1,0.3,2.2,0.6,3.3,1c0,0.1,0,0.2,0,0.2c0,0.1,0,0.2-0.1,0.2
			C44.3,117,43.2,117,42,117z"/>
		<path class="st3" d="M52,115.8c0,0.4,0,0.8,0,1.2c-0.9,0-1.8,0-2.8,0c0.1-0.2,0.1-0.3,0.2-0.5C50.3,116.3,51.2,116,52,115.8z"/>
		<path class="st4" d="M56,17.5c-0.1-0.5-0.2-1-0.3-1.5c0.5,0,1,0,1.5,0c0.1,0,0.2,0,0.2,0s0.2,0,0.2,0c0,0-0.1,0.1-0.1,0.1
			c0,0.1,0.1,0.1,0.1,0.2C57.2,16.7,56.6,17.1,56,17.5z"/>
		<path class="st5" d="M49.5,116.5c-0.1,0.2-0.1,0.3-0.2,0.5c-1.2,0-2.3,0-3.5,0c-0.1-0.1-0.1-0.2-0.2-0.2c0-0.1,0-0.2,0-0.2
			C46.8,116.5,48.1,116.5,49.5,116.5z"/>
		<path class="st6" d="M4.2,75.7c-0.1,0-0.1,0-0.2,0c0-0.8,0-1.7,0-2.5c0.1,0,0.2,0,0.3,0c0,0.3,0,0.5,0,0.8
			C4.3,74.6,4.2,75.2,4.2,75.7z"/>
		<path class="st7" d="M4,64.5c0.1,0.3,0.2,0.7,0.3,1c0,0.2,0,0.3-0.1,0.5c-0.1,0-0.2,0-0.2,0C4,65.5,4,65,4,64.5z"/>
		<path class="st7" d="M57.8,16.3c0-0.1-0.1-0.1-0.1-0.2c0,0,0-0.1,0.1-0.1c0.4,0,0.8,0,1.2,0c0,0.1,0,0.1,0,0.2
			C58.6,16.2,58.2,16.2,57.8,16.3z"/>
		<path class="st8" d="M59,16.2c0-0.1,0-0.1,0-0.2c0.3,0,0.7,0,1,0c-0.1,0.1-0.2,0.2-0.3,0.3C59.5,16.2,59.2,16.2,59,16.2z"/>
		<path class="st9" d="M4,66c0.1,0,0.2,0,0.2,0c-0.1,0.3-0.2,0.7-0.2,1C4,66.7,4,66.3,4,66z"/>
		<path class="st7" d="M57.5,16c-0.1,0-0.2,0-0.2,0C57.3,16,57.4,16,57.5,16z"/>
		<path class="st10" d="M45.6,116.8c0.1,0.1,0.1,0.2,0.2,0.2c-0.1,0-0.2,0-0.2,0C45.5,116.9,45.5,116.8,45.6,116.8z"/>
		<path class="st1" d="M36.1,70.7c-0.2,3.3-1.3,6-3.3,8.5c-2.4,2.9-5.5,4.5-9.1,4.7c-2.8,0.2-5.5-0.8-7.7-2.6
			c-4-3.2-5.8-7.4-5.4-12.4c0.4-4,2.3-7.4,5.6-9.9c2.2-1.7,4.6-2,7.3-2.1c2.8-0.1,5.2,0.6,7.3,2.4c2.8,2.3,4.5,5.2,5,8.8
			C35.9,69,36,69.9,36.1,70.7z"/>
		<path class="st11" d="M49.5,116.5c-1.3,0-2.6,0-4,0c-1.1-0.3-2.2-0.6-3.3-1c-2.9-1.9-5.2-4.3-5.7-8c-0.4-3.2,0.7-6.1,2.1-9
			c1.3-2.7,6.1-4.5,9-3.8C50,95.3,52,98,52,100.1c0,2.9-0.6,5.6-2.7,7.7c-1,1-2.9,1.3-3.9,0.7c-1.4-0.8-2.2-2.7-1.9-4.1
			c0.6-2.5,1.2-2.9,4.2-3.1c0.5,0.3,0.9,0.7,1.4,1c0.3,0.2,0.7,0.3,1,0.5c0.1-0.4,0.3-0.8,0.3-1.2c0-0.3-0.3-0.6-0.4-1
			c-2-2.3-5.2-2.8-7.4-1c-0.6,0.5-1.1,1.3-1.5,2.1c-1,2.5-1.3,5-0.1,7.5c1,2.1,4.6,3.8,6.9,2.9c4.6-1.8,7.6-4.9,8.1-10
			c0.5,0.6,1.1,1.2,1.5,1.8c0.6,1.1,1.1,2.2,2.7,1.9c-1.4,3.5-3.7,6.4-6.6,8.7c-0.5,0.4-1.1,0.9-1.6,1.3
			C51.2,116,50.3,116.3,49.5,116.5z"/>
		<path class="st11" d="M62,87.3c0.2,1.7,0.3,3.3,0.5,5c-0.4,0.1-0.8,0.3-1.5,0.5c0-0.9-0.1-1.6-0.1-2.4c0.1-0.8,0.2-1.5,0.4-2.2
			C61.4,87.8,61.7,87.5,62,87.3z"/>
		<path class="st11" d="M62.5,96c-0.2,1.3-0.4,2.6-0.6,3.9C61,98.5,61,97,61.2,95.3C61.7,95.6,62.1,95.8,62.5,96z"/>
		<path class="st12" d="M86.5,76c-0.7,0.3-1.4,0.5-2.1,0.8c0.1-0.7,0.2-1.5,0.3-2.2c0.1-0.5,0.3-1.1,0.4-1.6
			c0.2,0.5,0.3,0.9,0.5,1.4C85.9,74.9,86.2,75.5,86.5,76z"/>
		<path class="st13" d="M69,87.5c-0.8,0-1.6,0-2.4,0c0-0.2-0.1-0.3-0.1-0.5c0.5-0.3,1-0.7,1.5-1C68.3,86.5,68.7,87,69,87.5z"/>
		<path class="st14" d="M83.5,53c0.7,0,1.3-0.1,2-0.1c0,0.2,0.1,0.3,0.1,0.5c-0.7,0.3-1.4,0.6-2.1,0.8C83.5,53.9,83.5,53.5,83.5,53z
			"/>
		<path class="st11" d="M56,100.2c0-0.7,0-1.3,0-2c0.4,0.3,0.8,0.6,1.1,0.9C56.8,99.5,56.4,99.9,56,100.2z"/>
		<path class="st15" d="M75.7,73.5c0,2.2,0,4.4,0,6.5C75.7,77.8,75.7,75.7,75.7,73.5z"/>
		<path class="st16" d="M45.7,84.2c0,0.4,0,0.8,0,1.2c-0.5-0.3-1-0.6-1.4-0.9C44.7,84.4,45.2,84.3,45.7,84.2z"/>
		<path class="st17" d="M76.3,87.4c-1.8,0-3.5,0-5.3,0C72.7,87.4,74.5,87.4,76.3,87.4z"/>
		<path class="st17" d="M80.3,87.4c-1.2,0-2.3,0-3.5,0C77.9,87.4,79.1,87.4,80.3,87.4z"/>
		<path class="st18" d="M4.2,75.7c0-0.6,0.1-1.1,0.1-1.7c0.1,0.2,0.3,0.5,0.4,0.7c0.1,0.3,0.2,0.7,0.2,1C4.7,75.7,4.5,75.7,4.2,75.7
			z"/>
		<path class="st19" d="M78.7,66.3c1.2,0,2.3,0,3.5,0C81.1,66.3,79.9,66.3,78.7,66.3z"/>
		<path class="st11" d="M61.2,102c-0.1,0.5-0.3,1-0.4,1.5C60.4,102.8,60.4,102.3,61.2,102z"/>
		<path class="st9" d="M61.2,66.3c1.1,0,2.2,0,3.3,0C63.4,66.3,62.3,66.3,61.2,66.3z"/>
		<path class="st9" d="M65.2,66.3c0.7,0,1.3,0,2,0C66.6,66.3,65.9,66.3,65.2,66.3z"/>
		<path class="st20" d="M68.5,66c0-0.7,0.1-1.3,0.1-2C68.5,64.7,68.5,65.3,68.5,66z"/>
		<path class="st21" d="M4.7,74.8c-0.1-0.2-0.3-0.5-0.4-0.7c0-0.3,0-0.5,0-0.8C4.4,73.8,4.6,74.3,4.7,74.8z"/>
		<path class="st16" d="M45.5,83.2c0.1,0.2,0.1,0.3,0.2,0.5C45.6,83.6,45.6,83.4,45.5,83.2z"/>
		<path class="st11" d="M60.5,104.8c-0.1,0.2-0.1,0.3-0.2,0.5C60.3,105.1,60.4,104.9,60.5,104.8z"/>
		<path class="st19" d="M85,66.2c0.1-0.1,0.2-0.1,0.3-0.2C85.2,66.1,85.1,66.2,85,66.2z"/>
		<path class="st22" d="M68.5,83.3c0-0.2,0-0.3,0-0.5C68.5,82.9,68.5,83.1,68.5,83.3z"/>
		<path class="st23" d="M76.8,72.8c-0.1,0-0.2,0-0.3,0C76.6,72.8,76.7,72.8,76.8,72.8z"/>
		<path class="st16" d="M44.2,84.5c-0.1-0.1-0.2-0.2-0.3-0.3C44.1,84.3,44.2,84.4,44.2,84.5z"/>
		<path class="st9" d="M59,66.3c0.1,0,0.2,0,0.3,0C59.2,66.3,59.1,66.3,59,66.3z"/>
		<path class="st22" d="M68.6,82.3c0-0.1,0-0.2,0-0.3C68.6,82.1,68.6,82.1,68.6,82.3C68.6,82.2,68.6,82.2,68.6,82.3z"/>
		<path class="st22" d="M68.6,81.3c0-0.1,0-0.2,0-0.3C68.6,81.1,68.6,81.1,68.6,81.3C68.6,81.2,68.6,81.2,68.6,81.3z"/>
		<path class="st17" d="M70.5,87.4c-0.1,0-0.2,0-0.3,0C70.3,87.4,70.4,87.4,70.5,87.4z"/>
		<path class="st22" d="M68.6,80.3c0-0.1,0-0.2,0-0.3C68.6,80.1,68.6,80.1,68.6,80.3C68.6,80.2,68.6,80.2,68.6,80.3z"/>
		<path class="st22" d="M68.6,79.3c0-0.1,0-0.2,0-0.3C68.6,79.1,68.6,79.1,68.6,79.3C68.6,79.2,68.6,79.2,68.6,79.3z"/>
		<path class="st20" d="M68.6,62.3c0-0.1,0-0.2,0-0.3C68.6,62.1,68.6,62.1,68.6,62.3C68.6,62.2,68.6,62.2,68.6,62.3z"/>
		<path class="st20" d="M68.6,61.3c0-0.1,0-0.2,0-0.3C68.6,61.1,68.6,61.1,68.6,61.3C68.6,61.2,68.6,61.2,68.6,61.3z"/>
		<path class="st20" d="M68.6,60.3c0-0.1,0-0.2,0-0.3C68.6,60.1,68.6,60.1,68.6,60.3C68.6,60.2,68.6,60.2,68.6,60.3z"/>
		<path class="st20" d="M68.5,57.3c0-0.1-0.1-0.2-0.1-0.2C68.5,57.1,68.6,57.1,68.5,57.3C68.6,57.2,68.6,57.2,68.5,57.3z"/>
		<path class="st14" d="M83.5,54.3c-0.1,0.1-0.2,0.1-0.3,0.2C83.3,54.4,83.4,54.3,83.5,54.3z"/>
		<path class="st24" d="M68.7,52.8c0.1,0,0.2,0,0.3,0C68.9,52.8,68.8,52.8,68.7,52.8z"/>
		<path class="st11" d="M60.7,104c-0.1,0.1-0.1,0.2-0.2,0.3C60.6,104.2,60.6,104.1,60.7,104z"/>
		<path class="st22" d="M68.6,78.3c0-0.1,0-0.2,0-0.3C68.6,78.1,68.6,78.1,68.6,78.3C68.6,78.2,68.6,78.2,68.6,78.3z"/>
		<path class="st19" d="M76,66.3c0.1,0,0.2,0,0.3,0C76.2,66.3,76.1,66.3,76,66.3z"/>
		<path class="st19" d="M83.7,66.3c0.1,0,0.2,0,0.3,0C83.9,66.3,83.8,66.3,83.7,66.3z"/>
		<path class="st25" d="M50,100.5c0.2,0.3,0.4,0.6,0.4,1c0,0.4-0.2,0.8-0.3,1.2c-0.3-0.2-0.7-0.3-1-0.5c-0.5-0.3-0.9-0.7-1.4-1
			C48.5,101,49.3,100.7,50,100.5z"/>
	</g>
</g>
</svg>
