<?xml version="1.0" encoding="UTF-8" standalone="no"?>
<!-- Generator: Adobe Illustrator 26.5.0, SVG Export Plug-In . SVG Version: 6.00 Build 0)  -->

<svg
   xmlns:dc="http://purl.org/dc/elements/1.1/"
   xmlns:cc="http://creativecommons.org/ns#"
   xmlns:rdf="http://www.w3.org/1999/02/22-rdf-syntax-ns#"
   xmlns:svg="http://www.w3.org/2000/svg"
   xmlns="http://www.w3.org/2000/svg"
   xmlns:sodipodi="http://sodipodi.sourceforge.net/DTD/sodipodi-0.dtd"
   xmlns:inkscape="http://www.inkscape.org/namespaces/inkscape"
   version="1.1"
   id="Layer_1"
   x="0px"
   y="0px"
   viewBox="0 0 350 350"
   style="enable-background:new 0 0 350 350;"
   xml:space="preserve"
   sodipodi:docname="di.svg"
   inkscape:version="0.92.5 (2060ec1f9f, 2020-04-08)"><metadata
   id="metadata35"><rdf:RDF><cc:Work
       rdf:about=""><dc:format>image/svg+xml</dc:format><dc:type
         rdf:resource="http://purl.org/dc/dcmitype/StillImage" /></cc:Work></rdf:RDF></metadata><defs
   id="defs33" /><sodipodi:namedview
   pagecolor="#ffffff"
   bordercolor="#666666"
   borderopacity="1"
   objecttolerance="10"
   gridtolerance="10"
   guidetolerance="10"
   inkscape:pageopacity="0"
   inkscape:pageshadow="2"
   inkscape:window-width="1848"
   inkscape:window-height="1016"
   id="namedview31"
   showgrid="false"
   inkscape:zoom="0.67428571"
   inkscape:cx="175"
   inkscape:cy="175"
   inkscape:window-x="72"
   inkscape:window-y="27"
   inkscape:window-maximized="1"
   inkscape:current-layer="Layer_1" />
<style
   type="text/css"
   id="style2">
	.st0{fill:#0095D6;}
	.st1{fill:#FEFEFE;}
	.st2{fill:#2A6F9A;}
	.st3{fill:#3BAEDF;}
	.st4{fill:#F2F6F8;}
	.st5{fill:#EBF1F5;}
	.st6{fill:#005287;}
	.st7{fill:#74A0BE;}
</style>
<rect
   id="rect3740"
   width="358.89832"
   height="358.89832"
   x="2.4245949e-08"
   y="-3.9322035"
   style="fill:#ffffff;stroke-width:1.01255226" /><g
   id="g28">
	<path
   class="st0"
   d="m 219.5,153.7 c -15.6,12 -34,17.7 -53,20.7 -37.1,5.7 -70.4,-4.2 -99.8,-27.2 -1.9,-7.3 -0.8,-14.7 -0.8,-22 0.2,-15.6 -1.1,-31.2 0.7,-46.7 25.8,0 51.5,0 77.3,0 13.8,1.2 27.4,2.7 39.7,10.2 23.2,14.2 34.7,35.3 37.6,61.7 -0.4,1.1 -0.9,2.3 -1.7,3.3 z"
   id="path4"
   inkscape:connector-curvature="0"
   style="fill:#0095d6" />
	<path
   class="st0"
   d="m 219.5,153.7 c 0,-1.1 0.1,-2.2 0.1,-3.3 1.8,-5.9 -0.9,-11.5 -0.9,-17.3 -0.2,-15.5 -0.1,-31 0,-46.4 0,-3 0.3,-5.9 2.5,-8.2 18.2,0 36.5,0 54.7,0 -8.4,29.1 -24.6,52.7 -48.9,70.8 -2.4,1.6 -5,2.9 -7.5,4.4 z"
   id="path6"
   inkscape:connector-curvature="0"
   style="fill:#0095d6" />
	<path
   class="st1"
   d="m 221.1,263 c -30.6,0 -61.2,0 -91.7,0 -0.5,-0.8 -0.4,-1.6 0.3,-2.2 8.4,-3.2 17.3,-2.7 25.9,-4 31.9,-4.7 49.4,-24.7 58.7,-53.8 1.9,-5.9 0.9,-12.8 6.2,-17.5 0.9,0.4 1.6,1 2,1.9 2,6.5 1.2,13.2 1.1,19.8 -0.3,17.7 1.2,35.5 -0.8,53.2 -0.5,0.9 -1,1.8 -1.7,2.6 z"
   id="path8"
   inkscape:connector-curvature="0"
   style="fill:#fefefe" />
	<path
   class="st1"
   d="m 221.1,78.4 c 0,21.2 0,42.5 -0.1,63.7 0,2.8 1.1,5.9 -1.5,8.2 -6.1,-44.8 -35.1,-66.4 -69,-70.5 -2.3,-0.3 -4.9,0.7 -6.7,-1.5 25.8,0.1 51.6,0.1 77.3,0.1 z"
   id="path10"
   inkscape:connector-curvature="0"
   style="fill:#fefefe" />
	<path
   class="st2"
   d="m 65,169.9 c 0.6,0.4 1.1,0.8 1.7,1.2 2.2,2.9 2.5,6.4 2.5,9.9 0,23.7 0.1,47.3 0,71 0,2.9 0,5.9 -1.5,8.6 -0.6,1.1 -1.5,1.4 -2.7,0.9 0,-30.6 0,-61.1 0,-91.6 z"
   id="path12"
   inkscape:connector-curvature="0"
   style="fill:#2a6f9a" />
	<path
   class="st3"
   d="m 66.6,78.4 c 0,22.9 0.1,45.9 0.1,68.8 -0.6,0.1 -1.1,0.2 -1.7,0.3 0,-21.7 0,-43.3 0.1,-65 0,-1.3 -2.1,-4 1.5,-4.1 z"
   id="path14"
   inkscape:connector-curvature="0"
   style="fill:#3baedf" />
	<path
   class="st4"
   d="m 65,261.4 c 0.6,-0.1 1.1,-0.2 1.7,-0.3 2.7,-2.3 5.9,-2.3 9.1,-2.3 14.7,-0.1 29.3,-0.1 44,0 3.4,0 7,-0.3 9.6,2.8 0,0.4 0,0.9 0,1.3 -20.1,0 -40.2,0 -60.4,-0.1 -1.2,0.1 -3.9,2.2 -4,-1.4 z"
   id="path16"
   inkscape:connector-curvature="0"
   style="fill:#f2f6f8" />
	<path
   class="st5"
   d="m 221.1,263 c 0,-0.6 0.1,-1.2 0.1,-1.8 0.8,-0.7 1.7,-1.5 2.8,-1.6 14.9,-0.9 29.8,-2.1 44.6,0.7 1,0.6 1.3,1.5 0.8,2.6 -16.1,0.1 -32.2,0.1 -48.3,0.1 z"
   id="path18"
   inkscape:connector-curvature="0"
   style="fill:#ebf1f5" />
	<path
   class="st4"
   d="m 269.4,263 c 0,-0.4 0,-0.9 0,-1.3 5.3,-3.9 10.6,-3.5 16.1,-0.3 0,0.6 0,1.1 0,1.7 -5.4,-0.1 -10.7,-0.1 -16.1,-0.1 z"
   id="path20"
   inkscape:connector-curvature="0"
   style="fill:#f2f6f8" />
	<path
   class="st6"
   d="m 129.4,261.7 c -20.9,-0.2 -41.8,-0.4 -62.7,-0.5 0,-30 0,-60 0,-90.1 15.7,8.5 31.8,16 49.5,19.7 36.2,7.6 70.4,2 103.3,-14.3 2.7,3.1 2.6,6.4 0.3,9.7 -3.9,29.9 -16.2,54.4 -45,67.7 -14.3,6.6 -30.1,6.1 -45.4,7.8 z"
   id="path22"
   inkscape:connector-curvature="0"
   style="fill:#005287" />
	<path
   class="st6"
   d="m 285.5,261.3 c -5.4,0.1 -10.7,0.2 -16.1,0.3 -16.1,-0.2 -32.1,-0.3 -48.2,-0.5 -0.1,-25 -0.2,-50 -0.3,-75 -0.9,-3.4 -0.7,-6.8 -0.1,-10.2 27.3,-16.3 49.4,-37.6 64.8,-66.2 -0.1,50.6 -0.1,101.1 -0.1,151.6 z"
   id="path24"
   inkscape:connector-curvature="0"
   style="fill:#005287" />
	<path
   class="st7"
   d="m 220.7,176 c 0,3.4 0.1,6.8 0.1,10.2 l -0.5,-0.1 -0.5,0.1 c -0.1,-3.2 -0.2,-6.5 -0.3,-9.7 0.3,-0.5 0.7,-0.6 1.2,-0.5 z"
   id="path26"
   inkscape:connector-curvature="0"
   style="fill:#74a0be" />
</g>
</svg>