<?xml version="1.0" encoding="UTF-8" standalone="no"?>
<!-- Generator: Adobe Illustrator 26.5.0, SVG Export Plug-In . SVG Version: 6.00 Build 0)  -->

<svg
   xmlns:dc="http://purl.org/dc/elements/1.1/"
   xmlns:cc="http://creativecommons.org/ns#"
   xmlns:rdf="http://www.w3.org/1999/02/22-rdf-syntax-ns#"
   xmlns:svg="http://www.w3.org/2000/svg"
   xmlns="http://www.w3.org/2000/svg"
   xmlns:sodipodi="http://sodipodi.sourceforge.net/DTD/sodipodi-0.dtd"
   xmlns:inkscape="http://www.inkscape.org/namespaces/inkscape"
   version="1.1"
   id="Layer_1"
   x="0px"
   y="0px"
   viewBox="0 0 350 350"
   style="enable-background:new 0 0 350 350;"
   xml:space="preserve"
   sodipodi:docname="fbla.svg"
   inkscape:version="0.92.5 (2060ec1f9f, 2020-04-08)"><metadata
   id="metadata49"><rdf:RDF><cc:Work
       rdf:about=""><dc:format>image/svg+xml</dc:format><dc:type
         rdf:resource="http://purl.org/dc/dcmitype/StillImage" /></cc:Work></rdf:RDF></metadata><defs
   id="defs47" /><sodipodi:namedview
   pagecolor="#ffffff"
   bordercolor="#666666"
   borderopacity="1"
   objecttolerance="10"
   gridtolerance="10"
   guidetolerance="10"
   inkscape:pageopacity="0"
   inkscape:pageshadow="2"
   inkscape:window-width="1848"
   inkscape:window-height="1016"
   id="namedview45"
   showgrid="false"
   inkscape:zoom="0.67428571"
   inkscape:cx="175"
   inkscape:cy="175"
   inkscape:window-x="72"
   inkscape:window-y="27"
   inkscape:window-maximized="1"
   inkscape:current-layer="Layer_1" />
<style
   type="text/css"
   id="style2">
	.st0{fill:#BE2F37;}
	.st1{fill:#00529A;}
	.st2{fill:#406197;}
	.st3{fill:#C85258;}
	.st4{fill:#FEFEFE;}
</style>
<rect
   id="rect51"
   width="357.41525"
   height="357.41525"
   x="-1.4830508"
   y="-2.9661016"
   style="fill:#ffffff" /><g
   id="g42">
	<path
   class="st0"
   d="M50,146.2c2.6-1.6,5.3-3.2,7.9-4.7c7.9-4.6,15.7-9.4,23.9-13.5c2.3-1.1,4.7-1.3,7.1-1c2.3,0.2,3.2,1.5,3,3.7   c-0.2,2.6-0.6,5.2-0.6,7.9c0.1,2.2,0.3,2.5,2.5,2.1c3.4-0.6,6.5-1.9,9.6-3.3c11.3-5.1,21.7-11.7,31.5-19.2   c9.4-7.2,18.9-14.1,28.3-21.2c0.2-0.1,0.4-0.2,0.6-0.4c0.6,0.1,0.4,0.4,0.3,0.8c-0.7,3.9-1.3,7.9-2,11.8c-0.2,1.4-0.5,2.8-0.7,4.2   c-0.1,0.5-0.3,0.9-0.7,1.2c-14.1,11.1-29,21.2-44.6,30c-7.9,4.4-16.5,7.2-25.2,9.4c-0.7,0.2-1,0.4-1.1,1.2   c-0.3,2.2-0.8,4.4-0.7,6.7c0,1.6,0.5,2.2,2.1,2.5c2.3,0.5,4.5-0.1,6.7-0.6c6.4-1.7,12.3-4.4,18.3-7.1c10.6-4.7,20.2-11.2,29.9-17.6   c3.9-2.5,7.7-5.1,11.5-7.7c0.3-0.2,0.6-0.5,1.1-0.5c0.1,1.1-0.2,2.2-0.4,3.2c-0.6,3.8-1.3,7.6-2,11.4c-0.1,0.4-0.1,0.7-0.5,1   c-7.9,5.2-15.6,10.7-24.1,15c-7.7,3.9-15.8,7-23.8,10.2c-5.2,2.1-10.6,4-15.9,5.8c-1.7,0.6-3.4,0.8-5.2,0.4   c-1.7-0.4-2.5-1.3-2.5-3.1c0-1.4,0.3-2.7,0.4-4.1c0.2-2,0.4-4-0.1-6c-0.6-2.5-2.7-3.9-5.1-3.1c-6.8,2.2-13.6,4.3-19.9,7.6   c-12.1,6.4-23.3,14.1-34.4,22c-0.2,0.1-0.4,0.3-0.7,0.5c0.2-1.9,0.3-3.7,0.5-5.4c0.1-1,0.4-2.1,0.3-3.1c-0.1-1.6,0.6-2.5,2-3.3   c11-6.7,21.8-13.6,32.9-20c6.8-4,14.1-7.1,21.9-8.7c0.6-0.1,1.1-0.3,1.7-0.3c0.9,0,1.2-0.4,1.2-1.3c0-2.4,0.1-4.7,0.7-7   c0.2-1-0.4-1.5-1.2-1.8c-1.7-0.7-3.4-0.7-5.1-0.1c-3.5,1.2-6.8,3-10.1,4.7c-14.7,7.5-28.2,16.8-41.7,26c-0.3,0.2-0.6,0.3-1,0.6   c0.3-3.6,0.6-7.1,0.9-10.5c0.7-1,1.8-1.5,2.8-2.2c6.3-4.3,12.6-8.6,19-12.7C49.4,146.4,49.7,146.3,50,146.2z"
   id="path4" />
	<path
   class="st1"
   d="M159.8,227.6c1.3-0.2,2.1-1,2.9-1.7c2.8-2.8,5.1-6,7.6-9c6.3-7.9,12.6-15.7,18.8-23.6c0.8-1.1,1.9-0.5,2.8-0.6   c0.7,0,0.6,0.8,0.7,1.3c2.4,10.2,4.7,20.4,7,30.6c0.6,2.7,1.2,3.1,4,3.4c0.6,0.1,1.5-0.4,1.6,0.9c0,1-0.2,1.3-1.2,1.2   c-5.7-0.1-11.5,0-17.2,0c-0.5,0-1.2,0.2-1.1-0.8c0-0.7-0.1-1.3,1-1.3c1.1,0,2.1-0.2,3.2-0.4c1.3-0.3,1.8-0.8,1.6-2.1   c-0.4-2.4-0.9-4.8-1.4-7.2c-0.1-0.4-0.4-0.5-0.8-0.5c-4.8,0-9.6,0-14.3,0c-0.4,0-0.7,0.2-0.9,0.5c-1.5,2.1-3,4.3-4.4,6.4   c-0.2,0.2-0.3,0.5-0.4,0.7c-0.6,1.4-0.3,2.1,1.2,2.3c0.7,0.1,1.4,0.2,2.2,0.2c0.7,0,0.8,0.3,0.8,0.9c0.1,1-0.3,1.2-1.2,1.2   c-3.9-0.1-7.9,0-11.8,0c-0.8,0-1.2,0.2-1.3,1c-0.1,1.1-0.4,2.1-0.6,3.1c-0.3,1.4,0.2,2.2,1.6,2.4c3.3,0.4,6.6,0.4,9.8-0.3   c2.4-0.6,4.1-2.1,5.4-4.1c1.1-1.7,1.9-3.5,2.6-5.3c0.2-0.5,0.3-1,0.9-0.6c0.5,0.4,1.7,0.1,1.4,1.3c-1,4.1-2.1,8.2-3.1,12.4   c-0.2,0.7-0.5,0.6-1,0.6c-1.8,0-3.6,0-5.4,0c-7.4,0-14.8,0-22.1,0c-0.4,0-1.2,0.4-1.1-0.5c0-0.7-0.6-1.7,0.9-1.9   c2-0.2,2.9-1.6,3.3-3.4c1.4-6.2,2.7-12.5,4.1-18.7c1.1-5.1,2.2-10.2,3.3-15.3c0.2-1,0.4-2.1,0.4-3.2c0-1.3-0.5-1.9-1.7-2.2   c-0.6-0.1-1.1-0.3-1.7-0.2c-0.8,0-0.9-0.4-0.9-1c-0.1-1.2,0.3-1.4,1.4-1.4c4.7,0.1,9.4,0,14.1,0c0.5,0,1.2-0.2,1,0.7   c-0.1,0.7,0.5,1.6-0.9,1.7c-2.5,0.1-4,1.5-4.6,4.2c-1.6,7-3.1,14-4.6,21.1C160.9,222.7,160.4,225,159.8,227.6z"
   id="path6" />
	<path
   class="st1"
   d="M233,226.3c-3.6-0.4-6.8-1.3-9.3-3.8c-3.1-3-3.8-7.7-1.8-12.1c2.1-4.6,5.8-7.8,10.1-10.3   c2.4-1.4,4.9-2.5,7.5-3.3c0.3-0.1,0.9,0.1,0.9-0.5c0-0.5-0.4-0.8-0.8-0.9c-0.9-0.4-1.8-0.6-2.8-0.5c-1.3,0.1-1-0.9-1.1-1.5   c-0.1-0.9,0.6-0.6,1-0.6c5,0,10,0,15,0c0.5,0,1.1-0.1,1,0.8c0,0.7,0,1.2-0.9,1.3c-1.1,0.1-2.2,0.2-3.1,1.1c1.3,0.3,2.6,0.6,3.7,1   c5.2,1.7,8.1,5.6,7.8,10.6c-0.2,3.4-1.8,6.3-4,8.8c-3.8,4.5-8.6,7.3-14.2,8.9c-0.4,0.1-1,0-1,0.7c0,0.7,0.3,1.3,1,1.5   c0.9,0.3,1.9,0.4,2.8,0.5c1.2,0.1,0.7,1,0.8,1.5c0.1,0.7-0.5,0.5-0.9,0.5c-5,0.1-10,0.1-15,0.1c-0.4,0-1,0.2-0.9-0.6   c0.1-0.6-0.5-1.4,0.7-1.5c0.6,0,1.3-0.2,1.9-0.4C232.1,227.3,232.7,227,233,226.3z"
   id="path8" />
	<path
   class="st1"
   d="M283.3,210c0.4,0.6,0.9,0.6,1.3,0.8c7.4,3.2,6.3,11.4,1.5,14.9c-3.2,2.4-6.8,3.5-10.7,3.8   c-7.2,0.6-14.5,0.1-21.8,0.2c-0.5,0-0.9,0-0.8-0.6c0.1-0.5-0.3-1.1,0.6-1.2c0.3,0,0.7-0.2,1-0.2c1.8-0.1,2.9-1.2,3.5-2.9   c1.1-3.3,2.2-6.6,3.3-9.9c1.8-5.3,3.5-10.6,5.3-15.9c0.2-0.6,0.3-1.3,0.4-1.9c0.3-1.5-0.2-2.1-1.7-2.4c-0.7-0.1-1.5-0.2-2.3-0.2   c-0.7,0-1.1-0.1-1.1-1c0-1,0.6-0.9,1.2-0.9c5.6,0,11.2-0.1,16.7,0c3.1,0,6.1,0.4,8.9,1.8c2.6,1.3,4.1,3.3,4.3,6.2   c0.2,3.1-1.2,5.3-3.8,6.9C287.5,208.8,285.5,209.4,283.3,210z"
   id="path10" />
	<path
   class="st1"
   d="M143.4,210c0.8,0.4,1.3,0.6,1.8,0.9c7,3.1,6.1,11.1,1.5,14.7c-3.2,2.5-6.9,3.6-10.8,3.9   c-7.3,0.6-14.6,0.1-21.9,0.3c-0.5,0-0.8-0.1-0.7-0.7c0.1-0.5-0.2-1.1,0.7-1.1c2.7-0.1,4-1.5,4.8-4c2.6-8.1,5.3-16.2,8-24.3   c0.3-0.9,0.5-1.8,0.7-2.8c0.2-0.9-0.2-1.6-1.2-1.9c-1-0.3-2.1-0.5-3.2-0.4c-0.8,0-0.8-0.4-0.8-0.9c0-0.5,0-0.9,0.8-0.9   c6.8,0.1,13.5-0.3,20.3,0.3c2.5,0.2,5,0.8,7.1,2.3c4.1,2.9,4.1,8.9,0,11.8c-1.7,1.2-3.6,1.9-5.6,2.5   C144.5,209.7,144.1,209.8,143.4,210z"
   id="path12" />
	<path
   class="st1"
   d="M312.1,202.6c-2.1,2.8-4.1,5.3-6.1,7.9c-3.4,4.4-6.8,8.8-9.8,13.5c-0.4,0.6-0.9,1.2-1,2c-0.2,0.9,0,1.4,1,1.6   c0.8,0.2,1.7,0.2,2.5,0.3c1.1,0.1,0.5,0.9,0.6,1.4c0.1,0.6-0.3,0.7-0.7,0.7c-4.4,0-8.8,0-13.2,0c-0.3,0-0.8,0.1-0.7-0.4   c0.1-0.5-0.5-1.4,0.4-1.5c3.2-0.5,4.9-2.9,6.7-5.2c6.7-8.5,13.3-17.2,20-25.8c1-1.2,2-2.4,2.9-3.7c0.8-1.2,1.9-0.7,2.9-0.7   c0.7,0,0.5,0.9,0.7,1.4c2.3,10.2,4.5,20.4,6.8,30.6c0.6,2.5,1.2,2.9,3.7,3.2c0.5,0.1,1.5-0.4,1.6,0.9c0,1-0.2,1.3-1.2,1.3   c-5.6-0.1-11.2,0-16.7,0c-0.5,0-1.2,0.2-1.1-0.8c0-0.7,0-1.3,1-1.3c0.9,0,1.9-0.1,2.8-0.3c1.6-0.3,2.1-1,1.8-2.6   c-1.2-6.5-2.7-13-4.1-19.5C312.6,204.6,312.4,203.7,312.1,202.6z"
   id="path14" />
	<path
   class="st1"
   d="M97.2,209.1c2.2,0.1,4.2-0.1,6.2-0.2c2.8-0.1,4.4-1.7,5.5-4c0.4-0.9,1-1.1,1.8-0.8c0.5,0.2,0.6,0.4,0.4,0.8   c-1.5,4.3-3,8.5-4.5,12.8c-0.2,0.6-0.5,0.5-0.9,0.3c-0.4-0.2-1.2,0-1-0.9c0.2-0.9,0.4-1.8,0.4-2.7c0.1-1.6-0.5-2.3-2.1-2.4   c-2-0.1-4-0.1-6.1-0.2c-0.4,0-0.7,0.1-0.8,0.6c-1.3,4.3-2.6,8.6-3.8,12.9c-0.5,1.9,0.2,2.8,2.1,3c0.5,0.1,0.9,0.1,1.4,0.1   c0.8,0,0.9,0.4,0.9,1.1c0,0.8-0.5,0.7-1,0.7c-4.7,0-9.5,0-14.2,0c-0.5,0-0.9,0-0.9-0.7c0-0.6,0-1.1,0.7-1.1c0.2,0,0.4,0,0.6-0.1   c1.6-0.2,2.8-0.9,3.2-2.6c0.9-2.9,1.8-5.7,2.6-8.6c1.7-5.8,3.5-11.7,5.2-17.5c0.3-1,0.6-2,0.6-3c0-1.3-0.3-1.8-1.6-2   c-0.7-0.1-1.4-0.2-2.2-0.2c-0.8,0-0.8-0.4-0.8-1c0-0.6,0.1-0.9,0.8-0.9c9.8,0,19.7,0,29.5,0c0.6,0,0.8,0.1,0.6,0.8   c-0.6,2.7-1.2,5.3-1.8,8c-0.2,1.2-1.1,0.6-1.7,0.6c-0.9,0.1-0.6-0.6-0.6-1c0-0.6,0.2-1.3,0.2-1.9c0-1.7-0.7-2.5-2.3-3   c-1.6-0.5-3.2-0.6-4.9-0.6c-2.2-0.1-4.5-0.2-6.8,0.1c-0.5,0.1-1,0.3-1.2,0.8C99.8,200.6,98.5,204.8,97.2,209.1z"
   id="path16" />
	<path
   class="st1"
   d="M34.9,191.6c2.8-1.8,5.5-3.6,8.3-5.4c5.6-3.6,11.4-6.9,17.2-10.2c3.4-2,7.1-3.2,10.7-4.5   c0.8-0.3,0.8,0.1,0.6,0.6c-1.4,6.3-2.9,12.7-4.3,19c-0.2,0.7-0.6,0.7-1.1,0.7c-2.4,0-4.8,0-7.2,0c-7.6,0-15.2,0-22.8,0   c-0.4,0-0.9,0-1.3,0C34.9,191.7,34.9,191.7,34.9,191.6z"
   id="path18" />
	<path
   class="st1"
   d="M49.4,146.6c-7.3,4.9-14.6,9.9-22,14.8c0.3-3.6,0.6-7.1,1-10.7c0.1-1.1,0.3-2.2,0.3-3.3c0-0.6,0.3-0.8,0.9-0.8   c5.3-0.2,10.6-0.2,15.9-0.2c1.2-0.2,2.4-0.1,3.7-0.1C49.3,146.3,49.4,146.4,49.4,146.6z"
   id="path20" />
	<path
   class="st1"
   d="M210.2,217c-1.9,0-3.3-1.4-3.4-3.3c0-1.9,1.5-3.4,3.4-3.4c1.9,0,3.3,1.5,3.3,3.4   C213.6,215.6,212.1,217,210.2,217z"
   id="path22" />
	<path
   class="st2"
   d="M49.4,146.6c-1.3-0.4-2.6,0-3.9-0.2c1.5-0.3,3-0.1,4.4-0.1C49.8,146.3,49.6,146.4,49.4,146.6z"
   id="path24" />
	<path
   class="st3"
   d="M164.2,97.3c-0.1-0.3,0-0.6-0.3-0.8c0.1-0.2,0.3-0.4,0.4-0.3C164.6,96.6,164.4,97,164.2,97.3z"
   id="path26" />
	<path
   class="st4"
   d="M176.9,214.6c3.3-4.1,6.4-8,9.6-12.1c0.6,2.7,1.2,5.1,1.8,7.6c0.3,1.3,0.6,2.5,0.9,3.8   c0.1,0.4,0.1,0.7-0.5,0.7C184.8,214.6,181,214.6,176.9,214.6z"
   id="path28" />
	<path
   class="st4"
   d="M240,199.5c-0.7,2.8-1.4,5.4-2,8.1c-1.3,5-2.6,10-3.8,15c-0.3,1.1-0.7,1.1-1.6,0.9c-2.9-0.8-4.9-3.3-4.5-6.5   c0.8-7.3,4.3-13.2,10.6-17.1c0.2-0.1,0.5-0.3,0.7-0.4C239.6,199.6,239.7,199.6,240,199.5z"
   id="path30" />
	<path
   class="st4"
   d="M241.8,222.2c0.8-3.2,1.6-6.3,2.3-9.4c1.1-4.5,2.3-8.9,3.4-13.4c0.2-0.9,0.5-1.1,1.4-0.8c3,1,4.6,3.6,4,7.1   c-1.1,6.5-4.1,12-9.6,15.8C242.9,221.8,242.4,222.2,241.8,222.2z"
   id="path32" />
	<path
   class="st4"
   d="M272.4,211.5c1.5,0,2.9,0.1,4.3,0.4c3.8,0.8,5.8,3.8,5.1,7.7c-0.6,3.2-2.5,5.4-5.5,6.6c-2.8,1-5.7,1.5-8.7,1   c-1.6-0.3-2.2-1.2-1.7-2.7c1.3-4.1,2.6-8.2,3.9-12.4c0.1-0.4,0.4-0.6,0.8-0.6C271.2,211.5,271.8,211.5,272.4,211.5z"
   id="path34" />
	<path
   class="st4"
   d="M285.6,200.7c0,4-2.2,6.5-6.6,7.5c-2.4,0.5-4.8,0.6-7.3,0.6c-0.7,0-0.8-0.2-0.6-0.8c1.3-3.8,2.6-7.6,3.8-11.5   c0.2-0.7,0.6-1,1.3-1.1c1.9-0.4,3.9-0.3,5.8,0.2C284.5,196.4,285.6,198,285.6,200.7z"
   id="path36" />
	<path
   class="st4"
   d="M132.7,211.4c1.3,0.1,2.7,0.1,4,0.3c4,0.6,6.2,3.8,5.4,7.8c-0.8,3.9-3.4,6.4-7.9,7.3c-2.1,0.4-4.1,0.7-6.2,0.3   c-1.8-0.4-2.3-1.1-1.8-2.8c1.3-4.1,2.6-8.2,3.9-12.2c0.2-0.5,0.4-0.6,0.9-0.6C131.5,211.5,132.1,211.5,132.7,211.4   C132.7,211.5,132.7,211.5,132.7,211.4z"
   id="path38" />
	<path
   class="st4"
   d="M145.9,200.9c-0.1,4-2.3,6.4-6.6,7.4c-2.4,0.5-4.8,0.6-7.3,0.6c-0.7,0-0.7-0.3-0.5-0.8   c1.3-3.8,2.6-7.7,3.9-11.5c0.2-0.6,0.6-0.9,1.1-1c2.2-0.4,4.4-0.4,6.5,0.4C145,196.7,146,198.4,145.9,200.9z"
   id="path40" />
</g>
</svg>