<?xml version="1.0" encoding="UTF-8" standalone="no"?>
<!-- Generator: Adobe Illustrator 26.5.0, SVG Export Plug-In . SVG Version: 6.00 Build 0)  -->

<svg
   xmlns:dc="http://purl.org/dc/elements/1.1/"
   xmlns:cc="http://creativecommons.org/ns#"
   xmlns:rdf="http://www.w3.org/1999/02/22-rdf-syntax-ns#"
   xmlns:svg="http://www.w3.org/2000/svg"
   xmlns="http://www.w3.org/2000/svg"
   xmlns:sodipodi="http://sodipodi.sourceforge.net/DTD/sodipodi-0.dtd"
   xmlns:inkscape="http://www.inkscape.org/namespaces/inkscape"
   version="1.1"
   id="Layer_1"
   x="0px"
   y="0px"
   viewBox="0 0 350 350"
   style="enable-background:new 0 0 350 350;"
   xml:space="preserve"
   sodipodi:docname="ISE.svg"
   inkscape:version="0.92.5 (2060ec1f9f, 2020-04-08)"><metadata
   id="metadata71"><rdf:RDF><cc:Work
       rdf:about=""><dc:format>image/svg+xml</dc:format><dc:type
         rdf:resource="http://purl.org/dc/dcmitype/StillImage" /></cc:Work></rdf:RDF></metadata><defs
   id="defs69" /><sodipodi:namedview
   pagecolor="#ffffff"
   bordercolor="#666666"
   borderopacity="1"
   objecttolerance="10"
   gridtolerance="10"
   guidetolerance="10"
   inkscape:pageopacity="0"
   inkscape:pageshadow="2"
   inkscape:window-width="640"
   inkscape:window-height="480"
   id="namedview67"
   showgrid="false"
   inkscape:zoom="0.67428571"
   inkscape:cx="175"
   inkscape:cy="175"
   inkscape:window-x="72"
   inkscape:window-y="27"
   inkscape:window-maximized="0"
   inkscape:current-layer="Layer_1" />
<style
   type="text/css"
   id="style2">
	.st0{fill:#003366;}
	.st1{fill:#013366;}
	.st2{fill:#023467;}
	.st3{fill:#BFCCD9;}
	.st4{fill:#FECB33;}
	.st5{fill:#FDFEFE;}
	.st6{fill:#FCFCFD;}
	.st7{fill:#C5D1DC;}
	.st8{fill:#002B68;}
	.st9{fill:#002A69;}
	.st10{fill:#FEE02C;}
	.st11{fill:#37505C;}
	.st12{fill:#FDD82F;}
	.st13{fill:#001A6E;}
	.st14{fill:#F2CC33;}
	.st15{fill:#001E6D;}
	.st16{fill:#001D6D;}
	.st17{fill:#00196E;}
	.st18{fill:#001C6D;}
	.st19{fill:#00186E;}
	.st20{fill:#FEFEFE;}
	.st21{fill:#FEE32B;}
	.st22{fill:#8F8849;}
	.st23{fill:#FEE52B;}
	.st24{fill:#82814C;}
</style>
<rect
   id="rect73"
   width="367.7966"
   height="367.7966"
   x="-5.9322042"
   y="-4.449152"
   style="fill:#ffffff" /><g
   id="g64">
	<path
   class="st0"
   d="M58.1,129.8c-0.3,1.8,0.4,2.6,1.4,0.7c6.3-11,16.8-14.4,28.3-16.1c5.9-0.8,11.8,0.1,17.3,1.6   c8.4,2.3,16.8,1.8,25.2,1.8c8,0.1,16,0.1,24,0c2.8-0.1,3.8,0.8,3.6,3.6c-0.2,3.6-0.2,7.3,0,11c0.2,2.7-0.9,3.3-3.4,3.3   c-10-0.1-20,0.1-30-0.1c-3-0.1-4.1,0.6-4,3.8c0.2,5,0.2,10-0.1,15c-0.2,3.1,1.2,3.5,3.8,3.5c8.5-0.1,17,0.1,25.5-0.1   c3.6-0.1,4.6,1.1,4.3,4.5c-0.3,2.8-0.4,5.7,0,8.5c0.6,4.2-1.3,4.9-5,4.8c-9.1-0.2-18.3-0.1-27.8-0.1c2.1,6.7,2.7,13,0.8,19.4   c-0.9,3,0.9,2.8,2.9,2.8c10,0,20,0.1,30-0.1c3.4-0.1,4.3,1,4,4.2c-0.3,4.3,1.4,10-0.8,12.5c-2.5,3-8.4,0.9-12.8,1   c-8.8,0.2-17.6,0-26.5,0.1c-8.3,0-16.5,0.3-24.7,1.9c-10.7,2-21.5,0.2-31.9-3.6c-1.6-0.6-3.8-3.2-4.5,1c-0.1,0.3-1.8,0.4-2.8,0.4   c-5.3,0-10.7-0.1-16,0.1c-2.5,0.1-3.5-0.6-3.5-3.3c0.1-30.3,0.1-60.6,0-90.9c0-2.9,1.1-3.3,3.5-3.2c6.3,0.2,12.6,0.1,19,0.2   C58.9,121.8,58.5,125.8,58.1,129.8z"
   id="path4" />
	<path
   class="st0"
   d="M280.1,169.2c6.9-8.8,15.1-10.7,24.2-7.5c10.6,3.7,14.2,12.8,15.9,22.9c1.1,6.7-0.3,13.2-3.4,19.3   c-7.3,14.6-24.1,17.1-35.5,5.3c-0.2-0.2-0.6-0.2-0.9-0.2c-2,1.7,2.3,6.4-3.1,6.6c-2.8,0.1-3.7-0.6-3.7-3.5   c0.1-13,0.1-25.9,0.1-38.9c0-9.8,0-19.6,0-29.4c0-2.2-0.4-4.2,3.1-4.1c3.2,0,3.4,1.5,3.3,3.9C280,151.7,280.1,159.8,280.1,169.2z"
   id="path6" />
	<path
   class="st1"
   d="M251.1,210c-6.2,6.1-13,7.1-20.4,5.6c-6.8-1.4-11.4-6.7-12.1-13.5c-0.8-6.9,2.2-12.2,8.4-15.5   c6.2-3.3,12.9-3.1,19.5-2.7c4.3,0.3,4.9-1.5,4.5-5.1c-0.8-8.3-4.8-12-13.3-12.2c-5.3-0.1-10.1,1.5-14.7,4.1c-1.2-7.2-1-7.3,5.8-9.3   c4.8-1.4,9.6-1.4,14.3-0.7c7.9,1.2,13.1,6.3,14,14.6c1.4,12.6,0.3,25.2,0.6,37.9c0.1,2.3-1.4,2.4-2.9,2.2c-1.4-0.2-3.6,0.9-3.7-1.9   C251,212.7,251.1,211.7,251.1,210z"
   id="path8" />
	<path
   class="st2"
   d="M177.7,176.4c0,9.5,0.2,19-0.1,28.4c-0.1,3.6,0.6,5,4.6,4.8c8-0.3,16-0.1,23.9-0.1c2.1,0,3.4,0.1,3.4,2.8   c0,2.7-1,3.3-3.5,3.3c-10.6-0.1-21.3-0.1-31.9,0c-2.7,0-3.3-0.9-3.3-3.4c0.1-21.9,0.1-43.9,0-65.8c0-2.9,1.2-3.2,3.6-3.2   c2.5,0,3.5,0.5,3.4,3.3C177.6,156.5,177.7,166.4,177.7,176.4z"
   id="path10" />
	<path
   class="st3"
   d="M58.1,129.8c-0.1-4-0.2-8-0.2-12C59.7,121.7,59.3,125.8,58.1,129.8z"
   id="path12" />
	<path
   class="st4"
   d="M81.1,146.7c0.7,4.7,4.8,6.2,8,8.2c6.9,4.3,14.2,8,21.2,12c3.4,1.9,4.5,5.6,6.2,8.7c0.9,1.7,1.5,3.7,2.2,5.5   c1.3,1.5,0.8,3,0.3,4.6c0,0.7,0,1.4,0,2c0.5,1.3,0.8,2.5-0.2,3.7c-5.5,16.8-18.1,22.5-33.4,22c-7.1-0.2-14.2-1.3-21-3.6   c-4-1.4-6.2-3.4-5.2-7.9c0.2-0.9,0-2,0-3c0.7-2.1,0.2-4.3,0.4-6.4c0.1-0.9-0.1-2.1,1.5-1.9c5.1,3.7,10.7,6.3,17,6.9   c0.3-0.3,0.6-0.3,0.9,0.1c1.4,0.4,2.8,0.8,4.1,1.1c2,0.5,4,0.6,5.9-0.1c4.5-1.7,8.8-3.8,10-9.1c0,0,0.4-0.3,0.4-0.3   c0.3-0.1,0.6-0.3,0.8-0.6c-0.2-1.1,0.1-2.3-0.4-3.3c-0.1-0.1-0.3-0.2-0.4-0.3c-0.1-0.1-0.2-0.3-0.3-0.4c-0.9-4.2-4.2-6.5-7.6-8.4   c-5.9-3.3-12.1-6.1-17.8-9.8c-6.1-4-11.6-8.8-12.4-16.8c0.7-3.3,0.7-6.6,0-9.9c2.1-11.4,9.4-18,21.8-20.1c1.1-0.2,2.2-0.5,3.3-0.7   c0.6-0.8,1.4-0.6,2.2-0.6c2.1-0.3,4.2-0.8,6.3,0c1,0.2,2.2-0.4,3,0.6c6.5,1.2,13.1,2.1,19.2,5c1.3,3.2,0.8,6.3-0.1,9.5   c-0.8,5.7-0.8,5.6-6.3,3.6c-2.5-0.9-5.1-1.6-7.6-2.4c-1.6-1-3.7-1-5.3-2.1c-1.7-0.6-3.6,0-4.2-0.2c0.6,0.1,2.4-0.3,4.1,0.1   c0.4,0.3,0.6,0.7,0.4,1.2c-6.7-0.2-13.6-0.7-16.9,7.2c-0.1,0.2-0.2,0.3-0.2,0.5c-0.2,0.3-0.4,0.7-0.5,1c-0.3,0.9-0.3,1.8,0,2.8   c0.1,0.3,0.3,0.7,0.5,1C80.9,146.3,81,146.5,81.1,146.7z"
   id="path14" />
	<path
   class="st5"
   d="M58.2,159.7c0.1-0.6-0.2-2.8,0.9-1.1c6.8,10.2,17.6,14.8,27.9,20.2c1.5,0.8,2.9,1.6,4.3,2.5   c2.7,1.7,4.5,4,3.7,7.5c-0.8,3.1-3.1,4.5-6,5.3c-8.4,2.2-25.5-4.1-30.8-11.4C58.7,175,58.7,167.4,58.2,159.7z"
   id="path16" />
	<path
   class="st6"
   d="M98.1,154.9c-4.4-2.1-8.1-3.9-11.1-6.7c-3.9-3.6-2.9-8.3,2.3-9.8c1.7-0.5,3.6-0.4,5.4-0.5   c2.4-0.2,3.9,0.5,3.5,3.3c-0.1,0.6,0,1.3,0,2C98.1,146.8,98.1,150.4,98.1,154.9z"
   id="path18" />
	<path
   class="st7"
   d="M58.2,159.7c1.3,7.7,1.3,15.3,0,23C58.2,175,58.2,167.4,58.2,159.7z"
   id="path20" />
	<path
   class="st8"
   d="M116.8,133.4c0-3.2,0.1-6.3,0.1-9.5c1.3-1.2,2,0.2,1.8,0.9c-1.3,4.5-0.3,9.3-1.5,13.9   C117,136.9,116.9,135.2,116.8,133.4z"
   id="path22" />
	<path
   class="st9"
   d="M94.9,118.7c-2.3,0-4.7,0-7,0c-0.3-0.2-0.4-0.4-0.3-0.7c0.1-0.2,0.2-0.3,0.3-0.3c2.3-0.5,4.7-1.8,7,0   c0.3,0.2,0.4,0.4,0.3,0.6C95.2,118.6,95.1,118.7,94.9,118.7z"
   id="path24" />
	<path
   class="st10"
   d="M61.1,139.8c1.4,3.3,1.4,6.6,0,9.9C60.4,146.4,60.5,143.1,61.1,139.8z"
   id="path26" />
	<path
   class="st11"
   d="M60.9,190.7c-2.7,2.3-0.3,5.7-1.8,8.2c-0.1-2.4-0.2-4.8-0.2-7.3C58.9,190.4,59.4,189.3,60.9,190.7z"
   id="path28" />
	<path
   class="st12"
   d="M97.9,132.7c1.5,1,4.6-2.3,5,1.8l0.1,0.4c-1,0.3-2.1,0.5-3.1-0.2c-0.7-0.4-1.3-0.7-2-1.1   C97.9,133.3,97.9,133,97.9,132.7L97.9,132.7z"
   id="path30" />
	<path
   class="st13"
   d="M94.9,118.7c0-0.3,0-0.6,0-0.9c2.3,0,4.6,0,6.9,0c0,0.2,0,0.5,0,0.7c-1.4,0.1-2.8,0.3-4.2,0.4   C96.8,118.8,95.9,118.8,94.9,118.7z"
   id="path32" />
	<path
   class="st14"
   d="M88.9,198.8c-2,1.4-3.9,1.3-5.9,0.1C85,198.9,86.9,198.8,88.9,198.8z"
   id="path34" />
	<path
   class="st15"
   d="M118.8,191.4c0.1-1.2,0.1-2.5,0.2-3.7c1.5,1.3,0.8,2.9,0.9,4.5c0,0.7-0.5,0.6-0.8,0.2   C118.9,192.1,118.9,191.7,118.8,191.4z"
   id="path36" />
	<path
   class="st16"
   d="M119,185.7c-0.1-1.5-0.2-3.1-0.3-4.6C121,182.4,120,184.1,119,185.7z"
   id="path38" />
	<path
   class="st17"
   d="M81,140.8c1.4,1.9,1.4,3.9,0,5.9c0,0-0.2,0.1-0.2,0.1c-1.2-2-1.2-4.1,0-6.1L81,140.8z"
   id="path40" />
	<path
   class="st18"
   d="M99.9,134.7c1,0.1,2,0.1,3.1,0.2c-1.6,1.3-3.3,0.8-5.1,0.6C98.3,134.4,99.2,134.9,99.9,134.7z"
   id="path42" />
	<path
   class="st18"
   d="M87.9,117.8c0,0.3,0,0.7,0,1c-0.6,0.1-1.2,0.1-1.7,0.2c-1.1-0.1-2.2-0.3-3.7-0.4   C84.6,117.3,86.3,118,87.9,117.8z"
   id="path44" />
	<path
   class="st16"
   d="M78.8,197.7l-0.5,0.1c0,0-0.4-0.2-0.4-0.2c1.2-1.2,2.5-1.1,4.1-0.5C81,198.1,79.9,197.5,78.8,197.7z"
   id="path46" />
	<path
   class="st19"
   d="M98.9,189.7c-1.4-1.6-1.4-3.3,0-4.9c0,0,0.2-0.1,0.2-0.1c1.1,1.7,1.1,3.5,0,5.2L98.9,189.7z"
   id="path48" />
	<path
   class="st20"
   d="M313.1,187.2c0.1,5.2-0.2,9.1-1.9,12.8c-3,6.6-8.3,10.4-14.5,10.2c-7-0.3-12.8-4.7-15-11.7   c-2-6.3-2-12.8-0.3-19.1c2.3-8.4,9-13.3,16.7-12.7c7.6,0.6,13.7,7.3,14.8,16.3C313.1,184.8,313,186.6,313.1,187.2z"
   id="path50" />
	<path
   class="st5"
   d="M243.1,189.8c8.6,0,8.6,0,7.9,8.6c-0.4,4.9-2.8,8.5-7.3,10.3c-5,2-10.1,2.4-14.7-1c-5.7-4.3-4.6-12.7,1.9-16   C234.8,189.7,239,189.7,243.1,189.8z"
   id="path52" />
	<path
   class="st12"
   d="M97.9,132.7c-2.3,0-4.5,0-6.8,0C93.4,132,95.8,130.9,97.9,132.7C97.9,132.7,97.9,132.7,97.9,132.7z"
   id="path54" />
	<path
   class="st21"
   d="M99.9,184.8c1.1,1.2,1.4,3.2,0.8,4.9c0,0.1-0.3,0.1-0.4,0.1c-0.1,0-0.3-0.2-0.4-0.2   C99.2,188,99.2,186.4,99.9,184.8z"
   id="path56" />
	<path
   class="st22"
   d="M80.8,140.7c0,2,0,4.1,0,6.1c-0.2,0-0.4-0.1-0.6-0.1c-1.2-2-1.2-3.9,0-5.9C80.4,140.7,80.6,140.7,80.8,140.7z   "
   id="path58" />
	<path
   class="st23"
   d="M80.2,140.8c-0.4,2-0.4,4,0,5.9C78.3,144.7,78.3,142.8,80.2,140.8z"
   id="path60" />
	<path
   class="st24"
   d="M99.9,184.8c0,1.6,0,3.2,0,4.8c-0.3,0.1-0.5,0.1-0.8,0.2c0-1.7,0-3.5,0-5.2C99.3,184.7,99.6,184.7,99.9,184.8   z"
   id="path62" />
</g>
</svg>