<?xml version="1.0" encoding="UTF-8" standalone="no"?>
<svg
   viewBox="0 0 82.849236 82.849194"
   width="313.13101"
   height="313.13101"
   version="1.1"
   id="svg478"
   sodipodi:docname="issta.svg"
   inkscape:version="1.2.2 (732a01da63, 2022-12-09)"
   xmlns:inkscape="http://www.inkscape.org/namespaces/inkscape"
   xmlns:sodipodi="http://sodipodi.sourceforge.net/DTD/sodipodi-0.dtd"
   xmlns="http://www.w3.org/2000/svg"
   xmlns:svg="http://www.w3.org/2000/svg">
  <sodipodi:namedview
     id="namedview480"
     pagecolor="#ffffff"
     bordercolor="#000000"
     borderopacity="0.25"
     inkscape:showpageshadow="2"
     inkscape:pageopacity="0.0"
     inkscape:pagecheckerboard="0"
     inkscape:deskcolor="#d1d1d1"
     showgrid="false"
     inkscape:zoom="0.87364621"
     inkscape:cx="256.39669"
     inkscape:cy="6.8677686"
     inkscape:window-width="1920"
     inkscape:window-height="1017"
     inkscape:window-x="1912"
     inkscape:window-y="-8"
     inkscape:window-maximized="1"
     inkscape:current-layer="svg478" />
  <defs
     id="defs268">
    <filter
       id="glow"
       x="-0.49317061"
       y="-0.12162402"
       width="1.9863412"
       height="1.243248">
      <feFlood
         flood-color="#c86"
         result="flood"
         id="feFlood259" />
      <feComposite
         in="flood"
         in2="SourceGraphic"
         operator="in"
         result="composite"
         id="feComposite261" />
      <feGaussianBlur
         in="composite"
         stdDeviation="1"
         result="blur"
         id="feGaussianBlur263" />
      <feComposite
         in="SourceGraphic"
         in2="blur"
         operator="over"
         id="feComposite265" />
    </filter>
  </defs>
  <path
     filter="url(#glow)"
     fill="#0d2e41"
     d="m 9.9921146,48.913516 h -4.86647 V 29.180572 h 4.86647 z"
     id="path270" />
  <path
     filter="url(#glow)"
     fill="#0d2e41"
     d="m 14.873425,48.913516 v -4.421367 h 4.92581 q 1.83977,0 2.37389,-0.08902 1.03858,-0.178042 1.03858,-0.860535 0,-0.623145 -1.86944,-1.958457 l -4.18398,-2.96736 q -2.37388,-1.691395 -2.37388,-4.391693 0,-2.433235 1.75074,-3.738873 1.78041,-1.305639 5.04451,-1.305639 h 5.60831 v 4.421367 h -4.21365 q -1.83976,0 -2.40356,0.178041 -0.77152,0.237389 -0.77152,0.771514 0,0.356083 0.26707,0.623145 0.26706,0.237389 1.48368,1.06825 l 4.62908,3.175075 q 2.04748,1.394659 2.04748,3.768547 0,1.721069 -0.89021,3.145402 -0.86054,1.394659 -2.34422,1.988131 -1.454,0.593472 -4.00593,0.593472 z"
     id="path272" />
  <path
     filter="url(#glow)"
     fill="#0d2e41"
     d="m 31.713155,48.913516 v -4.421367 h 4.92581 q 1.83977,0 2.37389,-0.08902 1.03858,-0.178042 1.03858,-0.860535 0,-0.623145 -1.86944,-1.958457 l -4.18398,-2.96736 q -2.37389,-1.691395 -2.37389,-4.391693 0,-2.433235 1.75075,-3.738873 1.78041,-1.305639 5.04451,-1.305639 h 5.60831 v 4.421367 h -4.21365 q -1.83977,0 -2.40356,0.178041 -0.77152,0.237389 -0.77152,0.771514 0,0.356083 0.26707,0.623145 0.26706,0.237389 1.48368,1.06825 l 4.62908,3.175075 q 2.04748,1.394659 2.04748,3.768547 0,1.721069 -0.89021,3.145402 -0.86054,1.394659 -2.34422,1.988131 -1.454,0.593472 -4.00593,0.593472 z"
     id="path274" />
  <path
     filter="url(#glow)"
     fill="#0d2e41"
     d="m 56.446035,48.913516 h -4.86647 V 33.601939 h -4.00594 v -4.421367 h 12.87835 v 4.421367 h -4.00594 z"
     id="path276" />
  <path
     filter="url(#glow)"
     fill="#0d2e41"
     d="m 78.389625,48.913516 h -4.86647 V 41.94022 h -3.91691 v -4.005936 h 3.91691 v -1.48368 q 0,-1.454006 -0.4451,-2.077152 -0.68249,-0.979229 -1.89911,-0.979229 -1.42433,0 -2.07715,1.038576 -0.41543,0.682493 -0.41543,1.988131 v 12.492586 h -4.86647 V 36.509951 q 0,-3.323443 1.75074,-5.370921 2.0178,-2.344215 5.51929,-2.344215 3.7092,0 5.81602,2.729972 1.48368,1.928784 1.48368,5.192879 z"
     id="path278" />
</svg>
