<?xml version="1.0" encoding="UTF-8" standalone="no"?>
<!-- Generator: Adobe Illustrator 26.5.0, SVG Export Plug-In . SVG Version: 6.00 Build 0)  -->

<svg
   xmlns:dc="http://purl.org/dc/elements/1.1/"
   xmlns:cc="http://creativecommons.org/ns#"
   xmlns:rdf="http://www.w3.org/1999/02/22-rdf-syntax-ns#"
   xmlns:svg="http://www.w3.org/2000/svg"
   xmlns="http://www.w3.org/2000/svg"
   xmlns:sodipodi="http://sodipodi.sourceforge.net/DTD/sodipodi-0.dtd"
   xmlns:inkscape="http://www.inkscape.org/namespaces/inkscape"
   version="1.1"
   id="Layer_1"
   x="0px"
   y="0px"
   viewBox="0 0 350 350"
   style="enable-background:new 0 0 350 350;"
   xml:space="preserve"
   sodipodi:docname="mass.svg"
   inkscape:version="0.92.5 (2060ec1f9f, 2020-04-08)"><metadata
   id="metadata145"><rdf:RDF><cc:Work
       rdf:about=""><dc:format>image/svg+xml</dc:format><dc:type
         rdf:resource="http://purl.org/dc/dcmitype/StillImage" /></cc:Work></rdf:RDF></metadata><defs
   id="defs143" /><sodipodi:namedview
   pagecolor="#ffffff"
   bordercolor="#666666"
   borderopacity="1"
   objecttolerance="10"
   gridtolerance="10"
   guidetolerance="10"
   inkscape:pageopacity="0"
   inkscape:pageshadow="2"
   inkscape:window-width="640"
   inkscape:window-height="480"
   id="namedview141"
   showgrid="false"
   inkscape:zoom="0.67428571"
   inkscape:cx="177.9661"
   inkscape:cy="167.58475"
   inkscape:window-x="72"
   inkscape:window-y="27"
   inkscape:window-maximized="0"
   inkscape:current-layer="Layer_1" />
<style
   type="text/css"
   id="style2">
	.st0{fill:#2B2367;}
	.st1{fill:#4DA6CF;}
	.st2{fill:#53AFD4;}
	.st3{fill:#64B4D7;}
	.st4{fill:#5B5589;}
	.st5{fill:#378FC1;}
	.st6{fill:#4BA4CE;}
	.st7{fill:#3F98C6;}
	.st8{fill:#3E98C6;}
	.st9{fill:#3287BB;}
	.st10{fill:#50ABD2;}
	.st11{fill:#2B7BB3;}
	.st12{fill:#3B94C3;}
	.st13{fill:#3083B8;}
	.st14{fill:#378FC0;}
	.st15{fill:#4FA8D1;}
	.st16{fill:#3B95C4;}
	.st17{fill:#2B2669;}
	.st18{fill:#2D2E70;}
	.st19{fill:#439CC9;}
	.st20{fill:#348ABD;}
	.st21{fill:#449DCA;}
	.st22{fill:#469FCB;}
	.st23{fill:#46A0CB;}
	.st24{fill:#313F7F;}
	.st25{fill:#4AA3CD;}
	.st26{fill:#2E7EB5;}
	.st27{fill:#51ADD2;}
	.st28{fill:#2C296C;}
	.st29{fill:#5CB7D8;}
	.st30{fill:#338ABD;}
	.st31{fill:#2E3072;}
	.st32{fill:#2E3375;}
	.st33{fill:#303778;}
	.st34{fill:#2371AC;}
	.st35{fill:#63BFDD;}
	.st36{fill:#2877B0;}
	.st37{fill:#313B7B;}
	.st38{fill:#5AB4D7;}
	.st39{fill:#58B3D6;}
	.st40{fill:#5EBADA;}
	.st41{fill:#2675AE;}
	.st42{fill:#304382;}
	.st43{fill:#324886;}
	.st44{fill:#324A8A;}
	.st45{fill:#334E8D;}
	.st46{fill:#64BFDD;}
	.st47{fill:#1E6CA8;}
	.st48{fill:#335290;}
	.st49{fill:#3567A3;}
	.st50{fill:#345694;}
	.st51{fill:#3183B8;}
	.st52{fill:#355A97;}
	.st53{fill:#1F6EA9;}
	.st54{fill:#3386BB;}
	.st55{fill:#375E9B;}
	.st56{fill:#5CB6D8;}
	.st57{fill:#36639F;}
	.st58{fill:#366FAA;}
	.st59{fill:#3D77B1;}
	.st60{fill:#5FBADB;}
	.st61{fill:#69C4E0;}
	.st62{fill:#6DC6E1;}
	.st63{fill:#356BA6;}
</style>
<rect
   id="rect147"
   width="361.86441"
   height="361.86441"
   x="-1.4830508"
   y="0"
   style="fill:#ffffff" /><g
   id="g138">
	<path
   class="st0"
   d="M215.6,103.7c9.9,2.5,14.9,9.7,17.9,18.8c0.9,2,1.3,4.2,1.1,6.4c-0.8,4.1-1.9,8-4,11.6   c-1.5,2.5-2.6,5.1-4.2,7.5c-2,3.1-3.4,6.5-5.1,9.8c-1.1,2-2.1,4.1-3.1,6.2c-2,3.7-3.7,7.4-5.6,11.1c-0.9,1.8-1.9,3.5-3.9,4.3   c-5.3,10.1-10.6,20.2-15.9,30.3c-3.5-0.8-2.7-3.6-2.7-5.9c-0.1-15.6,0-31.2,0-46.7c0-12.1,0-24.2,0-36.3c0-3.2,0.2-6.3,1.4-9.3   c2.9-4.3,7.1-6.5,12-7.8c1.5-1.1,3.6,0.3,5.1-1c0.7,0,1.3,0,2,0C212.1,104,214.1,102.6,215.6,103.7z"
   id="path4" />
	<path
   class="st1"
   d="M136.6,181.6c-0.5,2-1.4,3.8-2.8,5.4c-2-1.6-1.7-3.9-1.7-6c0-23.7,0-47.5,0-71.2c0-2.2-0.1-4.3,1.4-6.2   c0-0.3,0-0.6,0.1-0.8c0.3,0,0.7,0,1,0c1,0.7,2.6,0.6,3,2.1c0.8,2.4,0.6,4.9,0.6,7.4c0,19.7,0,39.4,0,59.1   C138.2,174.9,137.9,178.3,136.6,181.6z"
   id="path6" />
	<path
   class="st2"
   d="M144.6,102.7c0,0.3,0,0.6,0,0.9c1,1.4,1.4,3,1.4,4.7c0.1,17-0.1,33.9,0.1,50.9c0,1.5-0.4,3-0.5,4.4   c-1.2,2.8-1.8,5.9-3.9,8.2c-1.6-1.3-1.6-3.2-1.6-5c-0.1-19.8-0.1-39.6,0-59.5c0-1,0.2-2,0.5-2.9c0.3-0.6,0.6-1.2,1.1-1.7   C142.6,102.7,143.6,102.7,144.6,102.7z"
   id="path8" />
	<path
   class="st3"
   d="M141.6,102.7c0,0.3,0,0.7,0,1c-1.7,1.3-3.3,1.3-5,0c-0.8,0-1.6-0.2-2-1C136.9,102.7,139.2,102.7,141.6,102.7z"
   id="path10" />
	<path
   class="st4"
   d="M215.6,103.7c-1.8,0.1-3.6,0.5-5.1-1c1.7,0,3.3,0,5,0C215.6,103.1,215.6,103.4,215.6,103.7z"
   id="path12" />
	<path
   class="st4"
   d="M208.6,102.7c-1.5,1.5-3.3,1.1-5.1,1c0-0.3,0-0.6,0.1-1C205.2,102.7,206.9,102.7,208.6,102.7z"
   id="path14" />
	<path
   class="st5"
   d="M118.5,216.4c-1.7,4.4-3.8,8.5-8,11c-1.6-1.6-1.5-3.6-1.5-5.6c-0.1-28.2,0.1-56.5-0.1-84.7   c0-1.8,0.6-3.6,0.6-5.4c1.8-4.6,4.2-8.9,6.8-13.1c3.6,1.1,2.6,4.1,2.6,6.5c0.1,22.7,0.1,45.4,0,68   C119,200.9,119.8,208.7,118.5,216.4z"
   id="path16" />
	<path
   class="st6"
   d="M244.5,231.5c-0.7-0.3-1.4-0.6-2.1-0.9c-0.5-1.4-0.4-2.9-0.4-4.4c0-24.5,0-49,0-73.5c0-3.1-0.3-6.4,2.5-8.7   c2.2,2.1,3.1,4.9,4.1,7.6c1.2,3.7,1.6,7.4,1.6,11.3c-0.1,19.8,0,39.6,0,59.4c0,1.8,0,3.7-0.1,5.5   C249.7,231.1,248.3,232.9,244.5,231.5z"
   id="path18" />
	<path
   class="st7"
   d="M233.5,129.5c0-2.4,0-4.7,0-7.1c2.1,2.2,3.1,5.1,4.2,7.8c1.5,4.6,1.4,9.4,1.4,14.2c-0.1,25.2,0,50.4-0.1,75.5   c0,2.4,1,5.5-2.6,6.5c-1.8-1.3-3.5-2.7-4.1-5c-0.8-23.1-0.1-46.2-0.4-69.3C231.8,144.7,231.9,137.1,233.5,129.5z"
   id="path20" />
	<path
   class="st8"
   d="M124.6,204.7c-0.6,2.2-1.5,4.2-3,5.9c-2.6-1.8-2.5-4.5-2.5-7.2c-0.1-28.4,0.1-56.8-0.1-85.2   c0-1.9,0.6-3.6,0.7-5.4c0.8-1.8,2.1-3.1,3.8-4.1c3.5,1.2,2.5,4.2,2.5,6.7c0.1,26,0,52.1,0.1,78.1C126.1,197.3,126,201,124.6,204.7z   "
   id="path22" />
	<path
   class="st9"
   d="M107.6,229.5c-1.1,1.2-2.5,1.7-4,1.9c-1.9-1.9-1.6-4.3-1.6-6.6c-0.1-24.3,0-48.5-0.1-72.8   c0-2.2,0.7-4.3,0.5-6.4c0.9-2.9,2.3-5.5,4.1-7.9c2.8,0.5,2.5,2.8,2.5,4.7c0.1,27.3,0.1,54.7,0.1,82   C109.1,226.2,108.6,227.9,107.6,229.5z"
   id="path24" />
	<path
   class="st10"
   d="M136.6,103.7c1.7,0,3.3,0,5,0c0,22.7,0.1,45.4,0.1,68.1c-1.3,3.5-2.9,6.8-5.1,9.8   C136.6,155.6,136.6,129.7,136.6,103.7z"
   id="path26" />
	<path
   class="st11"
   d="M90.5,168.6c0.8-2.9,2.4-5.5,4.1-8c0.9-1.2,1.7-1.6,2.6,0c0.9,1.5,0.8,3.2,0.8,4.8c0,20.5,0.1,40.9,0,61.4   c0,3,0.6,6.9-4.7,5.8c-1.7,0.1-3.4,0.1-4.9-1c1.8-1.8,1.7-4.2,1.7-6.5c0-16.2,0-32.4-0.1-48.6C90.1,173.8,90.4,171.2,90.5,168.6z"
   id="path28" />
	<path
   class="st12"
   d="M233.5,129.5c0,29.2,0,58.4,0,87.6c0,1.6,0.5,3.4-1.3,4.5c-1.9-2-3-4.5-3.8-7.1c-1.3-19.1-0.3-38.2-0.6-57.3   c-0.1-5.6-0.5-11.3,1.5-16.8C230.8,136.8,232.2,133.2,233.5,129.5z"
   id="path30" />
	<path
   class="st13"
   d="M102.4,145.6c1.9,1.5,1.1,3.7,1.1,5.6c0.1,26.7,0,53.5,0,80.2c-1.2,0.9-2.5,1.2-4,1c-1.7-1.8-1.5-4-1.5-6.1   c-0.1-22.6,0.1-45.2-0.1-67.7c0-2,0.8-3.9,0.7-5.9C99.6,150.1,100.7,147.7,102.4,145.6z"
   id="path32" />
	<path
   class="st14"
   d="M229.5,140.5c0,23.3,0.1,46.6,0.1,69.9c0,1.4,0.4,3-1,4.1c-2.2-3.1-3.9-6.4-5.1-9.9   c-1-15.9-0.3-31.9-0.4-47.8c0-3.2,1.3-6.1,2.6-9C226.7,145.2,227.7,142.6,229.5,140.5z"
   id="path34" />
	<path
   class="st15"
   d="M244.5,231.5c4,0.6,4.1-1.9,4.1-4.9c0-25.1,0-50.1,0-75.2c1.8,2.4,3.2,5,4,7.9c1.2,3.3,1.4,6.7,1.4,10.3   c-0.1,19.1,0,38.1-0.1,57.2c0,2.9,0.8,7-4.6,5.8C247.6,232.6,246,232.6,244.5,231.5z"
   id="path36" />
	<path
   class="st16"
   d="M119.7,112.8c1.6,1.7,0.9,3.8,0.9,5.7c0.1,27.9,0.1,55.8,0,83.7c0,2.8,0.2,5.6,1,8.3c-0.5,2.2-1.6,4.2-3,5.9   c-1.2-2-1-4.1-1-6.3c0-28.7,0-57.3,0-86c0-1.9,0.8-4-1.2-5.6C117,116.4,118,114.4,119.7,112.8z"
   id="path38" />
	<path
   class="st17"
   d="M191.5,111.4c0,30.7,0.1,61.5,0.1,92.2c0,2-0.9,4.4,1.2,6c-0.6,2.2-1.6,4.2-3.1,6c-3.3-0.4-2.5-3.1-2.6-5   c-0.2-8-0.1-16-0.1-23.9c0-20.1,0-40.2,0-60.3c0-4.2,0.6-8.2,2.3-12.1C189.7,113,190.3,112.1,191.5,111.4z"
   id="path40" />
	<path
   class="st18"
   d="M187.7,219.6c-0.4,2-1.5,3.7-3.2,4.9c-3.2-1.2-2.3-4-2.3-6.3c-0.1-16.6-0.1-33.2-0.1-49.8   c0-11.1,0-22.3,0-33.4c0-3.2,0.2-6.3,1.4-9.3c0.2-1.6,1-2.8,2-4c2.8,1.4,2,4,2,6.2c0.1,26.8,0.1,53.5,0,80.3   C187.5,211.9,187.8,215.7,187.7,219.6z"
   id="path42" />
	<path
   class="st19"
   d="M236.3,226.6c1.9-1.5,1.2-3.7,1.2-5.6c0.1-30.2,0.1-60.5,0.2-90.7c1.7,2.3,3,4.7,3.8,7.4   c1.1,1.9,0.5,3.9,0.5,5.8c-0.1,26.3,0,52.6,0,79c0,1.5,0.1,3-0.5,4.4c-0.5,1.3-1.2,2.5-2.9,1.5   C237.6,228.1,236.8,227.6,236.3,226.6z"
   id="path44" />
	<path
   class="st20"
   d="M107.6,229.5c0-28.7,0-57.5-0.1-86.2c0-1.9,0.8-4-1-5.7c0.6-2.2,1.6-4.2,3.1-6c1.7,1.7,0.9,3.8,0.9,5.7   c0,30,0,60.1,0,90.1C109.9,228.6,108.9,229.2,107.6,229.5z"
   id="path46" />
	<path
   class="st21"
   d="M124.6,204.7c0-30.1,0-60.2-0.1-90.4c0-1.9,0.8-4-1-5.6c0.6-1.2,1.6-1.9,2.9-2.1c3.6,1.1,2.6,4.1,2.6,6.5   c0.1,21.7,0.1,43.4,0,65.2c0,6.1,0.2,12.2-0.3,18.4C127.8,199.5,126.5,202.2,124.6,204.7z"
   id="path48" />
	<path
   class="st22"
   d="M238.6,228.5c3-0.7,1.9-3.1,1.9-4.9c0.1-25.2,0.1-50.4,0-75.6c0-3.5,0.5-6.9,1-10.3c2.1,1.5,1.6,4.3,3,6.2   c-1.2,4.2-1,8.5-1,12.8c0,22.7,0,45.5,0,68.2c0,1.9,0.8,4-1.1,5.6C240.9,230.4,239.6,229.7,238.6,228.5z"
   id="path50" />
	<path
   class="st23"
   d="M128.8,196.6c-2-1.5-1.2-3.7-1.2-5.5c-0.1-26.3,0-52.6-0.1-78.9c0-1.9,0.8-4-1.1-5.6c0.6-0.3,1.2-0.7,1.8-1   c1.5-0.7,2.6-0.1,3.2,1.3c0.5,1.1,0.6,2.2,0.6,3.4c-0.2,26.9,0.4,53.7-0.3,80.6C131.2,193,130.2,194.9,128.8,196.6z"
   id="path52" />
	<path
   class="st24"
   d="M178.5,229.5c-1.3,1.4-2.9,1.9-4.6,2.1c-0.7,0.4-1.3,0.3-1.8-0.3c-1.2-1.9-1-4.1-1-6.3c0-23.2,0-46.3,0-69.5   c0-2.8,0.3-5.6,1.3-8.3c0.5-2.2,1.6-4.1,3-5.9c2.2,2,1.5,4.6,1.5,7c0.1,24.2,0,48.4,0.1,72.6c0,2.3-0.3,4.7,0.7,6.9   C178,228.3,178.3,228.9,178.5,229.5z"
   id="path54" />
	<path
   class="st25"
   d="M131.7,190.9c-1.3-2.1-1.2-4.4-1.2-6.7c0-24.5,0-49,0-73.4c0-1.9,1-4.6-2.3-5.1c1.5-1.3,3.4-1.8,5.3-2   c0.1,27.8,0.2,55.6,0.2,83.4C133.5,188.4,132.8,189.8,131.7,190.9z"
   id="path56" />
	<path
   class="st26"
   d="M98.7,152.7c1.6,1.7,0.9,3.8,0.9,5.7c0.1,24.7,0,49.4,0,74.1c-2.1,0.6-4.1,1.3-6.2,0.1c2.2,0,3.3-0.8,3.3-3.2   c-0.1-22.4,0-44.8,0-67.2c0-1.6-0.4-2.2-2-1.5C95.5,157.7,96.9,155.1,98.7,152.7z"
   id="path58" />
	<path
   class="st27"
   d="M249.4,232.5c3.7,0.2,3.2-2.5,3.2-4.7c0-20.7,0-41.3,0-62c0-2.1,0.1-4.3,0.1-6.4c1.4,1.8,2.7,3.6,3,5.9   c1.1,3.9,1.4,7.8,1.4,11.8c-0.1,16.3,0,32.6,0,48.9c0,2.3,0.2,4.7-1.5,6.6C253.5,233.7,251.4,233.6,249.4,232.5z"
   id="path60" />
	<path
   class="st28"
   d="M187.7,219.6c-1.9-1.6-1.1-3.7-1.1-5.6c-0.1-28.7,0-57.3,0-86c0-2.1,0.2-4.3-1-6.3c1-2.6,2-5.3,3.9-7.5   c-0.8,3.9-0.9,7.8-0.9,11.8c0,28,0,56,0.1,84c0,1.9-0.8,4,1.2,5.5C189.5,217.1,188.9,218.5,187.7,219.6z"
   id="path62" />
	<path
   class="st29"
   d="M151.6,152.6c-0.6,2.2-1.5,4.2-3,5.9c-2-0.9-2.4-2.7-2.4-4.5c-0.1-16.2-0.1-32.4,0-48.6   c0-0.3,0.3-0.6,0.4-0.9c2.2-0.3,3,2.2,4.9,2.5c1.1,1.6,1.4,3.3,1.4,5.2c0,11.2,0.1,22.5,0,33.7   C152.9,148.2,152.5,150.5,151.6,152.6z"
   id="path64" />
	<path
   class="st30"
   d="M225.6,147.7c-2.2,15.7-0.4,31.5-1.1,47.3c-0.1,3.2,1.2,6.6-1.1,9.6c-1.7-2.1-2.9-4.5-3.8-7.1   c-1.2-11-0.4-22.1-0.5-33.2c0-2.3,0.6-4.6,1.4-6.7C221.7,154,223.3,150.7,225.6,147.7z"
   id="path66" />
	<path
   class="st31"
   d="M183.6,125.7c0,31,0,62.1,0,93.1c0,1.9-0.7,4,0.9,5.7c-0.3,1-1,1.7-2,2c-3.3-1.1-2.3-4-2.4-6.2   c-0.1-15.2-0.1-30.5-0.1-45.7c0-11.7,0-23.5,0-35.2c0-3.3,0.2-6.6,1.4-9.8C181.8,128.1,182.4,126.7,183.6,125.7z"
   id="path68" />
	<path
   class="st32"
   d="M181.5,129.6c0,30.4,0,60.8,0.1,91.2c0,1.9-0.8,4,1,5.7c-0.4,0.3-0.7,0.6-1.1,1c-2.5,1-2.8-0.9-3.1-2.5   c-0.4-1.8-0.2-3.6-0.2-5.5c0-25.2,0-50.5,0-75.7c0-3.5,0.3-7,1.4-10.3C179.8,132,180.4,130.6,181.5,129.6z"
   id="path70" />
	<path
   class="st2"
   d="M255.6,232.5c0-22.4,0.1-44.9,0.1-67.3c1,1.8,1.9,3.5,2.9,5.3c1,2.7,1.5,5.4,1.5,8.3c0,15.6,0,31.2,0,46.8   c0,2.9,0.1,5.8-3.5,6.8C256.2,232.5,255.9,232.5,255.6,232.5z"
   id="path72" />
	<path
   class="st33"
   d="M179.5,133.5c0,29.5,0,59.1,0.1,88.6c0,1.9-1.4,4.5,1.9,5.4c-0.7,1.1-1.7,1.7-3,2c-0.3,0-0.6-0.1-0.9-0.1   c-1.4-1.7-1-3.8-1-5.8c0-26.4,0-52.9,0-79.3c0-2.3,0.1-4.6,0.9-6.9C177.7,135.9,178.4,134.6,179.5,133.5z"
   id="path74" />
	<path
   class="st34"
   d="M84.2,229.7c-1.9-0.6-3.3-1.6-4.4-3.2c0.7-9.2,0.2-18.4,0.3-27.6c0-3.8,0-7.5,0.5-11.3c0.9-2.6,2-5,3.7-7.1   c2.9,0.3,2.6,2.6,2.7,4.5c0.1,13.5,0.1,27,0,40.6C87,227.2,87.2,229.7,84.2,229.7z"
   id="path76" />
	<path
   class="st35"
   d="M159.7,136.9c-1.8,4.1-3.4,8.2-6.1,11.9c-1.1-1-1-2.4-1-3.7c0-10.9,0-21.9,0-32.8c0-1.3-0.1-2.7,1.1-3.7   c2.9,1.7,4.6,4.4,5.9,7.4C161.5,122.9,161.7,129.9,159.7,136.9z"
   id="path78" />
	<path
   class="st36"
   d="M90.5,168.6c1.6,1.3,1,3,1,4.6c0,17.9,0,35.7,0,53.6c0,2.3,0.5,4.9-3.2,4.8c-0.9,0-1.6-0.2-2.1-0.9   c1-2,0.8-4.2,0.8-6.3c0-14.4,0.1-28.9-0.1-43.3c0-2.2,0.7-4.3,0.4-6.4C88.1,172.3,89,170.3,90.5,168.6z"
   id="path80" />
	<path
   class="st37"
   d="M177.5,137.4c0,30.7,0.1,61.3,0.1,92c-3.4-0.7-1.9-3.5-2-5.3c-0.1-25.4-0.1-50.9-0.1-76.3   c0-2.2-0.1-4.3-0.1-6.5C175.7,139.8,176.3,138.5,177.5,137.4z"
   id="path82" />
	<path
   class="st38"
   d="M256.6,232.4c2.1-1.4,2-3.5,2-5.7c0-18.7,0-37.4,0-56.2c1.5,1.7,2.5,3.7,3,5.9c1.1,3,1.4,6.1,1.4,9.3   c-0.1,12.9,0,25.8,0,38.8c0,2,0.2,4-0.4,5.9C260.7,231.5,258.8,232.6,256.6,232.4z"
   id="path84" />
	<path
   class="st39"
   d="M146.6,104.5c1,2,1,4.1,1,6.3c0,14,0,28,0,42c0,2-0.1,4,1,5.8c-0.7,1.8-1.2,3.8-3,5.1c-1-1.6-1-3.4-1-5.3   c0-18.2,0-36.5,0.1-54.7C145.3,103.9,145.9,104.2,146.6,104.5z"
   id="path86" />
	<path
   class="st40"
   d="M266.6,227.8c-0.7,0.5-1.4,1-2.1,1.5c-2-0.8-1.9-2.5-1.9-4.2c0-12.9,0-25.8,0-38.7c0-1.7,0.2-3.3,2.1-4.1   c1.4,1.7,2.4,3.7,3,5.9c1.9,5,1.5,10.1,1.5,15.3c0,5.8,0,11.6,0,17.5C269.1,223.6,268.6,226,266.6,227.8z"
   id="path88" />
	<path
   class="st41"
   d="M87.4,174.5c1.8,1.4,1.1,3.4,1.1,5.1c0,15.3,0.1,30.6,0,45.8c0,1.9,1,4.6-2.3,5.2c-0.8,0-1.6-0.2-2.1-0.9   c1.6-0.9,1.4-2.5,1.4-4c0-13.9,0-27.8,0-41.7c0-1.3,0.1-2.7-1.2-3.5C85,178.2,86,176.3,87.4,174.5z"
   id="path90" />
	<path
   class="st42"
   d="M172.4,147.2c0,28,0.1,56.1,0.1,84.1c-2,1.2-2.6-0.3-3.1-1.8c-0.5-1.6-0.3-3.3-0.3-4.9c0-21.6,0-43.1,0-64.7   c0-3.2,0.2-6.3,1.4-9.3C170.8,149.3,171.3,148.1,172.4,147.2z"
   id="path92" />
	<path
   class="st43"
   d="M170.6,150.6c0,25.3,0,50.6,0.1,76c0,1.7-1.3,4.2,2,4.7c0.4,0.1,0.9,0.2,1.3,0.3c-1.6,1-3.4,1.1-5.2,1   c-1.9-1.7-1.5-3.9-1.5-6c0-21.2,0-42.5,0-63.7c0-2.8,0.3-5.6,1.4-8.3C168.8,153.1,169.5,151.7,170.6,150.6z"
   id="path94" />
	<path
   class="st44"
   d="M168.6,154.6c0,26,0.1,52,0.1,78c0,0,0,0,0,0c-3.2,0.8-3.2-1.6-3.4-3.5c-0.3-3.6-0.1-7.3-0.1-11   c0-16.6,0-33.2,0-49.8c0-3.3,0.2-6.6,1.4-9.8C166.8,157,167.4,155.7,168.6,154.6z"
   id="path96" />
	<path
   class="st45"
   d="M166.5,158.5c0,22.9,0,45.8,0.1,68.7c0,1.9-1.1,4.5,2.1,5.3c-1.4,0.8-2.8,0.8-4.2,0c-1.5-1.8-1.3-4-1.3-6.2   c0-18.4,0-36.8,0-55.2c0-3,0.4-5.9,1.4-8.8C164.7,160.9,165.5,159.6,166.5,158.5z"
   id="path98" />
	<path
   class="st46"
   d="M266.6,227.8c1.5-3.7,0.8-7.5,0.9-11.3c0.1-9.4,0.1-18.8,0.1-28.3c3.3,3.2,3.3,8,5.9,11.5   c1.4,3-0.9,5.7-0.7,8.6c0.3,3.4,0.1,6.8,0.8,10.2l0,0c-1.6,0.9-1.4,2.7-2.1,4C270.5,224.8,269.1,226.8,266.6,227.8z"
   id="path100" />
	<path
   class="st47"
   d="M77.2,223.7c-6.9-8.8-6.8-18.9,0.3-30.2c2.3,0.1,2.5,2,2.5,3.6c0.2,7.6,0.2,15.3,0,22.9   C79.9,221.6,80,223.8,77.2,223.7z"
   id="path102" />
	<path
   class="st48"
   d="M164.5,162.4c0,23.4,0,46.8,0,70.2c-0.6-0.1-1.3-0.2-1.9-0.2c-0.4-0.5-0.8-1.1-1-1.7   c-0.8-15.2-0.2-30.4-0.3-45.7c0-6.3-0.7-12.6,1.3-18.7C162.8,164.8,163.4,163.5,164.5,162.4z"
   id="path104" />
	<path
   class="st49"
   d="M151.5,187.4c0.3-2.3,1.8-4,3.1-5.8c1.6,1.6,1.4,3.6,1.4,5.6c0,12.2,0,24.4,0,36.7c0,1.9,0.3,4-1.4,5.6   c-1.1-0.4-2.5-0.6-3-1.9c-0.5-1-1.2-2.1-1.2-3.2C150.6,212,148.8,199.6,151.5,187.4z"
   id="path106" />
	<path
   class="st50"
   d="M162.5,166.3c0,21.7,0.1,43.4,0.1,65.1c-2.9,1-2.9-1.4-3.2-3c-0.4-1.8-0.2-3.6-0.2-5.5c0-14,0-27.9,0-41.9   c0-3.7,0.3-7.3,1.3-10.8C160.7,168.7,161.4,167.5,162.5,166.3z"
   id="path108" />
	<path
   class="st51"
   d="M208.8,179.4c2.9-5.3,5.8-10.6,8.7-15.9c1.1,0.9,1.4,2.2,1.5,3.5c0.1,6.6,0.2,13.2-0.1,19.8   c-0.1,1.4,0.5,5.1-3.3,2.7C212.6,186.7,212.8,181.6,208.8,179.4z"
   id="path110" />
	<path
   class="st52"
   d="M160.5,170.3c0,18.8,0,37.6,0.2,56.3c0,1.8-1.1,4.2,2,4.9c0,0.3,0,0.6,0,0.9c-1.5,0.2-2.8-0.2-4-1   c-1.6-1.8-1.4-4-1.4-6.1c0-14.4,0-28.8,0-43.2c0-2.7,0.3-5.3,1.3-7.8C158.7,172.7,159.3,171.4,160.5,170.3z"
   id="path112" />
	<path
   class="st53"
   d="M77.2,223.7c0.1-0.1,0.4-0.2,0.4-0.3c1.6-10,1.9-20-0.1-29.9c1.1-2,2.1-3.9,3.2-5.9c1.2,1,1,2.4,1,3.7   c0,10.4,0,20.8,0,31.2c0,1.5,0.7,3.5-1.8,4C78.5,225.9,77.7,224.9,77.2,223.7z"
   id="path114" />
	<path
   class="st54"
   d="M215.6,189.5c2.9,1,1.9-1.4,1.9-2.5c0.1-7.9,0-15.7,0-23.6c0.6-2.2,1.5-4.2,3-5.9c0,11.7,0,23.5,0,35.2   c0,1.6,0.5,3.3-0.9,4.7C218.1,195,216.3,192.5,215.6,189.5z"
   id="path116" />
	<path
   class="st55"
   d="M158.4,174.2c0,19,0.1,38.1,0.1,57.1c-0.7-0.3-1.3-0.6-2-0.9c-1.2-1.4-1-3.1-1-4.8c0-14.1,0-28.2,0-42.3   c0-2,0-4,1-5.8C156.8,176.3,157.4,175.1,158.4,174.2z"
   id="path118" />
	<path
   class="st56"
   d="M264.6,182.4c-0.7,1.3-1.1,2.7-1.1,4.3c0,13,0,25.9,0,38.9c0,1.4,0.3,2.6,1,3.8c-0.7,0.4-1.3,0.7-2,1.1   c-1-1.6-1-3.4-1-5.3c0-16.2,0-32.4,0.1-48.7C263.1,178.2,264,180.2,264.6,182.4z"
   id="path120" />
	<path
   class="st57"
   d="M156.6,177.7c0,17.6,0,35.2,0,52.8c-0.9,0-1.5-0.4-2-1c0-15.9,0-31.9,0-47.8   C154.8,180,155.5,178.8,156.6,177.7z"
   id="path122" />
	<path
   class="st58"
   d="M147.5,195.3c0.4-2.3,1.7-4.1,3.1-5.8c1.2,6.9,0.4,13.8,0.5,20.7c0,5.4,0.6,10.9-0.4,16.3   c-1.3-1-3-1.6-3.2-3.6C145,213.6,145.3,204.5,147.5,195.3z"
   id="path124" />
	<path
   class="st59"
   d="M147.5,195.3c0,9.2,0,18.4,0,27.6C141.2,214.4,141.3,205.1,147.5,195.3z"
   id="path126" />
	<path
   class="st60"
   d="M153.6,108.5c0,13.4,0,26.8,0,40.2c-0.3,1.5-0.9,2.9-2,3.9c0-15.2,0-30.4,0-45.7   C152.5,107.1,153.2,107.7,153.6,108.5z"
   id="path128" />
	<path
   class="st61"
   d="M273.7,218.6c-2.5-3-3.2-12.4-1-16.1c0.5-0.9,0.8-1.7,0.8-2.7C276.8,206,276.6,212.3,273.7,218.6z"
   id="path130" />
	<path
   class="st62"
   d="M159.7,136.9c0-7-0.1-14-0.1-21C163.6,122.9,163.9,129.9,159.7,136.9z"
   id="path132" />
	<path
   class="st63"
   d="M150.6,226.4c0-12.3,0-24.7-0.1-37c0.3-0.7,0.7-1.3,1-2c0,13.4,0,26.7,0,40.1   C151.2,227.2,150.9,226.8,150.6,226.4z"
   id="path134" />
	<path
   class="st61"
   d="M271.6,222.6c0.2-1.6-0.8-3.8,2.1-4C273.5,220.2,272.8,221.5,271.6,222.6z"
   id="path136" />
</g>
</svg>