<?xml version="1.0" encoding="utf-8"?>
<!-- Generator: Adobe Illustrator 27.7.0, SVG Export Plug-In . SVG Version: 6.00 Build 0)  -->
<svg version="1.1" id="Layer_1" xmlns="http://www.w3.org/2000/svg" xmlns:xlink="http://www.w3.org/1999/xlink" x="0px" y="0px"
	 viewBox="0 0 282 214" style="enable-background:new 0 0 282 214;" xml:space="preserve">
<style type="text/css">
	.st0{fill:#FFFFFF;}
	.st1{fill:#010101;}
	.st2{fill:#4E4E4E;}
	.st3{fill:#242424;}
	.st4{fill:#252525;}
	.st5{fill:#797979;}
	.st6{fill:#757575;}
	.st7{fill:#777777;}
	.st8{fill:#727272;}
	.st9{fill:#C9C9C9;}
	.st10{fill:#DCDCDC;}
	.st11{fill:#8C8C8C;}
	.st12{fill:#FDFDFD;}
</style>
<g>
	<g>
		<path class="st0" d="M156.8,52c44.1,0,88.1,0,132.2,0c0,39.1,0,78.2,0,117.2c-96.7,0-193.3,0-290,0C-1,130.2-1,91.1-1,52
			c35.8,0,71.6,0,107.5,0c0,0-0.1,0.1-0.1,0.1c-0.6,0.1-1.2,0.1-1.8,0.3c-1.3,0.3-2.6,0.7-3.9,1.2c-2.6,1.1-5,2.7-7,4.8
			c-1.4,1.5-2.6,3.2-3.5,5c-0.6,1.2-1.1,2.5-1.4,3.8c-0.1,0.5-0.3,1-0.4,1.5c-0.1,0-0.2,0-0.2,0c-3.4,0-6.9,0-10.3,0
			c-0.1,0-0.2,0-0.3,0c-0.1-0.1-0.2-0.2-0.3-0.3c-0.2-0.8-0.6-1.5-1.1-2.1c-1.4-1.9-3.4-2.7-5.6-2.9c-1.3-0.1-2.6,0.1-3.8,0.8
			c-2.5,1.3-4,3.4-4.3,6.2c-0.1,1.3,0.1,2.6,0.7,3.9c1.3,2.6,3.4,4.2,6.4,4.4c2.1,0.2,3.9-0.4,5.5-1.7c0.8-0.6,1.4-1.4,1.8-2.2
			c3.8,0,7.6,0,11.3,0c0.2,0.8,0.4,1.6,0.5,2.4c0.3,1.4,0.8,2.7,1.4,3.9c2.9,5.8,7.4,9.5,13.7,11.1c0.6,0.1,1.1,0.3,1.7,0.4
			c1.1,0.1,2.1,0.1,3.2,0.1c15.1,0,30.3,0,45.4,0c0.8,0,1.6,0,2.3,0c0.4,0,0.7-0.1,1.1-0.2c2-0.7,2.6-3.4,1.1-4.9
			c-0.7-0.7-1.5-0.9-2.4-0.9c-15.9,0-31.7,0-47.6,0c-0.8,0-1.7,0-2.5-0.1c-1.1-0.3-2.3-0.5-3.4-1c-4.2-2-7-5.2-8.1-9.7
			c-0.1-0.4-0.3-0.9-0.3-1.3c-0.1-0.5-0.1-1-0.1-1.5c0-1-0.1-2,0.1-2.9c0.3-1.3,0.6-2.6,1.2-3.8c2.1-4.2,5.3-6.9,9.8-8
			c0.4-0.1,0.9-0.2,1.3-0.3c0.8-0.1,1.6-0.1,2.5-0.1c15.6,0,31.3,0,46.9,0c0.2,0,0.4,0,0.5,0c1.5-0.1,2.5-0.9,2.8-2.3
			c0.4-1.4-0.5-2.9-1.8-3.4C157.3,52.2,157.1,52.1,156.8,52z M235.6,161.6C235.6,161.6,235.6,161.6,235.6,161.6
			c0.4,0.4,0.8,0.9,1.2,1.3c1.1,1.4,2.1,2.7,3.2,4.1c0.1,0.2,0.3,0.3,0.5,0.2c0.1-0.1,0.1-0.3,0.2-0.5c0,0,0-0.1,0-0.1
			c0-1.9,0-3.8,0-5.7c0-0.1,0-0.3,0-0.4c0-0.1-0.2-0.2-0.3-0.3c-0.2,0-0.3,0.1-0.3,0.3c0,0.2,0,0.3,0,0.5c0,1.6,0,3.3,0,4.9
			c0,0-0.1,0-0.1,0c-1.4-1.8-2.8-3.6-4.2-5.4c-0.1-0.1-0.1-0.2-0.2-0.2c-0.2-0.1-0.4-0.1-0.5,0.1c0,0.1,0,0.2,0,0.3c0,2,0,3.9,0,5.9
			c0,0.1,0,0.3,0,0.4c0.1,0.1,0.2,0.2,0.3,0.2c0.1,0,0.2-0.1,0.2-0.2c0-0.2,0-0.3,0-0.5C235.6,164.9,235.6,163.2,235.6,161.6z
			 M217.4,161.6C217.4,161.6,217.4,161.6,217.4,161.6c0.4,0.4,0.8,0.9,1.2,1.3c1.1,1.4,2.1,2.7,3.2,4.1c0.1,0.2,0.3,0.3,0.5,0.2
			c0.1-0.1,0.1-0.3,0.2-0.5c0,0,0-0.1,0-0.1c0-1.9,0-3.8,0-5.7c0-0.1,0-0.3,0-0.4c0-0.1-0.2-0.2-0.3-0.3c-0.2,0-0.3,0.1-0.3,0.3
			c0,0.2,0,0.3,0,0.5c0,1.6,0,3.3,0,4.9c0,0-0.1,0-0.1,0c-1.4-1.8-2.8-3.6-4.2-5.4c-0.1-0.1-0.1-0.2-0.2-0.2
			c-0.2-0.1-0.4-0.1-0.5,0.1c0,0.1,0,0.2,0,0.3c0,2,0,3.9,0,5.9c0,0.1,0,0.3,0,0.4c0.1,0.1,0.2,0.2,0.3,0.2c0.1,0,0.2-0.1,0.2-0.2
			c0-0.2,0-0.3,0-0.5C217.3,164.9,217.4,163.2,217.4,161.6z M269,165.8c-0.9-1.1-1.7-2.2-2.6-3.3c-0.5-0.7-1.1-1.4-1.6-2
			c-0.1-0.2-0.3-0.3-0.4-0.2c-0.1,0.1-0.1,0.3-0.2,0.4c0,0.1,0,0.1,0,0.2c0,1.9,0,3.9,0,5.8c0,0.1,0,0.3,0,0.4
			c0,0.1,0.2,0.2,0.2,0.2c0.1,0,0.3-0.1,0.3-0.2c0.1-0.1,0-0.3,0-0.5c0-1.5,0-3,0-4.5c0-0.1,0-0.3,0.1-0.5c0.2,0.2,0.3,0.4,0.4,0.5
			c1.2,1.6,2.4,3.2,3.7,4.7c0.1,0.1,0.2,0.3,0.3,0.4c0.2,0.2,0.4,0.1,0.5-0.2c0-0.1,0-0.2,0-0.3c0-1.9,0-3.9,0-5.8
			c0-0.1,0-0.3,0-0.4c-0.1-0.1-0.2-0.2-0.3-0.2c-0.1,0-0.2,0.1-0.2,0.2c0,0.2,0,0.3,0,0.5c0,1.6,0,3.2,0,4.8
			C269.1,165.8,269.1,165.8,269,165.8z M146.8,165.7c-0.1,0-0.1,0-0.2,0c-0.9-1.1-1.7-2.2-2.6-3.3c-0.5-0.7-1.1-1.4-1.6-2
			c-0.1-0.2-0.3-0.3-0.4-0.2c-0.1,0.1-0.1,0.3-0.2,0.4c0,0.1,0,0.1,0,0.2c0,1.9,0,3.9,0,5.8c0,0.1,0,0.3,0,0.4
			c0,0.1,0.2,0.2,0.2,0.2c0.1,0,0.3-0.1,0.3-0.2c0.1-0.1,0-0.3,0-0.5c0-1.5,0-3,0-4.5c0-0.1,0-0.3,0.1-0.5c0.2,0.2,0.3,0.4,0.4,0.5
			c1.2,1.6,2.4,3.2,3.7,4.7c0.1,0.1,0.2,0.3,0.3,0.4c0.2,0.2,0.4,0.1,0.5-0.2c0-0.1,0-0.2,0-0.3c0-2,0-3.9,0-5.9c0-0.1,0-0.3,0-0.4
			c-0.1-0.1-0.2-0.2-0.3-0.2c-0.1,0-0.2,0.1-0.2,0.2c0,0.2,0,0.3,0,0.5C146.9,162.6,146.9,164.2,146.8,165.7z M53.6,165.8
			c-0.9-1.1-1.7-2.2-2.6-3.3c-0.5-0.7-1.1-1.4-1.6-2c-0.1-0.2-0.3-0.3-0.4-0.2c-0.1,0.1-0.1,0.3-0.2,0.4c0,0.1,0,0.1,0,0.2
			c0,1.9,0,3.9,0,5.8c0,0.1,0,0.3,0,0.4c0,0.1,0.2,0.2,0.2,0.2c0.1,0,0.3-0.1,0.3-0.2c0.1-0.1,0-0.3,0-0.5c0-1.5,0-3,0-4.5
			c0-0.1,0-0.3,0.1-0.5c0.2,0.2,0.3,0.4,0.4,0.5c1.2,1.6,2.4,3.2,3.7,4.7c0.1,0.1,0.2,0.3,0.3,0.4c0.2,0.2,0.4,0.1,0.5-0.2
			c0-0.1,0-0.2,0-0.3c0-2,0-3.9,0-5.9c0-0.1,0-0.3,0-0.4c-0.1-0.1-0.2-0.2-0.3-0.2c-0.1,0-0.2,0.1-0.2,0.2c0,0.2,0,0.3,0,0.5
			c0,1.6,0,3.2,0,4.8C53.7,165.8,53.6,165.8,53.6,165.8z M176.5,86.6c0-0.4-0.1-0.8-0.1-1.2c-0.2-1.4-0.6-2.8-1.2-4.1
			c-2.3-5.5-6.3-9.4-12-11.4c-0.9-0.3-1.9-0.7-2.9-0.8c-0.6,0-1.1-0.1-1.7-0.2c-0.7-0.2-1.4-0.2-2.1-0.2c-15.1,0-30.2,0-45.3,0
			c-0.9,0-1.9,0-2.8,0c-1.9,0-3.5,1.9-2.8,4c0.3,0.8,0.8,1.3,1.6,1.7c0.5,0.3,1.1,0.3,1.7,0.3c15.8,0,31.7,0,47.5,0
			c0.9,0,1.7,0.1,2.6,0.2c1.4,0.2,2.7,0.7,4,1.3c3.2,1.7,5.6,4.2,6.9,7.7c0.4,1.2,0.7,2.4,0.9,3.7c0.2,1.3,0,2.6-0.2,3.9
			c-0.2,1.1-0.5,2.2-1,3.2c-2.6,5.5-7,8.5-13.1,8.5c-15.8,0.1-31.5,0-47.3,0c-0.3,0-0.5,0-0.8,0c-1.4,0-2.8,1.2-2.9,2.7
			c-0.1,1.5,0.8,2.7,2.1,3.2c0.4,0.1,0.8,0.1,1.2,0.1c15.9,0,31.8,0,47.7,0c1.3,0,2.6-0.1,3.9-0.4c1.2-0.2,2.4-0.6,3.5-1.1
			c3.1-1.2,5.7-3.1,7.9-5.6c1.4-1.6,2.6-3.4,3.3-5.5c0.4-1.1,0.9-2.2,1.1-3.4c0.1-0.2,0.1-0.5,0.2-0.7c4.3,0,8.5,0,12.7,0
			c2,3.7,5.8,5.1,9.2,4c3.6-1.1,5.5-4.2,5.4-7.5c-0.1-3.7-2.6-6.7-6.4-7.4c-3.1-0.5-6.7,0.9-8.5,4.9c-3.9,0-7.8,0-11.7,0
			c-0.2,0-0.3,0-0.5,0C176.6,86.6,176.6,86.6,176.5,86.6z M18.1,151.8c4.3,0,8.6,0,13,0c0.5,0,1,0,1.5-0.1c2.2-0.5,3.7-1.8,4.3-3.9
			c0.7-2.1,0.2-4.1-1.3-5.8c-1.2-1.3-2.8-1.9-4.5-1.9c-7.9,0-15.7,0-23.6,0c-0.2,0-0.4,0-0.6,0c-0.7-0.1-1.2-0.4-1.4-1.1
			c-0.2-0.5-0.2-1,0.2-1.5c0.4-0.5,1-0.7,1.7-0.7c8.6,0,17.3,0,25.9,0c0.2,0,0.5,0,0.7,0c1.1-0.1,1.9-1.1,1.9-2.3
			c-0.1-1-0.9-1.9-2.3-1.9c-8.8,0-17.6,0-26.4,0c-0.5,0-1,0.1-1.4,0.2c-2.8,0.7-5.3,3.6-4.2,7.5c0.3,1.1,1,2,1.9,2.7
			c0.5,0.4,1,0.8,1.6,1c0.7,0.2,1.5,0.3,2.3,0.3c7.9,0,15.8,0,23.7,0c0.3,0,0.7,0.1,1,0.2c0.7,0.2,1.1,0.9,1,1.6
			c-0.1,0.8-0.7,1.4-1.4,1.4c-0.2,0-0.4,0-0.6,0c-8.6,0-17.2,0-25.8,0c-0.3,0-0.6,0-0.9,0.1c-0.8,0.1-1.4,0.6-1.6,1.4
			c-0.3,0.8-0.1,1.5,0.4,2.1c0.5,0.6,1.1,0.7,1.8,0.7C9.4,151.8,13.8,151.8,18.1,151.8z M127.1,132.7c-4.3,0-8.6,0-13,0
			c-0.6,0-1.2,0.1-1.8,0.2c-2.8,0.7-5.2,3.7-4,7.5c0.4,1.4,1.4,2.5,2.7,3.2c0.3,0.2,0.6,0.3,0.9,0.4c0.8,0.3,1.7,0.3,2.5,0.3
			c7.8,0,15.6,0,23.3,0c0.3,0,0.7,0.1,1,0.2c0.6,0.1,1,1,1,1.5c0,0.7-0.5,1.3-1.2,1.5c-0.3,0.1-0.5,0-0.8,0c-8.6,0-17.3,0-25.9,0
			c-0.3,0-0.6,0-0.9,0.1c-0.9,0.2-1.6,0.9-1.7,1.9c-0.1,0.9,0.5,1.8,1.3,2.1c0.3,0.1,0.7,0.2,1,0.2c8.8,0,17.5,0,26.3,0
			c0.6,0,1.3-0.1,1.9-0.3c3-0.9,4.8-4.2,3.8-7.3c-0.4-1.2-1.1-2.2-2.2-3c-1.1-0.8-2.3-1.1-3.7-1.1c-7.9,0-15.7,0-23.6,0
			c-0.2,0-0.4,0-0.6,0c-0.7-0.1-1.3-0.6-1.5-1.2c-0.1-0.7,0.1-1.4,0.7-1.7c0.4-0.2,0.8-0.3,1.3-0.3c8.7,0,17.4,0,26,0
			c1.3,0,1.8-0.4,2.3-1.5c0.4-0.9-0.2-2.2-1.2-2.5c-0.4-0.1-0.8-0.2-1.2-0.2C135.8,132.7,131.5,132.7,127.1,132.7z M83.6,136.9
			c4,0,8,0,11.9,0c0.2,0,0.4,0,0.6,0c0.8-0.1,1.4-0.4,1.7-1.1c0.3-0.8,0.4-1.6-0.3-2.4c-0.5-0.6-1.1-0.7-1.8-0.7
			c-5.7,0-11.4,0-17.2,0c-2.7,0-5.4,0-8.2,0c-1.4,0-2.8,0.4-3.9,1.2c-1.9,1.3-3.1,3.1-3.7,5.4c-0.5,1.9-0.6,3.8-0.1,5.8
			c0.4,1.7,1.2,3.2,2.4,4.5c1.4,1.5,3.1,2.3,5.2,2.3c6.7,0,13.3,0,20,0c0.9,0,1.7,0,2.6,0c2.4,0,4.7-1.6,5.2-4.4
			c0.1-0.9,0.1-1.8,0-2.6c-0.1-0.8-0.4-1.7-0.9-2.4c-1.1-1.5-2.6-2.3-4.5-2.3c-5.5,0-10.9,0-16.4,0c-0.2,0-0.4,0-0.7,0.1
			c-1.1,0.2-1.8,1.1-1.7,2.2c0.1,1.1,0.8,1.9,1.9,2c0.2,0,0.4,0,0.7,0c5.2,0,10.5,0,15.7,0c0.2,0,0.4,0,0.6,0c0.3,0,0.6,0.2,0.8,0.4
			c0.4,0.4,0.4,1.7,0.1,2.2c-0.4,0.4-0.8,0.6-1.4,0.6c-7,0-14,0-20.9,0c-0.3,0-0.6,0-0.8,0c-0.5-0.1-1-0.1-1.3-0.3
			c-1.1-0.6-2-1.5-2.4-2.8c-0.2-0.6-0.3-1.1-0.3-1.7c-0.1-0.9,0-1.8,0.3-2.7c0.3-0.9,0.8-1.6,1.5-2.2c0.9-0.8,2-1,3.1-1
			C75.5,136.9,79.5,136.9,83.6,136.9z M170.8,151.8c3.3,0,6.5,0,9.8,0c1.6,0,3.1-0.5,4.4-1.5c1.8-1.4,2.8-3.2,3.4-5.4
			c0.4-1.5,0.5-3,0.2-4.5c-0.3-1.9-1.1-3.7-2.4-5.2c-1.5-1.7-3.4-2.6-5.7-2.6c-6,0-11.9,0-17.9,0c-0.8,0-1.6,0.1-2.4,0.1
			c-1,0-1.9,0.4-2.7,0.9c-2.6,1.7-3.9,4.2-4.4,7.1c-0.2,1.3-0.1,2.7,0.2,4c0.4,1.4,0.9,2.6,1.7,3.8c1.6,2.2,3.6,3.4,6.4,3.3
			C164.6,151.8,167.7,151.8,170.8,151.8z M259.8,136.9c-0.2,0.4-0.4,0.7-0.6,1c-0.5,1.2-0.8,2.5-0.8,3.8c0,2.7,0,5.3,0,8
			c0,0.7,0.3,1.3,0.9,1.7c1.1,0.8,2.8,0.3,3.2-1c0.1-0.3,0.1-0.6,0.1-0.9c0-2.8,0-5.6,0.1-8.3c0-1.1,0.5-2.1,1.2-2.9
			c0.9-1,2-1.3,3.3-1.3c2.7,0,5.3,0,8,0c0.2,0,0.4,0,0.5,0c0.9-0.1,1.5-0.5,1.8-1.4c0.3-0.8,0.1-1.6-0.5-2.2c-0.5-0.5-1-0.7-1.7-0.7
			c-10,0-19.9,0-29.9,0c-0.1,0-0.2,0-0.4,0c-0.7,0.1-1.3,0.5-1.7,1.1c-0.4,0.7-0.3,1.7,0.3,2.4c0.5,0.6,1.1,0.7,1.8,0.7
			c4.5,0,8.9,0,13.4,0C259.2,136.9,259.4,136.9,259.8,136.9z M218.4,132.7c-4.1,0-8.2,0-12.3,0c-1.6,0-3.1,0.5-4.3,1.5
			c-1.6,1.3-2.7,2.9-3.3,4.9c-0.2,0.7-0.4,1.3-0.5,2c-0.1,2.8,0,5.6,0,8.3c0,0.1,0,0.3,0,0.4c0,1.4,1.5,2.5,3,1.8
			c0.8-0.4,1.2-1,1.2-1.9c0-2.4,0-4.8,0-7.2c0-0.8,0.1-1.5,0.2-2.2c0.4-1.3,1.1-2.4,2.4-3c0.7-0.3,1.5-0.4,2.3-0.4
			c7.8,0,15.7,0,23.5,0c0.2,0,0.4,0,0.7,0c1-0.1,1.7-0.7,1.9-1.7c0.2-0.9-0.3-1.9-1.2-2.3c-0.4-0.1-0.8-0.2-1.2-0.2
			C226.7,132.7,222.6,132.7,218.4,132.7z M218.8,144.3c3.7,0,7.3,0,11,0c0.2,0,0.5,0,0.7,0c1-0.1,1.8-0.9,1.8-2c0-1-0.6-2-1.6-2.2
			c-0.3-0.1-0.6-0.1-0.9-0.1c-7.3,0-14.6,0-21.9,0c-0.2,0-0.4,0-0.5,0c-0.8,0-1.8,0.7-2,1.8c-0.1,1.2,0.9,2.4,1.9,2.4
			c0.2,0,0.5,0,0.7,0C211.5,144.4,215.1,144.3,218.8,144.3z M48,142.2c0,2.5,0,5,0,7.6c0,1.4,1.5,2.6,3,1.9c0.9-0.4,1.2-1.1,1.2-2
			c0-3.3,0-6.5,0-9.8c0-1.7,0-3.4,0-5.1c0-1.4-1.3-2.3-2.6-2c-1,0.3-1.6,1-1.6,2.1C48,137.3,48,139.7,48,142.2z M180.1,166
			c-0.1-0.3-0.2-0.4-0.2-0.6c-0.5-1.6-1.1-3.1-1.6-4.7c-0.1-0.4-0.3-0.6-0.5-0.5c-0.4,0.2-0.2,0.4-0.1,0.7c0.7,1.9,1.4,3.9,2,5.8
			c0,0.1,0.1,0.2,0.1,0.3c0.1,0.2,0.4,0.2,0.5,0c0.1-0.1,0.1-0.3,0.2-0.4c0.3-0.9,0.6-1.8,0.9-2.7c0.3-0.8,0.6-1.6,0.9-2.5
			c0.1,0.3,0.2,0.5,0.3,0.7c0.5,1.5,1,3,1.6,4.5c0,0.1,0.1,0.3,0.2,0.4c0.1,0.2,0.4,0.2,0.6,0c0-0.1,0.1-0.2,0.1-0.3
			c0.7-2,1.4-3.9,2.1-5.9c0.1-0.4,0.1-0.6-0.1-0.7c-0.3-0.1-0.4,0.2-0.5,0.4c-0.2,0.7-0.5,1.4-0.7,2c-0.4,1.1-0.7,2.1-1.1,3.3
			c-0.1-0.3-0.2-0.4-0.2-0.6c-0.3-1-0.7-1.9-1-2.9c-0.2-0.6-0.4-1.1-0.6-1.7c-0.1-0.2-0.1-0.6-0.4-0.6c-0.3,0-0.3,0.4-0.4,0.6
			c0,0.1-0.1,0.1-0.1,0.2c-0.4,1.2-0.8,2.4-1.2,3.6C180.4,165,180.3,165.4,180.1,166z M229.5,163.9c0,0.6,0,1.1,0,1.6
			c0,0.4-0.1,0.6-0.4,0.8c-1,0.5-1.9,0.6-2.9,0c-1-0.5-1.5-1.4-1.5-2.5c0-1.1,0.5-2,1.5-2.6c1-0.6,2-0.5,3,0.1
			c0.2,0.1,0.5,0.4,0.7,0c0.2-0.3-0.1-0.5-0.4-0.6c-1.5-1-3.5-0.6-4.6,0.8c-0.9,1.1-1,2.4-0.4,3.7c0.6,1.3,1.6,2,3.1,2
			c0.7,0,1.3-0.1,1.9-0.4c0.2,0.2,0.2,0.5,0.5,0.4c0.3-0.1,0.2-0.4,0.2-0.6c0-1,0-1.9,0-2.9c0-0.4-0.1-0.5-0.5-0.5
			c-0.8,0-1.6,0-2.3,0c-0.1,0-0.2,0-0.2,0c-0.1,0.1-0.3,0.2-0.3,0.3c0,0.1,0.2,0.3,0.3,0.3c0.1,0.1,0.3,0,0.4,0
			C228.1,163.9,228.7,163.9,229.5,163.9z M277,163.9c0,0.7,0,1.2,0,1.8c0,0.3-0.1,0.4-0.3,0.5c-0.5,0.3-1.1,0.5-1.7,0.5
			c-1.5,0-2.8-1.3-2.8-2.9c0-1.6,1.2-2.9,2.8-2.9c0.7,0,1.3,0.1,1.8,0.5c0.2,0.1,0.4,0.2,0.5,0c0.2-0.2,0-0.4-0.2-0.5
			c-0.1-0.1-0.2-0.2-0.4-0.2c-1.3-0.6-2.6-0.5-3.8,0.3c-1.2,0.9-1.7,2.5-1.2,3.9c0.4,1.3,1.8,2.4,3.3,2.4c0.7,0,1.2-0.2,1.8-0.4
			c0.1,0.1,0.1,0.2,0.1,0.2c0.1,0.1,0.2,0.2,0.3,0.2c0.1,0,0.2-0.2,0.2-0.3c0,0,0-0.1,0-0.2c0-1,0-2,0-2.9c0-0.5,0-0.5-0.5-0.5
			c-0.8,0-1.6,0-2.3,0c-0.1,0-0.2,0-0.2,0c-0.1,0.1-0.2,0.2-0.2,0.3c0,0.1,0.1,0.2,0.2,0.3c0.1,0,0.3,0,0.5,0
			C275.6,163.9,276.2,163.9,277,163.9z M100.1,163.9c0,0.7,0,1.2,0,1.8c0,0.3-0.1,0.4-0.3,0.5c-0.7,0.5-1.5,0.6-2.3,0.4
			c-1.2-0.3-1.9-1.1-2.1-2.3c-0.2-1.2,0.2-2.2,1.2-2.9c1-0.7,2-0.7,3.1-0.1c0.1,0.1,0.3,0.2,0.4,0.2c0.1,0,0.3-0.1,0.3-0.1
			c0-0.1,0-0.2,0-0.3c-0.1-0.1-0.2-0.2-0.3-0.3c-1.2-0.7-2.4-0.7-3.6-0.1c-1.2,0.7-1.8,1.7-1.8,3.1c0,2.1,1.9,3.6,3.6,3.5
			c0.7,0,1.3-0.2,1.8-0.5c0.1,0.2,0.1,0.5,0.4,0.5c0.2,0,0.3-0.2,0.3-0.3c0-1.1,0-2.2,0-3.2c0-0.2-0.1-0.4-0.4-0.4
			c-0.9,0-1.8,0-2.6,0c0,0,0,0-0.1,0c-0.1,0.1-0.2,0.2-0.3,0.3c0,0.1,0.2,0.2,0.3,0.3c0.1,0,0.3,0,0.5,0
			C98.8,163.9,99.4,163.9,100.1,163.9z M161.1,167.2c1.6,0.1,3.5-1.3,3.5-3.5c0-2.2-1.9-3.6-3.5-3.6c-1.9,0-3.5,1.6-3.5,3.6
			C157.6,165.7,159.3,167.4,161.1,167.2z M136.4,167.2c1.8,0.1,3.5-1.6,3.5-3.5c0-1.9-1.7-3.6-3.5-3.6c-1.7,0-3.5,1.4-3.5,3.5
			C132.9,165.8,134.8,167.4,136.4,167.2z M112.1,167.2c1.8,0.1,3.5-1.6,3.5-3.5c0-1.9-1.7-3.6-3.5-3.6c-1.7,0-3.5,1.4-3.5,3.5
			C108.5,165.8,110.4,167.4,112.1,167.2z M257.9,164c0.2-0.1,0.4-0.1,0.5-0.2c0.8-0.4,1.2-1.1,1.1-1.9c-0.1-0.8-0.7-1.6-1.6-1.7
			c-0.9-0.1-1.8,0-2.6,0c-0.2,0-0.3,0.1-0.3,0.3c0,0.1,0,0.2,0,0.4c0,1.9,0,3.8,0,5.7c0,0.1,0,0.3,0.1,0.4c0,0.1,0.2,0.1,0.3,0.1
			c0.1,0,0.2-0.1,0.2-0.2c0-0.1,0-0.3,0-0.4c0-0.7,0-1.3,0-2c0-0.2,0-0.3,0.1-0.5c0.5,0,1,0,1.6,0c0.4,0.7,0.7,1.5,1.1,2.2
			c0.1,0.2,0.2,0.4,0.3,0.6c0.1,0.2,0.2,0.4,0.5,0.3c0.3-0.1,0.2-0.4,0.1-0.6c-0.1-0.3-0.2-0.5-0.4-0.8
			C258.5,165.3,258.2,164.7,257.9,164z M104.9,164c0.2,0.4,0.4,0.8,0.6,1.3c0.3,0.6,0.6,1.1,0.9,1.7c0.1,0.2,0.3,0.3,0.4,0.2
			c0.1-0.1,0.1-0.3,0.1-0.4c0-0.1-0.1-0.2-0.1-0.3c-0.3-0.7-0.7-1.3-1-2c-0.1-0.1-0.1-0.3-0.2-0.4c0.2-0.1,0.4-0.1,0.5-0.2
			c0.5-0.3,0.9-0.7,1-1.3c0.3-1.1-0.6-2.2-1.8-2.3c-0.7,0-1.4,0-2.2,0c-0.6,0-0.6,0-0.6,0.6c0,1.4,0,2.8,0,4.3c0,0.5,0,1.1,0,1.6
			c0,0.2,0,0.5,0.3,0.5c0.3,0,0.3-0.3,0.3-0.5c0-0.7,0-1.4,0-2c0-0.2,0-0.4,0-0.6C103.9,164,104.3,164,104.9,164z M71.2,164
			c0.2-0.1,0.4-0.2,0.6-0.3c0.6-0.3,1-0.8,1-1.6c0-1-0.8-1.9-1.8-2c-0.7,0-1.4,0-2.2,0c-0.5,0-0.6,0-0.6,0.6c0,1.9,0,3.9,0,5.8
			c0,0.1,0,0.3,0,0.4c0,0.1,0.2,0.2,0.3,0.2c0.1,0,0.2-0.1,0.3-0.2c0.1-0.1,0-0.3,0-0.4c0-0.7,0-1.4,0-2.1c0-0.2,0-0.3,0.1-0.5
			c0.3,0,0.6,0,0.9,0c0.5,0,0.7,0.1,0.9,0.6c0.4,0.8,0.8,1.6,1.2,2.4c0.1,0.2,0.2,0.3,0.4,0.2c0.2-0.1,0.2-0.3,0.1-0.5
			c-0.3-0.6-0.5-1.1-0.8-1.7C71.6,164.7,71.4,164.4,71.2,164z M198.6,164c0.2-0.1,0.4-0.2,0.6-0.2c0.6-0.3,1.1-0.8,1.1-1.6
			c0-1-0.8-1.9-1.8-2c-0.7,0-1.4,0-2.2,0c-0.5,0-0.6,0-0.6,0.6c0,1.9,0,3.8,0,5.7c0,0.1,0,0.3,0,0.4c0,0.1,0.2,0.2,0.3,0.2
			c0.1,0,0.2-0.1,0.3-0.2c0.1-0.1,0-0.3,0-0.4c0-0.7,0-1.4,0-2.1c0-0.2,0-0.3,0.1-0.5c0.4,0,0.8,0,1.1,0c0.3,0,0.5,0.1,0.6,0.4
			c0.3,0.7,0.7,1.5,1.1,2.2c0.1,0.1,0.1,0.3,0.2,0.4c0.1,0.1,0.3,0.2,0.4,0.1c0.2,0,0.2-0.2,0.1-0.4c-0.1-0.3-0.2-0.5-0.4-0.8
			C199.3,165.4,199,164.7,198.6,164z M35.4,165.6c0.2,0.4,0.3,0.7,0.4,1c0.1,0.1,0.1,0.3,0.2,0.4c0.1,0.2,0.3,0.2,0.4,0.1
			c0.1-0.1,0.1-0.2,0.1-0.4c0-0.1-0.1-0.2-0.1-0.3c-0.8-1.9-1.6-3.9-2.4-5.8c0-0.1-0.1-0.2-0.2-0.3c-0.1-0.2-0.4-0.2-0.5,0
			c-0.1,0.1-0.1,0.2-0.2,0.3c-0.8,1.9-1.6,3.9-2.4,5.8c-0.1,0.1-0.1,0.3-0.1,0.4c0,0.1,0.1,0.3,0.1,0.3c0.1,0,0.3,0,0.4-0.1
			c0.1-0.1,0.2-0.3,0.2-0.4c0.1-0.3,0.3-0.7,0.4-1C33,165.6,34.2,165.6,35.4,165.6z M189.4,165.6c1,0,2,0,3,0c0.4,0,0.6,0.1,0.7,0.5
			c0.1,0.3,0.2,0.6,0.4,0.9c0.1,0.1,0.3,0.1,0.4,0.1c0.1,0,0.1-0.2,0.1-0.3c0-0.1-0.1-0.2-0.1-0.3c-0.8-1.9-1.6-3.9-2.4-5.8
			c0-0.1-0.1-0.2-0.2-0.3c-0.1-0.2-0.4-0.2-0.5,0c-0.1,0.1-0.1,0.2-0.2,0.3c-0.8,1.9-1.6,3.9-2.4,5.8c-0.1,0.1-0.1,0.3-0.1,0.4
			c0,0.1,0.1,0.3,0.1,0.3c0.1,0,0.3,0,0.4-0.1c0.1-0.1,0.1-0.2,0.2-0.4C189.1,166.4,189.3,166,189.4,165.6z M82.8,167.2
			c0.2,0,0.3,0,0.5,0c1-0.1,1.8-1,1.8-2c0-0.9-0.7-1.6-1.8-1.8c-0.3,0-0.6,0-1-0.1c-0.3-0.1-0.6-0.2-0.8-0.4c-0.3-0.2-0.5-0.6-0.4-1
			c0.2-0.7,0.8-1.2,1.6-1.2c0.8,0,1.4,0.2,1.8,0.9c0.1,0.2,0.2,0.3,0.4,0.2c0.2-0.1,0.2-0.3,0.1-0.5c-0.1-0.2-0.2-0.4-0.3-0.5
			c-0.7-0.9-2.9-1.3-3.9,0.2c-0.6,1-0.3,2.1,0.8,2.6c0.3,0.1,0.5,0.1,0.8,0.2c0.4,0.1,0.8,0.1,1.2,0.2c0.7,0.2,1,0.9,0.6,1.6
			c-0.2,0.4-0.6,0.7-1.1,0.8c-0.9,0.2-1.6-0.1-2.1-0.9c-0.1-0.2-0.2-0.3-0.4-0.2c-0.2,0.1-0.2,0.3-0.1,0.5c0.1,0.2,0.2,0.5,0.4,0.6
			C81.5,167.1,82.1,167.2,82.8,167.2z M153.9,167.2c1.1,0,1.9-0.5,2.2-1.4c0.3-0.9-0.1-1.7-0.9-2.1c-0.3-0.1-0.6-0.2-0.9-0.2
			c-0.3-0.1-0.7,0-1-0.1c-0.5-0.1-0.9-0.3-1-0.8c-0.1-0.5,0.1-1,0.5-1.3c0.3-0.2,0.6-0.3,0.9-0.3c0.8-0.1,1.5,0.1,1.9,1
			c0,0.1,0.3,0.2,0.4,0.2c0.2,0,0.3-0.3,0.2-0.4c-0.2-0.3-0.4-0.6-0.6-0.8c-0.7-0.5-1.4-0.6-2.2-0.4c-1,0.2-1.6,1.1-1.6,2.1
			c0.1,0.9,0.7,1.5,1.7,1.6c0.3,0,0.7,0.1,1,0.1c0.5,0.1,0.9,0.4,1.1,0.9c0.1,0.4-0.1,1-0.6,1.3c-0.2,0.2-0.5,0.3-0.8,0.3
			c-0.8,0-1.5-0.1-1.8-0.9c-0.1-0.2-0.2-0.3-0.4-0.2c-0.2,0.1-0.2,0.3-0.1,0.5c0.2,0.3,0.4,0.6,0.6,0.8
			C152.9,167.1,153.4,167.3,153.9,167.2z M4.4,167.3c0.4-0.1,0.8-0.2,1.1-0.3c0.8-0.4,1.3-1.3,1.1-2.1c-0.1-0.8-0.8-1.3-1.8-1.4
			c-0.3,0-0.7,0-1-0.1c-0.5-0.1-0.9-0.3-1-0.9c-0.1-0.6,0.1-1,0.6-1.4c0.6-0.4,1.7-0.4,2.2,0.1c0.2,0.2,0.3,0.4,0.5,0.6
			c0.1,0.1,0.3,0.1,0.4,0.2c0.1-0.1,0.2-0.3,0.2-0.4c-0.1-0.2-0.2-0.5-0.4-0.7c-0.7-0.8-2.7-1.1-3.7,0.1c-0.8,1-0.4,2.3,0.7,2.8
			c0.4,0.1,0.8,0.2,1.2,0.2c0.3,0,0.5,0.1,0.8,0.2c0.8,0.3,1,1,0.5,1.7c-0.3,0.4-0.6,0.7-1.1,0.7c-0.8,0.1-1.6-0.1-1.9-0.9
			c-0.1-0.2-0.2-0.3-0.4-0.2c-0.2,0.1-0.2,0.3-0.1,0.5c0.1,0.2,0.3,0.5,0.5,0.7C3.1,167.1,3.7,167.2,4.4,167.3z M75.3,164
			c0.3,0,0.5,0,0.7,0c0.6,0,1.2,0,1.9,0c0.2,0,0.4,0,0.4-0.3c0-0.2-0.2-0.3-0.4-0.3c-0.6,0-1.3,0-1.9,0c-0.2,0-0.4,0-0.6,0
			c0-0.9,0-1.7,0-2.6c0.4,0,0.8,0,1.2,0c0.7,0,1.4,0,2.1,0c0.2,0,0.5,0,0.5-0.3c0-0.3-0.2-0.3-0.5-0.3c0,0,0,0-0.1,0
			c-1.1,0-2.2,0-3.3,0c-0.6,0-0.6,0-0.6,0.6c0,1.5,0,3,0,4.5c0,0.5,0,0.9,0,1.4c0,0.4,0.1,0.5,0.5,0.5c0.6,0,1.3,0,1.9,0
			c0.6,0,1.1,0,1.7,0c0.2,0,0.4,0,0.4-0.3c0-0.2-0.2-0.3-0.4-0.3c-0.1,0-0.2,0-0.4,0c-0.7,0-1.4,0-2.2,0c-0.3,0-0.6,0-1,0
			C75.3,165.7,75.3,164.9,75.3,164z M243.3,160.8c0.2,0,0.4,0,0.6,0c0.9,0,1.7,0,2.6,0c0.1,0,0.3,0,0.4,0c0.1,0,0.2-0.2,0.2-0.3
			c0-0.1-0.2-0.2-0.3-0.3c-0.1,0-0.2,0-0.2,0c-1.1,0-2.2,0-3.4,0c-0.6,0-0.6,0.1-0.6,0.6c0,1.9,0,3.9,0,5.8c0,0.5,0,0.6,0.6,0.6
			c1.1,0,2.2,0,3.4,0c0.1,0,0.2,0,0.3,0c0.1,0,0.2-0.1,0.2-0.2c0-0.1-0.1-0.2-0.2-0.3c-0.1-0.1-0.3-0.1-0.5-0.1c-0.9,0-1.8,0-2.8,0
			c-0.2,0-0.3,0-0.5,0c0-0.9,0-1.7,0-2.5c0.2,0,0.3-0.1,0.4-0.1c0.6,0,1.2,0,1.8,0c0.1,0,0.3,0,0.4,0c0.2,0,0.3-0.1,0.3-0.3
			c0-0.1-0.2-0.2-0.3-0.3c-0.1,0-0.3,0-0.4,0c-0.6,0-1.2,0-1.8,0c-0.2,0-0.3,0-0.4-0.1C243.3,162.5,243.3,161.7,243.3,160.8z
			 M62.8,160.8c1.1,0,2.1,0,3.2,0c0.2,0,0.3,0,0.5-0.1c0.1,0,0.2-0.2,0.2-0.3c0-0.1-0.1-0.2-0.2-0.2c-0.1,0-0.2,0-0.3,0
			c-1.1,0-2.3,0-3.4,0c-0.5,0-0.5,0.1-0.5,0.5c0,2,0,4,0,6c0,0.5,0,0.5,0.5,0.5c1.1,0,2.3,0,3.4,0c0.2,0,0.5,0.1,0.5-0.3
			c0-0.3-0.2-0.3-0.5-0.3c-0.1,0-0.2,0-0.4,0c-0.8,0-1.7,0-2.5,0c-0.2,0-0.3,0-0.5,0c0-0.9,0-1.7,0-2.6c0.2,0,0.5,0,0.7,0
			c0.6,0,1.2,0,1.9,0c0.2,0,0.4,0,0.4-0.3c0-0.3-0.2-0.3-0.4-0.3c-0.5,0-1,0-1.6,0c-0.3,0-0.6,0-1,0
			C62.8,162.5,62.8,161.7,62.8,160.8z M15.4,160.8c1.1,0,2.1,0,3.1,0c0.2,0,0.3,0,0.5,0c0.2,0,0.3-0.1,0.3-0.3
			c0-0.1-0.2-0.2-0.3-0.3c-0.1,0-0.2,0-0.2,0c-1.1,0-2.2,0-3.4,0c-0.5,0-0.6,0-0.6,0.6c0,2,0,3.9,0,5.9c0,0.5,0,0.5,0.5,0.5
			c1.1,0,2.2,0,3.4,0c0.2,0,0.5,0.1,0.5-0.3c0-0.3-0.3-0.3-0.5-0.3c-0.1,0-0.2,0-0.4,0c-0.8,0-1.6,0-2.5,0c-0.2,0-0.3,0-0.5,0
			c0-0.9,0-1.7,0-2.5c0.2,0,0.4,0,0.6,0c0.5,0,1.1,0,1.6,0c0.1,0,0.2,0,0.4,0c0.2,0,0.3-0.1,0.3-0.3c0-0.2-0.2-0.3-0.4-0.3
			c-0.1,0-0.2,0-0.4,0c-0.6,0-1.2,0-1.7,0c-0.2,0-0.3,0-0.5-0.1C15.4,162.5,15.4,161.7,15.4,160.8z M202.7,163.4c0-0.9,0-1.7,0-2.6
			c0.4,0,0.8,0,1.2,0c0.7,0,1.5,0,2.2,0c0.2,0,0.4,0,0.4-0.3c0-0.3-0.2-0.3-0.4-0.3c0,0-0.1,0-0.1,0c-1.1,0-2.2,0-3.3,0
			c-0.6,0-0.6,0-0.6,0.6c0,1.9,0,3.9,0,5.8c0,0.6,0,0.6,0.6,0.6c1.1,0,2.2,0,3.4,0c0.1,0,0.2,0,0.3,0c0.1,0,0.2-0.1,0.2-0.2
			c0-0.1-0.1-0.2-0.2-0.3c-0.1-0.1-0.3-0.1-0.4-0.1c-0.6,0-1.1,0-1.7,0c-0.5,0-1,0-1.6,0c0-0.9,0-1.7,0-2.6c0.7,0,1.4,0,2.1,0
			c0.2,0,0.4,0,0.5,0c0.1,0,0.2-0.2,0.2-0.3c0-0.1-0.1-0.2-0.3-0.3c-0.2,0-0.4,0-0.6,0C204.1,163.4,203.4,163.4,202.7,163.4z
			 M249.5,160.8c1.1,0,2.1,0,3.1,0c0.2,0,0.3,0,0.5,0c0.1,0,0.2-0.2,0.2-0.3c0-0.1-0.2-0.2-0.3-0.3c0,0-0.1,0-0.2,0
			c-1.2,0-2.4,0-3.5,0c-0.4,0-0.5,0.1-0.5,0.5c0,2,0,4,0,6c0,0.4,0,0.5,0.5,0.5c1.2,0,2.4,0,3.5,0c0.2,0,0.4,0,0.4-0.3
			c0-0.3-0.2-0.3-0.4-0.3c-0.1,0-0.2,0-0.4,0c-0.9,0-1.7,0-2.6,0c-0.2,0-0.3,0-0.5,0c0-0.9,0-1.7,0-2.6c0.2,0,0.5,0,0.7,0
			c0.6,0,1.3,0,1.9,0c0.1,0,0.3-0.1,0.3-0.3c0-0.2-0.1-0.3-0.3-0.3c-0.6,0-1.3,0-1.9,0c-0.2,0-0.4,0-0.7,0
			C249.5,162.5,249.5,161.7,249.5,160.8z M124.9,164.1c0.2,0,0.4,0,0.5,0c0.6,0,1.2,0,1.8-0.1c0.5,0,1-0.4,1.3-0.8
			c0.8-1.2,0.1-2.8-1.4-2.9c-0.7-0.1-1.5,0-2.2,0c-0.6,0-0.6,0-0.6,0.6c0,1.9,0,3.8,0,5.7c0,0.1,0,0.2,0,0.3c0,0.2,0.1,0.3,0.3,0.3
			c0.2,0,0.3-0.1,0.3-0.3c0-0.2,0-0.4,0-0.5C124.9,165.6,124.9,164.9,124.9,164.1z M9.1,164.1c0.6,0,1,0,1.5,0c0.3,0,0.6,0,1-0.1
			c0.8-0.2,1.5-0.9,1.5-1.7c0-1.1-0.7-2-1.8-2c-0.7,0-1.4,0-2.1,0c-0.7,0-0.7,0-0.7,0.7c0,1.9,0,3.8,0,5.7c0,0.1,0,0.3,0,0.4
			c0,0.1,0.2,0.2,0.2,0.2c0.1,0,0.3-0.1,0.3-0.2c0.1-0.1,0-0.3,0-0.5C9.1,165.7,9.1,164.9,9.1,164.1z M24,167.2c0.2,0,0.4,0,0.5,0
			c0.7-0.1,1.3-0.4,1.8-0.8c0.2-0.1,0.2-0.3,0.1-0.5c-0.1-0.2-0.3-0.1-0.5,0c-0.1,0.1-0.2,0.2-0.3,0.2c-0.7,0.5-1.5,0.6-2.3,0.4
			c-1.2-0.3-1.9-1-2.2-2.2c-0.2-1.2,0.1-2.2,1.1-3c1-0.7,2-0.7,3.1-0.2c0.2,0.1,0.3,0.2,0.5,0.3c0.1,0,0.3-0.1,0.3-0.1
			c0-0.1,0-0.2,0-0.3c-0.1-0.1-0.2-0.2-0.3-0.2c-0.5-0.3-1-0.5-1.6-0.5c-2-0.2-3.7,1.3-3.8,3.3C20.4,165.8,22.4,167.4,24,167.2z
			 M211.2,166.6c0-0.8,0-1.4,0-2.1c0-0.2,0-0.3,0.1-0.5c0.3,0,0.5,0,0.7,0c0.6,0,1.2,0,1.9,0c0.2,0,0.3-0.1,0.3-0.3
			c0-0.2-0.1-0.3-0.3-0.3c-0.5,0-1.1,0-1.6,0c-0.3,0-0.6,0-1,0c0-0.9,0-1.7,0-2.6c0.2,0,0.4,0,0.6,0c0.9,0,1.7,0,2.6,0
			c0.2,0,0.3,0,0.5-0.1c0.1,0,0.1-0.2,0.1-0.3c0-0.1-0.1-0.2-0.2-0.2c-0.1,0-0.2,0-0.3,0c-1.2,0-2.3,0-3.5,0c-0.4,0-0.5,0.1-0.5,0.5
			c0,2,0,4,0,6.1c0,0.4,0.1,0.5,0.5,0.5c1.2,0,2.3,0,3.5,0c0.1,0,0.1,0,0.2,0c0.1-0.1,0.3-0.2,0.3-0.2c0-0.1-0.1-0.3-0.3-0.3
			c-0.1-0.1-0.3,0-0.5,0C213.4,166.6,212.3,166.6,211.2,166.6z M122.2,162.9c0-0.2,0-0.3,0-0.5c0-0.5,0-1.1,0-1.6
			c0-0.2,0-0.5-0.3-0.5c-0.3,0-0.3,0.3-0.3,0.6c0,0.1,0,0.3,0,0.4c0,1.2,0,2.4,0,3.6c0,1.1-0.8,1.8-1.9,1.8c-1,0-1.7-0.8-1.7-1.8
			c0-1.2,0-2.5,0-3.7c0-0.2,0-0.4,0-0.5c0-0.2-0.1-0.3-0.3-0.3c-0.2,0-0.2,0.2-0.3,0.3c0,0.1,0,0.1,0,0.2c0,1.4,0,2.8,0,4.1
			c0,1.2,1.1,2.4,2.5,2.3c1.3-0.1,2.3-1,2.4-2.4C122.2,164.2,122.2,163.5,122.2,162.9z M167.1,160.8c0.3,0,0.5,0,0.6,0
			c0.8,0,1.7,0,2.5,0c0.1,0,0.3,0,0.4,0c0.1,0,0.2-0.2,0.2-0.3c0-0.1-0.1-0.2-0.2-0.3c-0.1,0-0.2,0-0.3,0c-1.1,0-2.2,0-3.3,0
			c-0.6,0-0.6,0-0.6,0.6c0,1.9,0,3.9,0,5.8c0,0.1,0,0.3,0,0.4c0,0.1,0.2,0.2,0.2,0.2c0.1,0,0.2-0.1,0.3-0.2c0.1-0.1,0-0.3,0-0.4
			c0-0.6,0-1.3,0-1.9c0-0.2,0-0.4,0.1-0.7c0.5,0,1,0,1.4,0c0.4,0,0.8,0,1.1,0c0.2,0,0.3-0.1,0.3-0.3c0-0.2-0.1-0.3-0.3-0.3
			c-0.5,0-1,0-1.5,0c-0.4,0-0.7,0-1.1,0C167.1,162.5,167.1,161.7,167.1,160.8z M173.9,160.8c0,0.3,0,0.5,0,0.8c0,1.6,0,3.3,0,4.9
			c0,0.2,0,0.3,0,0.5c0,0.1,0.2,0.2,0.3,0.2c0.1,0,0.2-0.1,0.3-0.2c0-0.1,0-0.3,0-0.5c0-1.7,0-3.3,0-5c0-0.2,0-0.4,0-0.7
			c0.7,0,1.2,0,1.8,0c0.2,0,0.4-0.1,0.4-0.3c0-0.2-0.2-0.3-0.4-0.3c-0.5,0-1,0-1.4,0c-0.9,0-1.8,0-2.8,0c-0.2,0-0.4,0-0.4,0.3
			c0,0.3,0.2,0.3,0.4,0.3c0.1,0,0.2,0,0.4,0C172.9,160.8,173.4,160.8,173.9,160.8z M89.2,160.8c0.6,0,1.1,0,1.6,0
			c0.2,0,0.5,0,0.5-0.3c0-0.4-0.3-0.3-0.6-0.3c-1.3,0-2.6,0-3.9,0c-0.2,0-0.5-0.1-0.5,0.3c0,0.3,0.3,0.3,0.5,0.3c0.3,0,0.7,0,1,0
			c0.2,0,0.4,0,0.6,0c0,0.2,0,0.4,0,0.6c0,1.7,0,3.4,0,5c0,0.2,0,0.3,0,0.5c0,0.1,0.2,0.2,0.3,0.2c0.1,0,0.2-0.1,0.2-0.2
			c0-0.1,0-0.3,0-0.5c0-1.7,0-3.4,0-5C89.2,161.3,89.2,161.1,89.2,160.8z M58.6,160.8c0.6,0,1.1,0,1.6,0c0.4,0,0.6-0.1,0.6-0.3
			c-0.1-0.3-0.4-0.3-0.6-0.3c-1.3,0-2.6,0-3.8,0c-0.1,0-0.2,0-0.3,0c-0.1,0.1-0.2,0.1-0.3,0.2c-0.1,0.2,0.1,0.3,0.3,0.3
			c0.2,0,0.4,0,0.6,0c0.4,0,0.9,0,1.3,0c0,0.3,0,0.5,0,0.7c0,1.6,0,3.3,0,4.9c0,0.2,0,0.3,0,0.5c0,0.1,0.2,0.2,0.3,0.2
			c0.1,0,0.2-0.1,0.3-0.2c0-0.1,0-0.3,0-0.5c0-1.7,0-3.3,0-5C58.6,161.3,58.6,161.1,58.6,160.8z M38.7,166.6c0-0.3,0-0.5,0-0.7
			c0-1.6,0-3.3,0-4.9c0-0.1,0-0.3,0-0.4c0-0.2-0.1-0.4-0.3-0.4c-0.2,0-0.3,0.1-0.3,0.4c0,0.1,0,0.2,0,0.3c0,1.9,0,3.8,0,5.7
			c0,0.1,0,0.3,0,0.4c0,0.1,0.2,0.3,0.3,0.3c1.2,0,2.4,0,3.5,0c0.1,0,0.2-0.2,0.2-0.3c0-0.1-0.1-0.2-0.3-0.3c-0.1-0.1-0.3,0-0.5,0
			C40.5,166.6,39.6,166.6,38.7,166.6z M28.9,163.7c0-0.9,0-1.8,0-2.8c0-0.1,0-0.3,0-0.4c-0.1-0.1-0.2-0.2-0.3-0.3
			c-0.1,0.1-0.2,0.2-0.3,0.3c0,0.1,0,0.2,0,0.3c0,1.9,0,3.8,0,5.8c0,0.1,0,0.3,0,0.4c0,0.1,0.2,0.2,0.3,0.2c0.1,0,0.2-0.1,0.3-0.2
			c0-0.1,0-0.3,0-0.4C28.9,165.6,28.9,164.7,28.9,163.7z M46.6,163.8c0-1,0-1.9,0-2.9c0-0.1,0-0.3,0-0.4c0-0.1-0.2-0.2-0.3-0.3
			c-0.1,0-0.2,0.1-0.3,0.2c-0.1,0.1,0,0.3,0,0.5c0,1.8,0,3.7,0,5.5c0,0.1,0,0.2,0,0.3c0,0.2,0,0.4,0.3,0.4c0.3,0,0.3-0.2,0.3-0.5
			c0-0.1,0-0.2,0-0.3C46.6,165.6,46.6,164.7,46.6,163.8z M262,163.7c0-0.9,0-1.8,0-2.8c0-0.1,0-0.2,0-0.4c0-0.2,0-0.4-0.3-0.4
			c-0.2,0-0.3,0.2-0.3,0.4c0,0.1,0,0.2,0,0.3c0,1.9,0,3.7,0,5.6c0,0.1,0,0.3,0,0.4c0.1,0.1,0.2,0.3,0.3,0.3c0.2,0.1,0.3-0.1,0.3-0.3
			c0-0.1,0-0.2,0-0.4C262,165.6,262,164.7,262,163.7z M232.7,163.7c0-0.1,0-0.3,0-0.4c0-0.9,0-1.7,0-2.6c0-0.2,0-0.4-0.3-0.5
			c-0.3,0-0.3,0.2-0.3,0.5c0,0,0,0,0,0.1c0,2,0,3.9,0,5.9c0,0.2-0.1,0.5,0.3,0.5c0.4,0,0.3-0.3,0.3-0.6
			C232.7,165.7,232.7,164.7,232.7,163.7z"/>
		<path class="st1" d="M156.8,52c0.2,0.1,0.4,0.2,0.7,0.2c1.4,0.5,2.2,2,1.8,3.4c-0.4,1.4-1.4,2.3-2.8,2.3c-0.2,0-0.4,0-0.5,0
			c-15.6,0-31.3,0-46.9,0c-0.8,0-1.6,0-2.5,0.1c-0.4,0-0.9,0.2-1.3,0.3c-4.5,1.1-7.8,3.8-9.8,8c-0.6,1.2-0.9,2.5-1.2,3.8
			c-0.2,0.9-0.1,1.9-0.1,2.9c0,0.5,0,1,0.1,1.5c0.1,0.4,0.2,0.9,0.3,1.3c1.2,4.5,4,7.7,8.1,9.7c1.1,0.5,2.2,0.8,3.4,1
			c0.8,0.2,1.7,0.1,2.5,0.1c15.9,0,31.7,0,47.6,0c0.9,0,1.8,0.2,2.4,0.9c1.5,1.5,0.9,4.2-1.1,4.9c-0.3,0.1-0.7,0.2-1.1,0.2
			c-0.8,0-1.6,0-2.3,0c-15.1,0-30.3,0-45.4,0c-1.1,0-2.1,0-3.2-0.1c-0.6-0.1-1.1-0.2-1.7-0.4c-6.3-1.6-10.8-5.3-13.7-11.1
			c-0.6-1.3-1.1-2.6-1.4-3.9c-0.2-0.8-0.3-1.6-0.5-2.4c-3.7,0-7.5,0-11.3,0c-0.5,0.8-1.1,1.6-1.8,2.2c-1.6,1.3-3.4,1.9-5.5,1.7
			c-3-0.2-5.1-1.8-6.4-4.4c-0.6-1.2-0.8-2.5-0.7-3.9c0.3-2.9,1.8-4.9,4.3-6.2c1.2-0.6,2.5-0.9,3.8-0.8c2.3,0.2,4.2,1.1,5.6,2.9
			c0.5,0.6,0.9,1.3,1.1,2.1c0,0.1,0.2,0.2,0.3,0.3c0.1,0,0.2,0,0.3,0c3.4,0,6.9,0,10.3,0c0.1,0,0.1,0,0.2,0c0.1-0.5,0.3-1,0.4-1.5
			c0.3-1.3,0.8-2.6,1.4-3.8c0.9-1.8,2.1-3.5,3.5-5c2-2.1,4.3-3.7,7-4.8c1.3-0.5,2.6-0.9,3.9-1.2c0.6-0.1,1.2-0.2,1.8-0.3
			c0,0,0.1-0.1,0.1-0.1c0.2,0,0.3,0,0.5,0c0.4,0.3,0.7,0.1,1.1,0C124.3,52,140.6,52,156.8,52z"/>
		<path class="st2" d="M108,52c-0.4,0.1-0.7,0.3-1.1,0C107.3,52,107.7,52,108,52z"/>
		<path class="st1" d="M176.6,86.7c0.2,0,0.3,0,0.5,0c3.9,0,7.8,0,11.7,0c1.7-4,5.3-5.4,8.5-4.9c3.8,0.7,6.3,3.6,6.4,7.4
			c0.1,3.3-1.8,6.4-5.4,7.5c-3.4,1.1-7.2-0.3-9.2-4c-4.2,0-8.4,0-12.7,0c-0.1,0.2-0.1,0.5-0.2,0.7c-0.3,1.2-0.7,2.3-1.1,3.4
			c-0.8,2-1.9,3.8-3.3,5.5c-2.2,2.5-4.8,4.4-7.9,5.6c-1.1,0.4-2.3,0.8-3.5,1.1c-1.3,0.2-2.6,0.4-3.9,0.4c-15.9,0-31.8,0-47.7,0
			c-0.4,0-0.8,0-1.2-0.1c-1.3-0.4-2.2-1.6-2.1-3.2c0.1-1.5,1.5-2.7,2.9-2.7c0.3,0,0.5,0,0.8,0c15.8,0,31.5,0.1,47.3,0
			c6.1,0,10.5-3,13.1-8.5c0.5-1,0.8-2.1,1-3.2c0.2-1.3,0.3-2.6,0.2-3.9c-0.2-1.3-0.4-2.5-0.9-3.7c-1.3-3.5-3.6-6-6.9-7.7
			c-1.2-0.7-2.6-1.1-4-1.3c-0.9-0.1-1.7-0.2-2.6-0.2c-15.8,0-31.7,0-47.5,0c-0.6,0-1.1,0-1.7-0.3c-0.7-0.4-1.3-0.9-1.6-1.7
			c-0.7-2.2,0.9-4,2.8-4c0.9,0,1.9,0,2.8,0c15.1,0,30.2,0,45.3,0c0.7,0,1.4,0,2.1,0.2c0.5,0.1,1.1,0.2,1.7,0.2c1,0.1,2,0.4,2.9,0.8
			c5.6,2.1,9.6,5.9,12,11.4c0.6,1.3,1,2.7,1.2,4.1c0.1,0.4,0.1,0.8,0.1,1.2C176.6,86.6,176.6,86.6,176.6,86.7z"/>
		<path class="st3" d="M18.1,151.8c-4.4,0-8.8,0-13.1,0c-0.7,0-1.3-0.2-1.8-0.7c-0.6-0.6-0.7-1.4-0.4-2.1c0.3-0.8,0.8-1.2,1.6-1.4
			c0.3,0,0.6-0.1,0.9-0.1c8.6,0,17.2,0,25.8,0c0.2,0,0.4,0,0.6,0c0.8-0.1,1.3-0.6,1.4-1.4c0.1-0.7-0.3-1.4-1-1.6
			c-0.3-0.1-0.6-0.2-1-0.2c-7.9,0-15.8,0-23.7,0c-0.8,0-1.6-0.1-2.3-0.3c-0.6-0.2-1.1-0.6-1.6-1c-0.9-0.7-1.6-1.6-1.9-2.7
			c-1.1-3.9,1.4-6.8,4.2-7.5c0.5-0.1,0.9-0.2,1.4-0.2c8.8,0,17.6,0,26.4,0c1.3,0,2.2,0.9,2.3,1.9c0.1,1.2-0.7,2.2-1.9,2.3
			c-0.2,0-0.5,0-0.7,0c-8.6,0-17.3,0-25.9,0c-0.7,0-1.2,0.2-1.7,0.7c-0.4,0.5-0.4,1-0.2,1.5c0.2,0.6,0.7,1,1.4,1.1
			c0.2,0,0.4,0,0.6,0c7.9,0,15.7,0,23.6,0c1.8,0,3.3,0.5,4.5,1.9c1.5,1.7,2,3.6,1.3,5.8c-0.7,2.1-2.2,3.5-4.3,3.9
			c-0.5,0.1-1,0.1-1.5,0.1C26.8,151.8,22.5,151.8,18.1,151.8z"/>
		<path class="st3" d="M127.1,132.7c4.4,0,8.7,0,13.1,0c0.4,0,0.8,0.1,1.2,0.2c0.9,0.3,1.5,1.6,1.2,2.5c-0.4,1.1-1,1.5-2.3,1.5
			c-8.7,0-17.4,0-26,0c-0.4,0-0.9,0-1.3,0.3c-0.6,0.4-0.9,1-0.7,1.7c0.1,0.6,0.8,1.2,1.5,1.2c0.2,0,0.4,0,0.6,0c7.9,0,15.7,0,23.6,0
			c1.3,0,2.6,0.3,3.7,1.1c1.1,0.8,1.8,1.8,2.2,3c1,3.1-0.8,6.5-3.8,7.3c-0.6,0.2-1.3,0.3-1.9,0.3c-8.8,0-17.5,0-26.3,0
			c-0.3,0-0.7,0-1-0.2c-0.9-0.3-1.4-1.2-1.3-2.1c0.1-1,0.8-1.7,1.7-1.9c0.3,0,0.6-0.1,0.9-0.1c8.6,0,17.3,0,25.9,0
			c0.3,0,0.5,0,0.8,0c0.6-0.1,1.2-0.8,1.2-1.5c0-0.6-0.4-1.4-1-1.5c-0.3-0.1-0.7-0.2-1-0.2c-7.8,0-15.6,0-23.3,0
			c-0.9,0-1.7,0-2.5-0.3c-0.3-0.1-0.6-0.3-0.9-0.4c-1.3-0.7-2.2-1.8-2.7-3.2c-1.2-3.8,1.2-6.8,4-7.5c0.6-0.1,1.2-0.2,1.8-0.2
			C118.5,132.6,122.8,132.7,127.1,132.7z"/>
		<path class="st4" d="M83.6,136.9c-4.1,0-8.1,0-12.2,0c-1.1,0-2.2,0.2-3.1,1c-0.7,0.6-1.3,1.3-1.5,2.2c-0.3,0.9-0.3,1.8-0.3,2.7
			c0,0.6,0.1,1.1,0.3,1.7c0.4,1.3,1.3,2.1,2.4,2.8c0.4,0.2,0.9,0.2,1.3,0.3c0.3,0,0.6,0,0.8,0c7,0,14,0,20.9,0c0.6,0,1-0.2,1.4-0.6
			c0.3-0.4,0.3-1.7-0.1-2.2c-0.2-0.2-0.5-0.4-0.8-0.4c-0.2,0-0.4,0-0.6,0c-5.2,0-10.5,0-15.7,0c-0.2,0-0.4,0-0.7,0
			c-1.1-0.1-1.8-0.9-1.9-2c-0.1-1.1,0.6-2,1.7-2.2c0.2,0,0.4-0.1,0.7-0.1c5.5,0,10.9,0,16.4,0c1.9,0,3.4,0.7,4.5,2.3
			c0.5,0.7,0.8,1.5,0.9,2.4c0.1,0.9,0.1,1.8,0,2.6c-0.4,2.9-2.8,4.4-5.2,4.4c-0.9,0-1.7,0-2.6,0c-6.7,0-13.3,0-20,0
			c-2.1,0-3.8-0.8-5.2-2.3c-1.2-1.3-2-2.8-2.4-4.5c-0.5-1.9-0.5-3.9,0.1-5.8c0.6-2.2,1.8-4,3.7-5.4c1.2-0.8,2.5-1.2,3.9-1.2
			c2.7,0,5.4,0,8.2,0c5.7,0,11.4,0,17.2,0c0.7,0,1.3,0.2,1.8,0.7c0.6,0.7,0.6,1.6,0.3,2.4c-0.3,0.7-0.9,1.1-1.7,1.1
			c-0.2,0-0.4,0-0.6,0C91.5,136.9,87.6,136.9,83.6,136.9z"/>
		<path class="st4" d="M170.8,151.8c-3.1,0-6.2,0-9.4,0c-2.8,0.1-4.8-1.2-6.4-3.3c-0.8-1.1-1.3-2.4-1.7-3.8c-0.4-1.3-0.4-2.7-0.2-4
			c0.5-2.9,1.8-5.5,4.4-7.1c0.8-0.5,1.7-0.9,2.7-0.9c0.8,0,1.6-0.1,2.4-0.1c6,0,11.9,0,17.9,0c2.4,0,4.2,0.9,5.7,2.6
			c1.3,1.5,2.1,3.3,2.4,5.2c0.3,1.5,0.2,3-0.2,4.5c-0.6,2.1-1.6,4-3.4,5.4c-1.3,1-2.7,1.5-4.4,1.5
			C177.3,151.8,174.1,151.8,170.8,151.8z M170.9,147.6c2.3,0,4.6,0,6.8,0c0.9,0,1.8,0,2.6,0c2-0.1,3.6-1.5,4.1-3.5
			c0.3-1.1,0.3-2.2,0.1-3.3c-0.3-1.3-0.8-2.4-2-3.1c-0.9-0.6-1.9-0.8-2.9-0.8c-5.6,0-11.2,0-16.8,0c-0.6,0-1.3,0-1.9,0.1
			c-1.6,0.2-3.1,1.5-3.5,3.2c-0.3,1-0.3,1.9-0.2,2.9c0.1,1,0.4,2,1,2.8c0.5,0.7,1.2,1.2,2,1.5c0.5,0.2,1.2,0.2,1.8,0.2
			C165,147.6,167.9,147.6,170.9,147.6z"/>
		<path class="st4" d="M259.8,136.9c-0.3,0-0.5,0-0.8,0c-4.5,0-8.9,0-13.4,0c-0.7,0-1.3-0.2-1.8-0.7c-0.6-0.6-0.7-1.6-0.3-2.4
			c0.4-0.7,0.9-1,1.7-1.1c0.1,0,0.2,0,0.4,0c10,0,19.9,0,29.9,0c0.7,0,1.2,0.2,1.7,0.7c0.6,0.6,0.8,1.4,0.5,2.2
			c-0.3,0.8-0.9,1.3-1.8,1.4c-0.2,0-0.4,0-0.5,0c-2.7,0-5.3,0-8,0c-1.3,0-2.4,0.4-3.3,1.3c-0.8,0.8-1.2,1.8-1.2,2.9
			c-0.1,2.8-0.1,5.6-0.1,8.3c0,0.3,0,0.6-0.1,0.9c-0.4,1.3-2.1,1.9-3.2,1c-0.6-0.4-0.9-1-0.9-1.7c0-2.7,0-5.3,0-8
			c0-1.3,0.4-2.6,0.8-3.8C259.3,137.6,259.5,137.3,259.8,136.9z"/>
		<path class="st4" d="M218.4,132.7c4.2,0,8.3,0,12.5,0c0.4,0,0.8,0.1,1.2,0.2c0.9,0.4,1.4,1.4,1.2,2.3c-0.2,1-0.9,1.7-1.9,1.7
			c-0.2,0-0.4,0-0.7,0c-7.8,0-15.7,0-23.5,0c-0.8,0-1.6,0.1-2.3,0.4c-1.3,0.6-2,1.6-2.4,3c-0.2,0.7-0.2,1.5-0.2,2.2
			c0,2.4,0,4.8,0,7.2c0,0.9-0.4,1.6-1.2,1.9c-1.5,0.7-2.9-0.4-3-1.8c0-0.1,0-0.3,0-0.4c0-2.8,0-5.6,0-8.3c0-0.7,0.3-1.4,0.5-2
			c0.6-2,1.7-3.6,3.3-4.9c1.3-1,2.7-1.5,4.3-1.5C210.2,132.7,214.3,132.7,218.4,132.7z"/>
		<path class="st3" d="M218.8,144.3c-3.6,0-7.2,0-10.9,0c-0.2,0-0.5,0-0.7,0c-1,0-2-1.2-1.9-2.4c0.1-1.1,1.2-1.8,2-1.8
			c0.2,0,0.4,0,0.5,0c7.3,0,14.6,0,21.9,0c0.3,0,0.6,0,0.9,0.1c1,0.2,1.6,1.2,1.6,2.2c0,1-0.8,1.9-1.8,2c-0.2,0-0.5,0-0.7,0
			C226.1,144.4,222.4,144.3,218.8,144.3z"/>
		<path class="st4" d="M48,142.2c0-2.5,0-4.9,0-7.4c0-1,0.6-1.8,1.6-2.1c1.3-0.4,2.6,0.6,2.6,2c0,1.7,0,3.4,0,5.1c0,3.3,0,6.5,0,9.8
			c0,0.9-0.3,1.6-1.2,2c-1.5,0.7-3-0.4-3-1.9C48,147.2,48,144.7,48,142.2z"/>
		<path class="st5" d="M180.1,166c0.2-0.5,0.4-1,0.5-1.4c0.4-1.2,0.8-2.4,1.2-3.6c0-0.1,0.1-0.2,0.1-0.2c0.1-0.2,0.1-0.6,0.4-0.6
			c0.4,0,0.4,0.3,0.4,0.6c0.2,0.6,0.4,1.1,0.6,1.7c0.3,1,0.7,1.9,1,2.9c0.1,0.2,0.1,0.3,0.2,0.6c0.4-1.2,0.8-2.2,1.1-3.3
			c0.2-0.7,0.5-1.4,0.7-2c0.1-0.2,0.1-0.5,0.5-0.4c0.2,0,0.3,0.2,0.1,0.7c-0.7,2-1.4,3.9-2.1,5.9c0,0.1-0.1,0.2-0.1,0.3
			c-0.1,0.3-0.4,0.3-0.6,0c-0.1-0.1-0.1-0.3-0.2-0.4c-0.5-1.5-1-3-1.6-4.5c-0.1-0.2-0.2-0.4-0.3-0.7c-0.3,0.9-0.6,1.7-0.9,2.5
			c-0.3,0.9-0.6,1.8-0.9,2.7c0,0.1-0.1,0.3-0.2,0.4c-0.1,0.2-0.4,0.2-0.5,0c-0.1-0.1-0.1-0.2-0.1-0.3c-0.7-1.9-1.4-3.9-2-5.8
			c-0.1-0.2-0.3-0.5,0.1-0.7c0.2-0.1,0.3,0,0.5,0.5c0.6,1.6,1.1,3.1,1.6,4.7C179.9,165.5,180,165.7,180.1,166z"/>
		<path class="st5" d="M229.5,163.9c-0.7,0-1.4,0-2,0c-0.1,0-0.3,0-0.4,0c-0.1-0.1-0.2-0.2-0.3-0.3c0-0.1,0.1-0.2,0.3-0.3
			c0.1,0,0.2,0,0.2,0c0.8,0,1.6,0,2.3,0c0.4,0,0.5,0.1,0.5,0.5c0,1,0,1.9,0,2.9c0,0.2,0.1,0.5-0.2,0.6c-0.3,0.1-0.4-0.2-0.5-0.4
			c-0.6,0.3-1.2,0.5-1.9,0.4c-1.5,0-2.5-0.7-3.1-2c-0.6-1.3-0.5-2.5,0.4-3.7c1.1-1.4,3.1-1.8,4.6-0.8c0.2,0.1,0.5,0.3,0.4,0.6
			c-0.2,0.3-0.4,0.1-0.7,0c-1-0.6-2-0.6-3-0.1c-1,0.6-1.5,1.4-1.5,2.6c0,1.1,0.5,2,1.5,2.5c0.9,0.5,1.9,0.5,2.9,0
			c0.3-0.2,0.5-0.4,0.4-0.8C229.4,165,229.5,164.4,229.5,163.9z"/>
		<path class="st5" d="M277,163.9c-0.7,0-1.4,0-2,0c-0.2,0-0.3,0-0.5,0c-0.1,0-0.2-0.2-0.2-0.3c0-0.1,0.1-0.2,0.2-0.3
			c0.1,0,0.2,0,0.2,0c0.8,0,1.6,0,2.3,0c0.5,0,0.5,0.1,0.5,0.5c0,1,0,2,0,2.9c0,0.1,0,0.1,0,0.2c-0.1,0.1-0.1,0.3-0.2,0.3
			c-0.1,0-0.2-0.1-0.3-0.2c-0.1,0-0.1-0.1-0.1-0.2c-0.6,0.2-1.2,0.4-1.8,0.4c-1.6,0-2.9-1.1-3.3-2.4c-0.5-1.4,0-3,1.2-3.9
			c1.2-0.9,2.5-1,3.8-0.3c0.1,0.1,0.2,0.1,0.4,0.2c0.2,0.1,0.4,0.3,0.2,0.5c-0.1,0.2-0.4,0.1-0.5,0c-0.5-0.4-1.1-0.5-1.8-0.5
			c-1.5,0.1-2.8,1.4-2.8,2.9c0,1.6,1.3,2.8,2.8,2.9c0.6,0,1.2-0.1,1.7-0.5c0.2-0.1,0.3-0.3,0.3-0.5C276.9,165.1,277,164.5,277,163.9
			z"/>
		<path class="st5" d="M100.1,163.9c-0.7,0-1.3,0-2,0c-0.2,0-0.3,0-0.5,0c-0.1,0-0.3-0.2-0.3-0.3c0-0.1,0.2-0.2,0.3-0.3
			c0,0,0,0,0.1,0c0.9,0,1.8,0,2.6,0c0.2,0,0.4,0.2,0.4,0.4c0,1.1,0,2.2,0,3.2c0,0.2-0.1,0.3-0.3,0.3c-0.3,0-0.3-0.2-0.4-0.5
			c-0.6,0.3-1.2,0.4-1.8,0.5c-1.7,0.1-3.5-1.4-3.6-3.5c0-1.4,0.6-2.4,1.8-3.1c1.2-0.7,2.4-0.6,3.6,0.1c0.1,0.1,0.2,0.1,0.3,0.3
			c0.1,0.1,0.1,0.3,0,0.3c-0.1,0.1-0.2,0.2-0.3,0.1c-0.1,0-0.3-0.2-0.4-0.2c-1.1-0.6-2.1-0.6-3.1,0.1c-1,0.7-1.4,1.7-1.2,2.9
			c0.2,1.2,1,2,2.1,2.3c0.8,0.2,1.6,0.1,2.3-0.4c0.2-0.1,0.3-0.3,0.3-0.5C100.1,165.1,100.1,164.5,100.1,163.9z"/>
		<path class="st5" d="M161.1,167.2c-1.8,0.1-3.5-1.6-3.5-3.5c0-1.9,1.7-3.6,3.5-3.6c1.7,0,3.5,1.4,3.5,3.6
			C164.6,165.9,162.7,167.4,161.1,167.2z M161,166.6c1.4,0.1,3-1.1,3-2.9c0-1.6-1.3-2.8-2.8-2.9c-1.6-0.1-3,1.3-3,2.9
			C158.2,165.3,159.4,166.6,161,166.6z"/>
		<path class="st5" d="M136.4,167.2c-1.7,0.1-3.5-1.4-3.5-3.5c0-2,1.8-3.5,3.5-3.5c1.8,0,3.5,1.6,3.5,3.6
			C140,165.6,138.3,167.4,136.4,167.2z M136.5,160.8c-1.5-0.1-2.9,1.3-2.9,2.9c0,1.6,1.2,2.9,2.9,2.9c1.5,0.1,3-1.4,3-2.9
			C139.3,162.1,138.1,160.8,136.5,160.8z"/>
		<path class="st5" d="M112.1,167.2c-1.7,0.1-3.5-1.4-3.5-3.5c0-2.1,1.8-3.5,3.5-3.5c1.8,0,3.5,1.6,3.5,3.6
			C115.6,165.6,113.9,167.4,112.1,167.2z M112.1,160.8c-1.6,0-2.9,1.2-2.9,2.9c0,1.6,1.2,2.9,2.9,2.9c1.5,0.1,3-1.4,3-2.9
			C115,162.2,113.5,160.7,112.1,160.8z"/>
		<path class="st6" d="M53.8,165.7c0-1.6,0-3.2,0-4.8c0-0.2,0-0.3,0-0.5c0-0.1,0.1-0.2,0.2-0.2c0.1,0,0.2,0.1,0.3,0.2
			c0.1,0.1,0,0.2,0,0.4c0,2,0,3.9,0,5.9c0,0.1,0,0.2,0,0.3c-0.1,0.3-0.3,0.3-0.5,0.2c-0.1-0.1-0.2-0.2-0.3-0.4
			c-1.2-1.6-2.4-3.2-3.7-4.7c-0.1-0.2-0.2-0.3-0.4-0.5c0,0.2-0.1,0.4-0.1,0.5c0,1.5,0,3,0,4.5c0,0.2,0,0.3,0,0.5
			c0,0.1-0.2,0.2-0.3,0.2c-0.1,0-0.2-0.1-0.2-0.2c0-0.1,0-0.2,0-0.4c0-1.9,0-3.9,0-5.8c0-0.1,0-0.1,0-0.2c0.1-0.1,0.1-0.3,0.2-0.4
			c0.2-0.1,0.3,0,0.4,0.2c0.5,0.7,1.1,1.4,1.6,2c0.9,1.1,1.7,2.2,2.6,3.3c0.1,0.1,0.1,0.1,0.2,0.2C53.7,165.9,53.8,165.8,53.8,165.7
			z"/>
		<path class="st6" d="M146.8,165.7c0-1.6,0-3.2,0-4.8c0-0.2,0-0.3,0-0.5c0-0.1,0.1-0.2,0.2-0.2c0.1,0,0.2,0.1,0.3,0.2
			c0.1,0.1,0,0.2,0,0.4c0,2,0,3.9,0,5.9c0,0.1,0,0.2,0,0.3c-0.1,0.3-0.3,0.3-0.5,0.2c-0.1-0.1-0.2-0.2-0.3-0.4
			c-1.2-1.6-2.4-3.2-3.7-4.7c-0.1-0.2-0.2-0.3-0.4-0.5c0,0.2-0.1,0.4-0.1,0.5c0,1.5,0,3,0,4.5c0,0.2,0,0.3,0,0.5
			c0,0.1-0.2,0.2-0.3,0.2c-0.1,0-0.2-0.1-0.2-0.2c0-0.1,0-0.2,0-0.4c0-1.9,0-3.9,0-5.8c0-0.1,0-0.1,0-0.2c0.1-0.1,0.1-0.3,0.2-0.4
			c0.2-0.1,0.3,0,0.4,0.2c0.5,0.7,1.1,1.4,1.6,2c0.9,1.1,1.7,2.2,2.6,3.3c0.1,0.1,0.1,0.1,0.2,0.2
			C146.8,165.9,146.8,165.8,146.8,165.7z"/>
		<path class="st6" d="M269.2,165.7c0-1.6,0-3.2,0-4.8c0-0.2,0-0.3,0-0.5c0-0.1,0.1-0.2,0.2-0.2c0.1,0,0.3,0.1,0.3,0.2
			c0.1,0.1,0,0.3,0,0.4c0,1.9,0,3.9,0,5.8c0,0.1,0,0.2,0,0.3c-0.1,0.3-0.3,0.3-0.5,0.2c-0.1-0.1-0.2-0.2-0.3-0.4
			c-1.2-1.6-2.4-3.2-3.7-4.7c-0.1-0.2-0.2-0.3-0.4-0.5c0,0.2-0.1,0.4-0.1,0.5c0,1.5,0,3,0,4.5c0,0.2,0,0.3,0,0.5
			c0,0.1-0.2,0.2-0.3,0.2c-0.1,0-0.2-0.1-0.2-0.2c0-0.1,0-0.2,0-0.4c0-1.9,0-3.9,0-5.8c0-0.1,0-0.1,0-0.2c0.1-0.1,0.1-0.3,0.2-0.4
			c0.2-0.1,0.3,0,0.4,0.2c0.5,0.7,1.1,1.4,1.6,2c0.9,1.1,1.7,2.2,2.6,3.3c0.1,0.1,0.1,0.1,0.2,0.2
			C269.2,165.9,269.2,165.8,269.2,165.7z"/>
		<path class="st6" d="M221.8,165.9c0-1.6,0-3.3,0-4.9c0-0.2,0-0.3,0-0.5c0-0.2,0.1-0.3,0.3-0.3c0.1,0,0.2,0.2,0.3,0.3
			c0,0.1,0,0.2,0,0.4c0,1.9,0,3.8,0,5.7c0,0,0,0.1,0,0.1c-0.1,0.2-0.1,0.4-0.2,0.5c-0.2,0.1-0.4-0.1-0.5-0.2
			c-1.1-1.4-2.1-2.7-3.2-4.1c-0.4-0.5-0.7-0.9-1.1-1.3c0,0,0,0-0.1-0.1c0,0,0,0.1,0,0.1c0,1.6,0,3.3,0,4.9c0,0.2,0,0.3,0,0.5
			c0,0.1-0.1,0.2-0.2,0.2c-0.1,0-0.2-0.1-0.3-0.2c-0.1-0.1,0-0.2,0-0.4c0-2,0-3.9,0-5.9c0-0.1,0-0.2,0-0.3c0.1-0.2,0.3-0.3,0.5-0.1
			c0.1,0.1,0.1,0.1,0.2,0.2c1.4,1.8,2.8,3.6,4.2,5.4C221.7,165.9,221.7,165.9,221.8,165.9z"/>
		<path class="st6" d="M240,165.9c0-1.6,0-3.3,0-4.9c0-0.2,0-0.3,0-0.5c0-0.2,0.1-0.3,0.3-0.3c0.1,0,0.2,0.2,0.3,0.3
			c0,0.1,0,0.2,0,0.4c0,1.9,0,3.8,0,5.7c0,0,0,0.1,0,0.1c-0.1,0.2-0.1,0.4-0.2,0.5c-0.2,0.1-0.4-0.1-0.5-0.2
			c-1.1-1.4-2.1-2.7-3.2-4.1c-0.4-0.5-0.7-0.9-1.1-1.3c0,0,0,0-0.1-0.1c0,0,0,0.1,0,0.1c0,1.6,0,3.3,0,4.9c0,0.2,0,0.3,0,0.5
			c0,0.1-0.1,0.2-0.2,0.2c-0.1,0-0.2-0.1-0.3-0.2c-0.1-0.1,0-0.2,0-0.4c0-2,0-3.9,0-5.9c0-0.1,0-0.2,0-0.3c0.1-0.2,0.3-0.3,0.5-0.1
			c0.1,0.1,0.1,0.1,0.2,0.2c1.4,1.8,2.8,3.6,4.2,5.4C239.9,165.9,239.9,165.9,240,165.9z"/>
		<path class="st6" d="M257.9,164c0.3,0.6,0.6,1.2,0.9,1.8c0.1,0.3,0.2,0.5,0.4,0.8c0.1,0.2,0.2,0.4-0.1,0.6
			c-0.2,0.1-0.4-0.1-0.5-0.3c-0.1-0.2-0.2-0.4-0.3-0.6c-0.4-0.8-0.7-1.5-1.1-2.2c-0.5,0-1,0-1.6,0c0,0.2-0.1,0.4-0.1,0.5
			c0,0.7,0,1.3,0,2c0,0.1,0,0.3,0,0.4c0,0.1-0.1,0.2-0.2,0.2c-0.1,0-0.2-0.1-0.3-0.1c-0.1-0.1-0.1-0.3-0.1-0.4c0-1.9,0-3.8,0-5.7
			c0-0.1,0-0.2,0-0.4c0-0.2,0.1-0.3,0.3-0.3c0.9,0,1.8,0,2.6,0c0.8,0.1,1.5,0.8,1.6,1.7c0.1,0.8-0.3,1.5-1.1,1.9
			C258.3,163.9,258.1,164,257.9,164z M255.6,160.8c0,0.9,0,1.7,0,2.5c0.7,0,1.4,0,2.1,0c0.7,0,1.2-0.6,1.3-1.2
			c0-0.7-0.5-1.3-1.2-1.3C257.1,160.8,256.4,160.8,255.6,160.8z"/>
		<path class="st6" d="M104.9,164c-0.5,0-1,0-1.6,0c0,0.2,0,0.4,0,0.6c0,0.7,0,1.4,0,2c0,0.2,0,0.5-0.3,0.5c-0.3,0-0.3-0.3-0.3-0.5
			c0-0.5,0-1.1,0-1.6c0-1.4,0-2.8,0-4.3c0-0.6,0-0.6,0.6-0.6c0.7,0,1.4,0,2.2,0c1.2,0.1,2,1.2,1.8,2.3c-0.1,0.6-0.5,1-1,1.3
			c-0.2,0.1-0.3,0.1-0.5,0.2c0.1,0.1,0.1,0.3,0.2,0.4c0.3,0.7,0.7,1.3,1,2c0.1,0.1,0.1,0.2,0.1,0.3c0,0.1,0,0.3-0.1,0.4
			c-0.2,0.1-0.3,0-0.4-0.2c-0.3-0.6-0.6-1.1-0.9-1.7C105.3,164.9,105.1,164.4,104.9,164z M103.3,160.8c0,0.9,0,1.7,0,2.6
			c0.7,0,1.4,0,2.1,0c0.7,0,1.3-0.6,1.3-1.3c0-0.7-0.5-1.2-1.2-1.3C104.7,160.8,104,160.8,103.3,160.8z"/>
		<path class="st7" d="M71.2,164c0.2,0.4,0.3,0.7,0.5,1c0.3,0.6,0.5,1.1,0.8,1.7c0.1,0.2,0.1,0.4-0.1,0.5c-0.2,0.1-0.3,0-0.4-0.2
			c-0.4-0.8-0.8-1.6-1.2-2.4c-0.2-0.4-0.4-0.6-0.9-0.6c-0.3,0-0.6,0-0.9,0c0,0.2,0,0.3-0.1,0.5c0,0.7,0,1.4,0,2.1c0,0.1,0,0.3,0,0.4
			c0,0.1-0.2,0.2-0.3,0.2c-0.1,0-0.2-0.1-0.3-0.2c0-0.1,0-0.2,0-0.4c0-1.9,0-3.9,0-5.8c0-0.5,0-0.6,0.6-0.6c0.7,0,1.4,0,2.2,0
			c1.1,0.1,1.9,0.9,1.8,2c0,0.7-0.4,1.2-1,1.6C71.7,163.9,71.5,163.9,71.2,164z M68.9,163.4c0.8,0,1.5,0,2.2,0
			c0.6,0,1.1-0.6,1.1-1.2c0-0.6-0.5-1.2-1.1-1.3c-0.7-0.1-1.5,0-2.2,0C68.9,161.7,68.9,162.5,68.9,163.4z"/>
		<path class="st7" d="M198.6,164c0.3,0.7,0.7,1.3,1,2c0.1,0.3,0.2,0.5,0.4,0.8c0.1,0.2,0.1,0.3-0.1,0.4c-0.1,0-0.3,0-0.4-0.1
			c-0.1-0.1-0.2-0.3-0.2-0.4c-0.4-0.7-0.7-1.5-1.1-2.2c-0.1-0.3-0.3-0.4-0.6-0.4c-0.4,0-0.7,0-1.1,0c0,0.2-0.1,0.3-0.1,0.5
			c0,0.7,0,1.4,0,2.1c0,0.1,0,0.3,0,0.4c0,0.1-0.2,0.2-0.3,0.2c-0.1,0-0.2-0.1-0.3-0.2c-0.1-0.1,0-0.3,0-0.4c0-1.9,0-3.8,0-5.7
			c0-0.6,0-0.6,0.6-0.6c0.7,0,1.4,0,2.2,0c1.1,0.1,1.9,0.9,1.8,2c0,0.8-0.5,1.3-1.1,1.6C199,163.9,198.8,163.9,198.6,164z
			 M196.3,160.8c0,0.9,0,1.7,0,2.6c0.7,0,1.3,0,2,0c0.8,0,1.3-0.6,1.3-1.2c0-0.7-0.6-1.3-1.3-1.3
			C197.7,160.8,197.1,160.8,196.3,160.8z"/>
		<path class="st7" d="M35.4,165.6c-1.2,0-2.4,0-3.6,0c-0.1,0.3-0.3,0.7-0.4,1c-0.1,0.1-0.1,0.3-0.2,0.4c-0.1,0.1-0.3,0.1-0.4,0.1
			c-0.1,0-0.1-0.2-0.1-0.3c0-0.1,0.1-0.3,0.1-0.4c0.8-1.9,1.6-3.9,2.4-5.8c0-0.1,0.1-0.2,0.2-0.3c0.1-0.2,0.4-0.2,0.5,0
			c0.1,0.1,0.1,0.2,0.2,0.3c0.8,1.9,1.6,3.9,2.4,5.8c0,0.1,0.1,0.2,0.1,0.3c0,0.1,0,0.3-0.1,0.4c-0.1,0.1-0.3,0-0.4-0.1
			c-0.1-0.1-0.1-0.3-0.2-0.4C35.7,166.4,35.5,166,35.4,165.6z M33.7,161.5c0,0-0.1,0-0.1,0c-0.5,1.2-1,2.3-1.4,3.5c1,0,2,0,3,0
			C34.6,163.8,34.1,162.6,33.7,161.5z"/>
		<path class="st7" d="M189.4,165.6c-0.2,0.4-0.3,0.8-0.5,1.1c-0.1,0.1-0.1,0.3-0.2,0.4c-0.1,0.1-0.3,0.1-0.4,0.1
			c-0.1,0-0.1-0.2-0.1-0.3c0-0.1,0.1-0.3,0.1-0.4c0.8-1.9,1.6-3.9,2.4-5.8c0-0.1,0.1-0.2,0.2-0.3c0.1-0.2,0.4-0.2,0.5,0
			c0.1,0.1,0.1,0.2,0.2,0.3c0.8,1.9,1.6,3.9,2.4,5.8c0,0.1,0.1,0.2,0.1,0.3c0,0.1-0.1,0.3-0.1,0.3c-0.1,0-0.3,0-0.4-0.1
			c-0.2-0.3-0.3-0.6-0.4-0.9c-0.1-0.4-0.3-0.5-0.7-0.5C191.5,165.6,190.5,165.6,189.4,165.6z M189.7,165c0.6,0,1.1,0,1.5,0
			c0.5,0,1,0,1.5,0c-0.5-1.2-1-2.4-1.5-3.7C190.7,162.6,190.2,163.8,189.7,165z"/>
		<path class="st5" d="M82.8,167.2c-0.7,0-1.3-0.1-1.7-0.6c-0.2-0.2-0.3-0.4-0.4-0.6c-0.1-0.2-0.1-0.4,0.1-0.5
			c0.2-0.1,0.3,0,0.4,0.2c0.5,0.8,1.2,1.1,2.1,0.9c0.5-0.1,0.8-0.4,1.1-0.8c0.3-0.7,0.1-1.4-0.6-1.6c-0.4-0.1-0.8-0.1-1.2-0.2
			c-0.3,0-0.6-0.1-0.8-0.2c-1.1-0.5-1.4-1.6-0.8-2.6c0.9-1.5,3.1-1.1,3.9-0.2c0.1,0.2,0.2,0.3,0.3,0.5c0.1,0.2,0.1,0.4-0.1,0.5
			c-0.2,0.1-0.3,0-0.4-0.2c-0.3-0.8-1-1-1.8-0.9c-0.7,0-1.4,0.5-1.6,1.2c-0.1,0.4,0.1,0.8,0.4,1c0.2,0.2,0.5,0.3,0.8,0.4
			c0.3,0.1,0.6,0.1,1,0.1c1.1,0.1,1.8,0.8,1.8,1.8c0,1-0.8,1.9-1.8,2C83.1,167.2,83,167.2,82.8,167.2z"/>
		<path class="st5" d="M153.9,167.2c-0.5,0-1.1-0.1-1.5-0.5c-0.3-0.2-0.5-0.5-0.6-0.8c-0.1-0.2-0.1-0.4,0.1-0.5
			c0.2-0.1,0.3,0,0.4,0.2c0.4,0.8,1.1,1,1.8,0.9c0.3,0,0.6-0.1,0.8-0.3c0.5-0.3,0.7-0.9,0.6-1.3c-0.2-0.5-0.6-0.8-1.1-0.9
			c-0.3-0.1-0.7-0.1-1-0.1c-1-0.1-1.7-0.7-1.7-1.6c-0.1-1,0.6-1.9,1.6-2.1c0.8-0.2,1.6-0.1,2.2,0.4c0.3,0.2,0.5,0.5,0.6,0.8
			c0.1,0.2,0.1,0.4-0.2,0.4c-0.1,0-0.3-0.1-0.4-0.2c-0.4-0.8-1.1-1-1.9-1c-0.3,0-0.6,0.2-0.9,0.3c-0.4,0.3-0.6,0.8-0.5,1.3
			c0.1,0.5,0.5,0.7,1,0.8c0.3,0.1,0.7,0.1,1,0.1c0.3,0.1,0.6,0.1,0.9,0.2c0.8,0.4,1.2,1.2,0.9,2.1
			C155.8,166.7,155,167.2,153.9,167.2z"/>
		<path class="st5" d="M4.4,167.3c-0.7-0.1-1.3-0.2-1.7-0.7c-0.2-0.2-0.3-0.4-0.5-0.7c-0.1-0.2-0.1-0.4,0.1-0.5
			c0.2-0.1,0.3,0,0.4,0.2c0.4,0.9,1.1,1,1.9,0.9c0.5,0,0.9-0.3,1.1-0.7c0.4-0.7,0.2-1.4-0.5-1.7c-0.2-0.1-0.5-0.1-0.8-0.2
			c-0.4-0.1-0.8-0.1-1.2-0.2c-1.2-0.4-1.5-1.8-0.7-2.8c0.9-1.2,2.9-1,3.7-0.1c0.2,0.2,0.3,0.4,0.4,0.7c0,0.1-0.1,0.3-0.2,0.4
			c-0.1-0.1-0.3-0.1-0.4-0.2c-0.2-0.2-0.3-0.5-0.5-0.6c-0.6-0.5-1.7-0.5-2.2-0.1c-0.5,0.3-0.7,0.8-0.6,1.4c0.1,0.5,0.5,0.8,1,0.9
			c0.3,0.1,0.7,0.1,1,0.1c0.9,0.1,1.6,0.7,1.8,1.4c0.1,0.8-0.3,1.7-1.1,2.1C5.2,167.1,4.8,167.2,4.4,167.3z"/>
		<path class="st8" d="M75.3,164c0,0.9,0,1.7,0,2.6c0.3,0,0.7,0,1,0c0.7,0,1.4,0,2.2,0c0.1,0,0.2,0,0.4,0c0.2,0,0.4,0.1,0.4,0.3
			c0,0.2-0.2,0.3-0.4,0.3c-0.6,0-1.1,0-1.7,0c-0.6,0-1.3,0-1.9,0c-0.4,0-0.5-0.1-0.5-0.5c0-0.5,0-0.9,0-1.4c0-1.5,0-3,0-4.5
			c0-0.6,0-0.6,0.6-0.6c1.1,0,2.2,0,3.3,0c0,0,0,0,0.1,0c0.2,0,0.5,0,0.5,0.3c0,0.3-0.3,0.3-0.5,0.3c-0.7,0-1.4,0-2.1,0
			c-0.4,0-0.8,0-1.2,0c0,0.9,0,1.7,0,2.6c0.2,0,0.4,0,0.6,0c0.6,0,1.3,0,1.9,0c0.2,0,0.4,0,0.4,0.3c0,0.2-0.2,0.3-0.4,0.3
			c-0.6,0-1.2,0-1.9,0C75.8,164,75.6,164,75.3,164z"/>
		<path class="st8" d="M243.3,160.8c0,0.9,0,1.7,0,2.5c0.1,0,0.3,0.1,0.4,0.1c0.6,0,1.2,0,1.8,0c0.1,0,0.3,0,0.4,0
			c0.1,0,0.2,0.1,0.3,0.3c0,0.2-0.1,0.3-0.3,0.3c-0.1,0-0.3,0-0.4,0c-0.6,0-1.2,0-1.8,0c-0.1,0-0.3,0-0.4,0.1c0,0.8,0,1.6,0,2.5
			c0.2,0,0.3,0,0.5,0c0.9,0,1.8,0,2.8,0c0.2,0,0.3,0,0.5,0.1c0.1,0,0.2,0.2,0.2,0.3c0,0.1-0.1,0.2-0.2,0.2c-0.1,0-0.2,0-0.3,0
			c-1.1,0-2.2,0-3.4,0c-0.5,0-0.6,0-0.6-0.6c0-1.9,0-3.9,0-5.8c0-0.6,0.1-0.6,0.6-0.6c1.1,0,2.2,0,3.4,0c0.1,0,0.2,0,0.2,0
			c0.1,0.1,0.3,0.2,0.3,0.3c0,0.1-0.1,0.2-0.2,0.3c-0.1,0.1-0.3,0-0.4,0c-0.9,0-1.7,0-2.6,0C243.7,160.8,243.5,160.8,243.3,160.8z"
			/>
		<path class="st8" d="M62.8,160.8c0,0.9,0,1.7,0,2.6c0.3,0,0.6,0,1,0c0.5,0,1,0,1.6,0c0.2,0,0.4,0,0.4,0.3c0,0.2-0.2,0.3-0.4,0.3
			c-0.6,0-1.2,0-1.9,0c-0.2,0-0.4,0-0.7,0c0,0.9,0,1.7,0,2.6c0.2,0,0.3,0,0.5,0c0.8,0,1.7,0,2.5,0c0.1,0,0.2,0,0.4,0
			c0.2,0,0.5,0,0.5,0.3c0,0.3-0.3,0.3-0.5,0.3c-1.1,0-2.3,0-3.4,0c-0.5,0-0.5,0-0.5-0.5c0-2,0-4,0-6c0-0.5,0.1-0.5,0.5-0.5
			c1.1,0,2.3,0,3.4,0c0.1,0,0.2,0,0.3,0c0.1,0.1,0.2,0.2,0.2,0.2c0,0.1-0.1,0.2-0.2,0.3c-0.1,0.1-0.3,0-0.5,0.1
			C64.9,160.8,63.9,160.8,62.8,160.8z"/>
		<path class="st8" d="M15.4,160.8c0,0.9,0,1.7,0,2.5c0.2,0,0.3,0.1,0.5,0.1c0.6,0,1.2,0,1.7,0c0.1,0,0.2,0,0.4,0
			c0.2,0,0.4,0.1,0.4,0.3c0,0.2-0.2,0.3-0.3,0.3c-0.1,0-0.2,0-0.4,0c-0.5,0-1.1,0-1.6,0c-0.2,0-0.4,0-0.6,0c0,0.9,0,1.7,0,2.5
			c0.2,0,0.3,0,0.5,0c0.8,0,1.6,0,2.5,0c0.1,0,0.2,0,0.4,0c0.2,0,0.5,0,0.5,0.3c0,0.4-0.3,0.3-0.5,0.3c-1.1,0-2.2,0-3.4,0
			c-0.5,0-0.5,0-0.5-0.5c0-2,0-3.9,0-5.9c0-0.5,0-0.6,0.6-0.6c1.1,0,2.2,0,3.4,0c0.1,0,0.2,0,0.2,0c0.1,0.1,0.2,0.2,0.3,0.3
			c0,0.2-0.1,0.3-0.3,0.3c-0.2,0-0.3,0-0.5,0C17.5,160.8,16.5,160.8,15.4,160.8z"/>
		<path class="st8" d="M202.7,163.4c0.7,0,1.4,0,2.1,0c0.2,0,0.4,0,0.6,0c0.1,0,0.3,0.2,0.3,0.3c0,0.1-0.1,0.2-0.2,0.3
			c-0.2,0-0.4,0-0.5,0c-0.7,0-1.4,0-2.1,0c0,0.9,0,1.7,0,2.6c0.5,0,1.1,0,1.6,0c0.6,0,1.1,0,1.7,0c0.1,0,0.3,0,0.4,0.1
			c0.1,0,0.2,0.2,0.2,0.3c0,0.1-0.1,0.2-0.2,0.2c-0.1,0-0.2,0-0.3,0c-1.1,0-2.2,0-3.4,0c-0.5,0-0.6,0-0.6-0.6c0-1.9,0-3.9,0-5.8
			c0-0.6,0-0.6,0.6-0.6c1.1,0,2.2,0,3.3,0c0,0,0.1,0,0.1,0c0.2,0,0.4,0,0.4,0.3c0,0.3-0.2,0.3-0.4,0.3c-0.7,0-1.5,0-2.2,0
			c-0.4,0-0.7,0-1.2,0C202.7,161.7,202.7,162.5,202.7,163.4z"/>
		<path class="st8" d="M249.5,160.8c0,0.9,0,1.7,0,2.6c0.2,0,0.4,0,0.7,0c0.6,0,1.3,0,1.9,0c0.2,0,0.4,0.1,0.3,0.3
			c0,0.1-0.2,0.2-0.3,0.3c-0.6,0-1.3,0-1.9,0c-0.2,0-0.4,0-0.7,0c0,0.9,0,1.7,0,2.6c0.2,0,0.3,0,0.5,0c0.9,0,1.7,0,2.6,0
			c0.1,0,0.2,0,0.4,0c0.2,0,0.4,0.1,0.4,0.3c0,0.3-0.2,0.3-0.4,0.3c-1.2,0-2.4,0-3.5,0c-0.4,0-0.5,0-0.5-0.5c0-2,0-4,0-6
			c0-0.4,0.1-0.5,0.5-0.5c1.2,0,2.4,0,3.5,0c0.1,0,0.1,0,0.2,0c0.1,0.1,0.2,0.2,0.3,0.3c0,0.1-0.1,0.2-0.2,0.3c-0.1,0.1-0.3,0-0.5,0
			C251.6,160.8,250.5,160.8,249.5,160.8z"/>
		<path class="st7" d="M124.9,164.1c0,0.8,0,1.5,0,2.3c0,0.2,0,0.4,0,0.5c0,0.2-0.1,0.3-0.3,0.3c-0.2,0-0.3-0.1-0.3-0.3
			c0-0.1,0-0.2,0-0.3c0-1.9,0-3.8,0-5.7c0-0.6,0-0.6,0.6-0.6c0.7,0,1.5,0,2.2,0c1.5,0.1,2.2,1.8,1.4,2.9c-0.3,0.4-0.7,0.7-1.3,0.8
			c-0.6,0.1-1.2,0.1-1.8,0.1C125.3,164.1,125.2,164.1,124.9,164.1z M125,160.8c-0.1,0.7-0.1,2.1,0,2.6c0.6,0,1.3,0,1.9,0
			c0.1,0,0.3,0,0.4-0.1c0.6-0.2,1-0.7,1-1.3c0-0.6-0.5-1.1-1.2-1.2C126.4,160.8,125.7,160.8,125,160.8z"/>
		<path class="st7" d="M9.1,164.1c0,0.9,0,1.7,0,2.5c0,0.2,0,0.3,0,0.5c0,0.1-0.2,0.2-0.3,0.2c-0.1,0-0.2-0.1-0.2-0.2
			c0-0.1,0-0.3,0-0.4c0-1.9,0-3.8,0-5.7c0-0.7,0-0.7,0.7-0.7c0.7,0,1.4,0,2.1,0c1.1,0.1,1.9,0.9,1.8,2c0,0.8-0.7,1.5-1.5,1.7
			c-0.3,0.1-0.6,0.1-1,0.1C10.1,164.1,9.6,164.1,9.1,164.1z M9.1,163.4c0.7,0,1.3,0,2,0c0.2,0,0.3,0,0.5-0.1c0.6-0.2,1-0.7,0.9-1.3
			c0-0.6-0.5-1.1-1.1-1.1c-0.7-0.1-1.5,0-2.2,0C9.1,161.7,9.1,162.5,9.1,163.4z"/>
		<path class="st5" d="M24,167.2c-1.6,0.1-3.6-1.4-3.5-3.7c0.1-2,1.8-3.5,3.8-3.3c0.6,0.1,1.1,0.2,1.6,0.5c0.1,0.1,0.2,0.1,0.3,0.2
			c0.1,0.1,0.1,0.3,0,0.3c-0.1,0.1-0.2,0.2-0.3,0.1c-0.2,0-0.3-0.2-0.5-0.3c-1.1-0.5-2.1-0.5-3.1,0.2c-1,0.7-1.4,1.8-1.1,3
			c0.2,1.2,1,1.9,2.2,2.2c0.8,0.2,1.6,0.1,2.3-0.4c0.1-0.1,0.2-0.1,0.3-0.2c0.2-0.1,0.3-0.2,0.5,0c0.1,0.2,0.1,0.3-0.1,0.5
			c-0.5,0.5-1.1,0.8-1.8,0.8C24.3,167.2,24.2,167.2,24,167.2z"/>
		<path class="st8" d="M211.2,166.6c1.1,0,2.1,0,3.1,0c0.2,0,0.3,0,0.5,0c0.1,0.1,0.2,0.2,0.3,0.3c0,0-0.2,0.2-0.3,0.2
			c0,0-0.1,0-0.2,0c-1.2,0-2.3,0-3.5,0c-0.4,0-0.5,0-0.5-0.5c0-2,0-4,0-6.1c0-0.4,0.1-0.5,0.5-0.5c1.2,0,2.3,0,3.5,0
			c0.1,0,0.2,0,0.3,0c0.1,0,0.2,0.1,0.2,0.2c0,0.1-0.1,0.3-0.1,0.3c-0.1,0.1-0.3,0.1-0.5,0.1c-0.9,0-1.7,0-2.6,0c-0.2,0-0.4,0-0.6,0
			c0,0.9,0,1.7,0,2.6c0.3,0,0.7,0,1,0c0.5,0,1.1,0,1.6,0c0.2,0,0.3,0.1,0.3,0.3c0,0.2-0.1,0.3-0.3,0.3c-0.6,0-1.2,0-1.9,0
			c-0.2,0-0.5,0-0.7,0c0,0.2-0.1,0.4-0.1,0.5C211.2,165.2,211.2,165.9,211.2,166.6z"/>
		<path class="st7" d="M122.2,162.9c0,0.7,0,1.3,0,2c0,1.3-1,2.3-2.4,2.4c-1.3,0.1-2.5-1.1-2.5-2.3c0-1.4,0-2.8,0-4.1
			c0-0.1,0-0.1,0-0.2c0-0.2,0.1-0.3,0.3-0.3c0.2,0,0.3,0.1,0.3,0.3c0,0.2,0,0.4,0,0.5c0,1.2,0,2.5,0,3.7c0,1,0.7,1.8,1.7,1.8
			c1.1,0,1.9-0.7,1.9-1.8c0-1.2,0-2.4,0-3.6c0-0.1,0-0.3,0-0.4c0-0.2-0.1-0.5,0.3-0.6c0.4,0,0.3,0.3,0.3,0.5c0,0.5,0,1.1,0,1.6
			C122.2,162.6,122.2,162.7,122.2,162.9z"/>
		<path class="st8" d="M167.1,160.8c0,0.9,0,1.7,0,2.6c0.4,0,0.7,0,1.1,0c0.5,0,1,0,1.5,0c0.2,0,0.3,0.1,0.3,0.3
			c0,0.2-0.1,0.3-0.3,0.3c-0.4,0-0.8,0-1.1,0c-0.5,0-0.9,0-1.4,0c0,0.3-0.1,0.5-0.1,0.7c0,0.6,0,1.3,0,1.9c0,0.1,0,0.3,0,0.4
			c0,0.1-0.2,0.2-0.3,0.2c-0.1,0-0.2-0.1-0.2-0.2c0-0.1,0-0.2,0-0.4c0-1.9,0-3.9,0-5.8c0-0.6,0-0.6,0.6-0.6c1.1,0,2.2,0,3.3,0
			c0.1,0,0.2,0,0.3,0c0.1,0.1,0.2,0.2,0.2,0.3c0,0.1-0.1,0.2-0.2,0.3c-0.1,0.1-0.3,0-0.4,0c-0.8,0-1.7,0-2.5,0
			C167.6,160.8,167.4,160.8,167.1,160.8z"/>
		<path class="st6" d="M173.9,160.8c-0.5,0-1,0-1.4,0c-0.1,0-0.2,0-0.4,0c-0.2,0-0.4-0.1-0.4-0.3c0-0.3,0.2-0.3,0.4-0.3
			c0.9,0,1.8,0,2.8,0c0.5,0,1,0,1.4,0c0.2,0,0.4,0,0.4,0.3c0,0.3-0.2,0.3-0.4,0.3c-0.6,0-1.2,0-1.8,0c0,0.3,0,0.5,0,0.7
			c0,1.7,0,3.3,0,5c0,0.2,0,0.3,0,0.5c0,0.1-0.2,0.2-0.3,0.2c-0.1,0-0.2-0.1-0.3-0.2c-0.1-0.1,0-0.3,0-0.5c0-1.6,0-3.3,0-4.9
			C173.9,161.4,173.9,161.2,173.9,160.8z"/>
		<path class="st6" d="M89.2,160.8c0,0.3,0,0.5,0,0.6c0,1.7,0,3.4,0,5c0,0.2,0,0.3,0,0.5c0,0.1-0.2,0.2-0.2,0.2
			c-0.1,0-0.3-0.1-0.3-0.2c-0.1-0.1,0-0.3,0-0.5c0-1.7,0-3.4,0-5c0-0.2,0-0.4,0-0.6c-0.2,0-0.4,0-0.6,0c-0.3,0-0.7,0-1,0
			c-0.2,0-0.5,0-0.5-0.3c0-0.4,0.3-0.3,0.5-0.3c1.3,0,2.6,0,3.9,0c0.2,0,0.5-0.1,0.6,0.3c0,0.3-0.3,0.3-0.5,0.3
			C90.3,160.8,89.8,160.8,89.2,160.8z"/>
		<path class="st6" d="M58.6,160.8c0,0.3,0,0.5,0,0.7c0,1.7,0,3.3,0,5c0,0.2,0,0.3,0,0.5c0,0.1-0.2,0.2-0.3,0.2
			c-0.1,0-0.2-0.1-0.3-0.2c-0.1-0.1,0-0.3,0-0.5c0-1.6,0-3.3,0-4.9c0-0.2,0-0.4,0-0.7c-0.5,0-0.9,0-1.3,0c-0.2,0-0.4,0-0.6,0
			c-0.2,0-0.3-0.1-0.3-0.3c0-0.1,0.2-0.2,0.3-0.2c0.1,0,0.2,0,0.3,0c1.3,0,2.6,0,3.8,0c0.2,0,0.5-0.1,0.6,0.3c0,0.2-0.2,0.3-0.6,0.3
			C59.7,160.8,59.2,160.8,58.6,160.8z"/>
		<path class="st6" d="M38.7,166.6c1,0,1.8,0,2.7,0c0.2,0,0.3,0,0.5,0c0.1,0,0.2,0.2,0.3,0.3c0,0.1-0.2,0.3-0.2,0.3
			c-1.2,0-2.4,0-3.5,0c-0.1,0-0.2-0.2-0.3-0.3c0-0.1,0-0.2,0-0.4c0-1.9,0-3.8,0-5.7c0-0.1,0-0.2,0-0.3c0-0.2,0.1-0.4,0.3-0.4
			c0.2,0,0.3,0.2,0.3,0.4c0,0.1,0,0.3,0,0.4c0,1.6,0,3.3,0,4.9C38.7,166.2,38.7,166.4,38.7,166.6z"/>
		<path class="st5" d="M28.9,163.7c0,1,0,1.9,0,2.9c0,0.1,0,0.3,0,0.4c0,0.1-0.2,0.2-0.3,0.2c-0.1,0-0.2-0.1-0.3-0.2
			c-0.1-0.1,0-0.3,0-0.4c0-1.9,0-3.8,0-5.8c0-0.1,0-0.2,0-0.3c0.1-0.1,0.2-0.2,0.3-0.3c0.1,0.1,0.2,0.2,0.3,0.3c0.1,0.1,0,0.3,0,0.4
			C28.9,161.9,28.9,162.8,28.9,163.7z"/>
		<path class="st8" d="M46.6,163.8c0,0.9,0,1.8,0,2.6c0,0.1,0,0.2,0,0.3c0,0.2,0,0.5-0.3,0.5c-0.3,0-0.3-0.2-0.3-0.4
			c0-0.1,0-0.2,0-0.3c0-1.8,0-3.7,0-5.5c0-0.2,0-0.3,0-0.5c0-0.1,0.2-0.2,0.3-0.2c0.1,0,0.2,0.1,0.3,0.3c0,0.1,0,0.3,0,0.4
			C46.6,161.9,46.6,162.9,46.6,163.8z"/>
		<path class="st8" d="M262,163.7c0,0.9,0,1.8,0,2.8c0,0.1,0,0.2,0,0.4c0,0.2-0.1,0.4-0.3,0.3c-0.1,0-0.2-0.2-0.3-0.3
			c0-0.1,0-0.2,0-0.4c0-1.9,0-3.7,0-5.6c0-0.1,0-0.2,0-0.3c0-0.2,0-0.4,0.3-0.4c0.2,0,0.3,0.2,0.3,0.4c0,0.1,0,0.2,0,0.4
			C262,161.9,262,162.8,262,163.7z"/>
		<path class="st8" d="M232.7,163.7c0,1,0,2,0,2.9c0,0.2,0.1,0.5-0.3,0.6c-0.4,0-0.3-0.3-0.3-0.5c0-2,0-3.9,0-5.9c0,0,0,0,0-0.1
			c0-0.2,0-0.5,0.3-0.5c0.3,0,0.3,0.3,0.3,0.5c0,0.9,0,1.7,0,2.6C232.7,163.4,232.7,163.6,232.7,163.7z"/>
		<path class="st9" d="M53.8,165.7c0,0.1,0,0.1,0,0.2c-0.1-0.1-0.1-0.1-0.2-0.2C53.6,165.8,53.7,165.8,53.8,165.7z"/>
		<path class="st9" d="M146.8,165.7c0,0.1,0,0.1,0,0.2c-0.1-0.1-0.1-0.1-0.2-0.2C146.7,165.8,146.8,165.8,146.8,165.7z"/>
		<path class="st9" d="M269.2,165.7c0,0.1,0,0.1,0,0.2c-0.1-0.1-0.1-0.1-0.2-0.2C269.1,165.8,269.1,165.8,269.2,165.7z"/>
		<path class="st9" d="M217.4,161.6C217.4,161.6,217.4,161.5,217.4,161.6C217.4,161.5,217.4,161.5,217.4,161.6
			C217.4,161.6,217.4,161.6,217.4,161.6z"/>
		<path class="st9" d="M235.6,161.6C235.6,161.6,235.6,161.5,235.6,161.6C235.6,161.5,235.6,161.5,235.6,161.6
			C235.6,161.6,235.6,161.6,235.6,161.6z"/>
		<path class="st10" d="M176.6,86.7c0,0-0.1-0.1-0.1-0.1C176.6,86.6,176.6,86.6,176.6,86.7z"/>
		<path class="st11" d="M221.8,165.9c0,0-0.1,0-0.1,0C221.7,165.9,221.7,165.9,221.8,165.9z"/>
		<path class="st11" d="M240,165.9c0,0-0.1,0-0.1,0C239.9,165.9,239.9,165.9,240,165.9z"/>
		<path class="st0" d="M170.9,147.6c-2.9,0-5.9,0-8.8,0c-0.6,0-1.2,0-1.8-0.2c-0.8-0.3-1.5-0.8-2-1.5c-0.6-0.8-0.9-1.8-1-2.8
			c-0.1-1,0-2,0.2-2.9c0.5-1.7,1.9-3,3.5-3.2c0.6-0.1,1.3-0.1,1.9-0.1c5.6,0,11.2,0,16.8,0c1,0,2,0.2,2.9,0.8c1.1,0.8,1.7,1.8,2,3.1
			c0.2,1.1,0.2,2.2-0.1,3.3c-0.5,2-2.1,3.4-4.1,3.5c-0.9,0-1.8,0-2.6,0C175.4,147.6,173.1,147.6,170.9,147.6z"/>
		<path class="st12" d="M161,166.6c-1.6,0-2.9-1.3-2.9-2.9c0-1.6,1.4-2.9,3-2.9c1.6,0.1,2.8,1.3,2.8,2.9
			C164,165.5,162.5,166.7,161,166.6z"/>
		<path class="st12" d="M136.5,160.8c1.6,0,2.9,1.3,2.9,2.9c0,1.5-1.4,3-3,2.9c-1.6-0.1-2.8-1.3-2.9-2.9
			C133.5,162.1,135,160.7,136.5,160.8z"/>
		<path class="st12" d="M112.1,160.8c1.5-0.1,2.9,1.3,2.9,2.9c0,1.5-1.4,3-3,2.9c-1.6-0.1-2.9-1.3-2.9-2.9
			C109.2,162.1,110.5,160.8,112.1,160.8z"/>
		<path class="st12" d="M255.6,160.8c0.7,0,1.4,0,2.1,0c0.7,0,1.2,0.7,1.2,1.3c0,0.6-0.6,1.2-1.3,1.2c-0.7,0-1.4,0-2.1,0
			C255.6,162.5,255.6,161.7,255.6,160.8z"/>
		<path class="st12" d="M103.3,160.8c0.7,0,1.4,0,2.1,0c0.7,0,1.3,0.6,1.2,1.3c0,0.7-0.5,1.2-1.3,1.3c-0.7,0-1.3,0-2.1,0
			C103.3,162.5,103.3,161.7,103.3,160.8z"/>
		<path class="st12" d="M68.9,163.4c0-0.9,0-1.7,0-2.5c0.8,0,1.5,0,2.2,0c0.6,0.1,1.1,0.7,1.1,1.3c0,0.6-0.5,1.2-1.1,1.2
			C70.4,163.4,69.7,163.4,68.9,163.4z"/>
		<path class="st12" d="M196.3,160.8c0.7,0,1.4,0,2,0c0.7,0,1.3,0.6,1.3,1.3c0,0.7-0.6,1.2-1.3,1.2c-0.6,0-1.3,0-2,0
			C196.3,162.5,196.3,161.7,196.3,160.8z"/>
		<path class="st12" d="M33.7,161.5c0.5,1.2,0.9,2.3,1.4,3.5c-1,0-2,0-3,0c0.4-1.2,1-2.3,1.4-3.5C33.6,161.5,33.6,161.5,33.7,161.5z
			"/>
		<path class="st12" d="M189.7,165c0.5-1.3,1-2.4,1.5-3.7c0.5,1.3,1,2.4,1.5,3.7c-0.5,0-1,0-1.5,0C190.8,165,190.3,165,189.7,165z"
			/>
		<path class="st12" d="M125,160.8c0.7,0,1.4,0,2.1,0c0.6,0,1.1,0.6,1.2,1.2c0,0.6-0.3,1.1-1,1.3c-0.1,0-0.3,0.1-0.4,0.1
			c-0.6,0-1.3,0-1.9,0C124.9,163,124.9,161.5,125,160.8z"/>
		<path class="st12" d="M9.1,163.4c0-0.9,0-1.7,0-2.6c0.8,0,1.5,0,2.2,0c0.6,0,1.1,0.6,1.1,1.1c0,0.6-0.3,1.1-0.9,1.3
			c-0.1,0.1-0.3,0.1-0.5,0.1C10.4,163.5,9.8,163.4,9.1,163.4z"/>
	</g>
</g>
</svg>
