<?xml version="1.0" encoding="utf-8"?>
<!-- Generator: Adobe Illustrator 26.5.0, SVG Export Plug-In . SVG Version: 6.00 Build 0)  -->
<svg version="1.1" id="Layer_1" xmlns="http://www.w3.org/2000/svg" xmlns:xlink="http://www.w3.org/1999/xlink" x="0px" y="0px"
	 viewBox="0 0 2500 2500" style="enable-background:new 0 0 2500 2500;" xml:space="preserve">
<style type="text/css">
	.st0{fill:#02B3E4;}
</style>
<g id="_x38_0-mark-white">
	<path id="mark_28_" class="st0" d="M923.4,209.9L275.1,585.2v857.9c0,394.8,316.8,716.5,711.6,716.5c131.6,0,253.5-34.1,360.7-92.6
		l526.4-302.2c209.6-112.1,350.9-326.6,350.9-580V287.9l-126.7-73.1l-555.7,297.3V1448c0,39-4.9,78-9.7,117
		c-9.7,39-19.5,73.1-34.1,107.2l-14.6,29.2c-19.5,0-141.4-43.9-204.7-87.7c-29.2-19.5-53.6-39-78-63.4c-24.4-24.4-43.9-48.7-63.4-78
		s-34.1-58.5-48.7-87.7s-24.4-63.4-29.2-97.5s-4.9-68.2-4.9-102.4V287.9L923.4,209.9z M1240.3,1974.4
		c-34.1,14.6-82.9,34.1-121.9,43.9c-39,9.7-73.1,9.7-112.1,9.7s-78-4.9-117-14.6c-39-9.7-73.1-19.5-107.2-34.1s-68.2-34.1-97.5-53.6
		c-87.7-53.6-131.6-102.4-165.7-156c-19.5-29.2-39-63.4-53.6-97.5s-24.4-73.1-34.1-112.1c-9.7-39-9.7-78-9.7-117V658.3L908.8,361
		v823.8c0,312,229.1,575.2,521.5,638.5c-9.7,14.6-19.5,29.2-34.1,39C1342.6,1915.9,1298.7,1950,1240.3,1974.4L1240.3,1974.4z
		 M2068.9,1292c-4.9,34.1-19.5,68.2-29.2,97.5c-14.6,29.2-29.2,58.5-48.7,87.7c-19.5,29.2-78,102.4-156,146.2
		c-78,43.9-151.1,58.5-195,68.2c29.2-78,48.7-156,48.7-243.7V585.2L2078.6,361v823.8C2078.6,1223.7,2078.6,1257.9,2068.9,1292z"/>
</g>
</svg>
